<?xml version="1.0" encoding="UTF-8" standalone="no"?>
<!DOCTYPE svg PUBLIC "-//W3C//DTD SVG 1.1//EN"
 "http://www.w3.org/Graphics/SVG/1.1/DTD/svg11.dtd">
<!-- Generated by graphviz version 2.40.1 (20161225.0304)
 -->
<!-- Title: G Pages: 1 -->
<svg width="916pt" height="269pt"
 viewBox="0.00 0.00 916.00 269.00" xmlns="http://www.w3.org/2000/svg" xmlns:xlink="http://www.w3.org/1999/xlink">
<g id="graph0" class="graph" transform="scale(1 1) rotate(0) translate(4 265)">
<title>G</title>
<text text-anchor="middle" x="454" y="-7.8" font-family="Source Sans Pro" font-size="14.00" fill="#323a4e">PKI Certificate Infrastructure</text>
<g id="clust1" class="cluster">
<title>cluster_server</title>
<polygon fill="#27c97b" stroke="#27c97b" stroke-dasharray="5,2" points="245.5,-66 245.5,-217 579.5,-217 579.5,-66 245.5,-66"/>
<text text-anchor="middle" x="412.5" y="-201.8" font-family="Source Sans Pro" font-size="14.00" fill="#323a4e">Servers</text>
</g>
<g id="clust2" class="cluster">
<title>cluster_app</title>
<polygon fill="#20d5ff" stroke="#20d5ff" stroke-dasharray="5,2" points="604.5,-140 604.5,-217 740.5,-217 740.5,-140 604.5,-140"/>
<text text-anchor="middle" x="672.5" y="-201.8" font-family="Source Sans Pro" font-size="14.00" fill="#323a4e">Apps</text>
</g>
<!-- ROOT_CA -->
<g id="node1" class="node">
<title>ROOT_CA</title>
<defs>
<linearGradient id="l_0" gradientUnits="userSpaceOnUse" x1="512.5" y1="-243" x2="656.5" y2="-243" >
<stop offset="0" style="stop-color:#9351e5;stop-opacity:1.;"/>
<stop offset="1" style="stop-color:#ef468b;stop-opacity:1.;"/>
</linearGradient>
</defs>
<path fill="url(#l_0)" stroke="#323a4e" d="M644.5,-261C644.5,-261 524.5,-261 524.5,-261 518.5,-261 512.5,-255 512.5,-249 512.5,-249 512.5,-237 512.5,-237 512.5,-231 518.5,-225 524.5,-225 524.5,-225 644.5,-225 644.5,-225 650.5,-225 656.5,-231 656.5,-237 656.5,-237 656.5,-249 656.5,-249 656.5,-255 650.5,-261 644.5,-261"/>
<text text-anchor="middle" x="584.5" y="-239.3" font-family="Source Sans Pro" font-size="14.00" fill="#ffffff">example.com Root CA</text>
</g>
<!-- I_CA_1 -->
<g id="node2" class="node">
<title>I_CA_1</title>
<polygon fill="#fc4661" stroke="#fc4661" stroke-dasharray="1,5" points="554,-186 439,-186 439,-148 554,-148 554,-186"/>
<text text-anchor="middle" x="496.5" y="-170.8" font-family="Source Sans Pro" font-size="14.00" fill="#ffffff">svr.example.com</text>
<text text-anchor="middle" x="496.5" y="-155.8" font-family="Source Sans Pro" font-size="14.00" fill="#ffffff">Intermediate CA</text>
</g>
<!-- ROOT_CA&#45;&gt;I_CA_1 -->
<g id="edge1" class="edge">
<title>ROOT_CA&#45;&gt;I_CA_1</title>
<path fill="none" stroke="#323a4e" d="M563.6452,-224.9891C552.5549,-215.411 538.722,-203.4645 526.4986,-192.9079"/>
<polygon fill="#323a4e" stroke="#323a4e" points="518.7434,-186.2102 529.253,-189.3407 522.5276,-189.4783 526.3117,-192.7465 526.3117,-192.7465 526.3117,-192.7465 522.5276,-189.4783 523.3704,-196.1522 518.7434,-186.2102 518.7434,-186.2102"/>
</g>
<!-- I_CA_2 -->
<g id="node3" class="node">
<title>I_CA_2</title>
<polygon fill="#fc4661" stroke="#fc4661" stroke-dasharray="1,5" points="732.5,-186 612.5,-186 612.5,-148 732.5,-148 732.5,-186"/>
<text text-anchor="middle" x="672.5" y="-170.8" font-family="Source Sans Pro" font-size="14.00" fill="#ffffff">app.example.com</text>
<text text-anchor="middle" x="672.5" y="-155.8" font-family="Source Sans Pro" font-size="14.00" fill="#ffffff">Intermediate CA</text>
</g>
<!-- ROOT_CA&#45;&gt;I_CA_2 -->
<g id="edge2" class="edge">
<title>ROOT_CA&#45;&gt;I_CA_2</title>
<path fill="none" stroke="#323a4e" d="M605.3548,-224.9891C616.4451,-215.411 630.278,-203.4645 642.5014,-192.9079"/>
<polygon fill="#323a4e" stroke="#323a4e" points="650.2566,-186.2102 645.6296,-196.1522 646.4724,-189.4783 642.6883,-192.7465 642.6883,-192.7465 642.6883,-192.7465 646.4724,-189.4783 639.747,-189.3407 650.2566,-186.2102 650.2566,-186.2102"/>
</g>
<!-- I_CA_1_1 -->
<g id="node4" class="node">
<title>I_CA_1_1</title>
<polygon fill="#2f81f7" stroke="#2f81f7" stroke-dasharray="1,5" points="385.5,-112 253.5,-112 253.5,-74 385.5,-74 385.5,-112"/>
<text text-anchor="middle" x="319.5" y="-96.8" font-family="Source Sans Pro" font-size="14.00" fill="#ffffff">us.svr.example.com</text>
<text text-anchor="middle" x="319.5" y="-81.8" font-family="Source Sans Pro" font-size="14.00" fill="#ffffff">Intermediate CA</text>
</g>
<!-- I_CA_1&#45;&gt;I_CA_1_1 -->
<g id="edge3" class="edge">
<title>I_CA_1&#45;&gt;I_CA_1_1</title>
<path fill="none" stroke="#323a4e" d="M450.9181,-147.9432C427.6786,-138.2272 399.2295,-126.3333 374.7513,-116.0994"/>
<polygon fill="#323a4e" stroke="#323a4e" points="365.2347,-112.1207 376.1967,-111.8263 369.8478,-114.0494 374.4609,-115.978 374.4609,-115.978 374.4609,-115.978 369.8478,-114.0494 372.7251,-120.1298 365.2347,-112.1207 365.2347,-112.1207"/>
</g>
<!-- I_CA_1_2 -->
<g id="node5" class="node">
<title>I_CA_1_2</title>
<polygon fill="#2f81f7" stroke="#2f81f7" stroke-dasharray="1,5" points="571.5,-112 421.5,-112 421.5,-74 571.5,-74 571.5,-112"/>
<text text-anchor="middle" x="496.5" y="-96.8" font-family="Source Sans Pro" font-size="14.00" fill="#ffffff">emea.svr.example.com</text>
<text text-anchor="middle" x="496.5" y="-81.8" font-family="Source Sans Pro" font-size="14.00" fill="#ffffff">Intermediate CA</text>
</g>
<!-- I_CA_1&#45;&gt;I_CA_1_2 -->
<g id="edge4" class="edge">
<title>I_CA_1&#45;&gt;I_CA_1_2</title>
<path fill="none" stroke="#323a4e" d="M496.5,-147.9432C496.5,-140.1493 496.5,-130.9538 496.5,-122.3381"/>
<polygon fill="#323a4e" stroke="#323a4e" points="496.5,-112.2495 501.0001,-122.2494 496.5,-117.2495 496.5001,-122.2495 496.5001,-122.2495 496.5001,-122.2495 496.5,-117.2495 492.0001,-122.2495 496.5,-112.2495 496.5,-112.2495"/>
</g>
<!-- L_APP_1 -->
<g id="node10" class="node">
<title>L_APP_1</title>
<path fill="#c043d7" stroke="transparent" d="M732,-100.5C732,-100.5 613,-100.5 613,-100.5 610.5,-100.5 608,-98 608,-95.5 608,-95.5 608,-90.5 608,-90.5 608,-88 610.5,-85.5 613,-85.5 613,-85.5 732,-85.5 732,-85.5 734.5,-85.5 737,-88 737,-90.5 737,-90.5 737,-95.5 737,-95.5 737,-98 734.5,-100.5 732,-100.5"/>
<text text-anchor="middle" x="672.5" y="-89.3" font-family="Source Sans Pro" font-size="14.00" fill="#ffffff">eng.app.example.com</text>
</g>
<!-- I_CA_2&#45;&gt;L_APP_1 -->
<g id="edge5" class="edge">
<title>I_CA_2&#45;&gt;L_APP_1</title>
<path fill="none" stroke="#323a4e" d="M672.5,-147.9432C672.5,-136.5012 672.5,-122.0387 672.5,-110.8241"/>
<polygon fill="#323a4e" stroke="#323a4e" points="672.5,-100.5758 677.0001,-110.5758 672.5,-105.5758 672.5001,-110.5758 672.5001,-110.5758 672.5001,-110.5758 672.5,-105.5758 668.0001,-110.5759 672.5,-100.5758 672.5,-100.5758"/>
</g>
<!-- L_APP_2 -->
<g id="node11" class="node">
<title>L_APP_2</title>
<path fill="#c043d7" stroke="transparent" d="M903,-100.5C903,-100.5 778,-100.5 778,-100.5 775.5,-100.5 773,-98 773,-95.5 773,-95.5 773,-90.5 773,-90.5 773,-88 775.5,-85.5 778,-85.5 778,-85.5 903,-85.5 903,-85.5 905.5,-85.5 908,-88 908,-90.5 908,-90.5 908,-95.5 908,-95.5 908,-98 905.5,-100.5 903,-100.5"/>
<text text-anchor="middle" x="840.5" y="-89.3" font-family="Source Sans Pro" font-size="14.00" fill="#ffffff">prod.app.example.com</text>
</g>
<!-- I_CA_2&#45;&gt;L_APP_2 -->
<g id="edge6" class="edge">
<title>I_CA_2&#45;&gt;L_APP_2</title>
<path fill="none" stroke="#323a4e" d="M715.7642,-147.9432C746.799,-134.2731 787.6223,-116.2914 813.9645,-104.6883"/>
<polygon fill="#323a4e" stroke="#323a4e" points="823.3008,-100.5758 815.9632,-108.7251 818.725,-102.5914 814.1492,-104.6069 814.1492,-104.6069 814.1492,-104.6069 818.725,-102.5914 812.3352,-100.4887 823.3008,-100.5758 823.3008,-100.5758"/>
</g>
<!-- L_US_SVR_1 -->
<g id="node6" class="node">
<title>L_US_SVR_1</title>
<path fill="#c043d7" stroke="transparent" d="M170,-38C170,-38 5,-38 5,-38 2.5,-38 0,-35.5 0,-33 0,-33 0,-28 0,-28 0,-25.5 2.5,-23 5,-23 5,-23 170,-23 170,-23 172.5,-23 175,-25.5 175,-28 175,-28 175,-33 175,-33 175,-35.5 172.5,-38 170,-38"/>
<text text-anchor="middle" x="87.5" y="-26.8" font-family="Source Sans Pro" font-size="14.00" fill="#ffffff">mesos&#45;01.us.svr.example.com</text>
</g>
<!-- I_CA_1_1&#45;&gt;L_US_SVR_1 -->
<g id="edge7" class="edge">
<title>I_CA_1_1&#45;&gt;L_US_SVR_1</title>
<path fill="none" stroke="#323a4e" d="M253.3286,-75.1737C211.7612,-63.9755 159.6542,-49.9381 125.0595,-40.6184"/>
<polygon fill="#323a4e" stroke="#323a4e" points="115.3536,-38.0037 126.1799,-36.2599 120.1814,-39.3043 125.0093,-40.605 125.0093,-40.605 125.0093,-40.605 120.1814,-39.3043 123.8387,-44.95 115.3536,-38.0037 115.3536,-38.0037"/>
</g>
<!-- L_US_SVR_2 -->
<g id="node7" class="node">
<title>L_US_SVR_2</title>
<path fill="#c043d7" stroke="transparent" d="M381,-38C381,-38 216,-38 216,-38 213.5,-38 211,-35.5 211,-33 211,-33 211,-28 211,-28 211,-25.5 213.5,-23 216,-23 216,-23 381,-23 381,-23 383.5,-23 386,-25.5 386,-28 386,-28 386,-33 386,-33 386,-35.5 383.5,-38 381,-38"/>
<text text-anchor="middle" x="298.5" y="-26.8" font-family="Source Sans Pro" font-size="14.00" fill="#ffffff">mesos&#45;02.us.svr.example.com</text>
</g>
<!-- I_CA_1_1&#45;&gt;L_US_SVR_2 -->
<g id="edge8" class="edge">
<title>I_CA_1_1&#45;&gt;L_US_SVR_2</title>
<path fill="none" stroke="#323a4e" d="M313.0852,-73.9083C310.2672,-65.5215 306.9842,-55.7505 304.2472,-47.6047"/>
<polygon fill="#323a4e" stroke="#323a4e" points="301.0488,-38.0857 308.4995,-46.1316 302.6413,-42.8253 304.2339,-47.5649 304.2339,-47.5649 304.2339,-47.5649 302.6413,-42.8253 299.9682,-48.9982 301.0488,-38.0857 301.0488,-38.0857"/>
</g>
<!-- L_EMEA_SVR_1 -->
<g id="node8" class="node">
<title>L_EMEA_SVR_1</title>
<path fill="#c043d7" stroke="transparent" d="M610,-38C610,-38 427,-38 427,-38 424.5,-38 422,-35.5 422,-33 422,-33 422,-28 422,-28 422,-25.5 424.5,-23 427,-23 427,-23 610,-23 610,-23 612.5,-23 615,-25.5 615,-28 615,-28 615,-33 615,-33 615,-35.5 612.5,-38 610,-38"/>
<text text-anchor="middle" x="518.5" y="-26.8" font-family="Source Sans Pro" font-size="14.00" fill="#ffffff">mesos&#45;01.emea.svr.example.com</text>
</g>
<!-- I_CA_1_2&#45;&gt;L_EMEA_SVR_1 -->
<g id="edge9" class="edge">
<title>I_CA_1_2&#45;&gt;L_EMEA_SVR_1</title>
<path fill="none" stroke="#323a4e" d="M503.2203,-73.9083C506.1724,-65.5215 509.6118,-55.7505 512.4791,-47.6047"/>
<polygon fill="#323a4e" stroke="#323a4e" points="515.8299,-38.0857 516.7542,-49.0125 514.1697,-42.802 512.5095,-47.5183 512.5095,-47.5183 512.5095,-47.5183 514.1697,-42.802 508.2648,-46.0242 515.8299,-38.0857 515.8299,-38.0857"/>
</g>
<!-- L_EMEA_SVR_2 -->
<g id="node9" class="node">
<title>L_EMEA_SVR_2</title>
<path fill="#c043d7" stroke="transparent" d="M839,-38C839,-38 656,-38 656,-38 653.5,-38 651,-35.5 651,-33 651,-33 651,-28 651,-28 651,-25.5 653.5,-23 656,-23 656,-23 839,-23 839,-23 841.5,-23 844,-25.5 844,-28 844,-28 844,-33 844,-33 844,-35.5 841.5,-38 839,-38"/>
<text text-anchor="middle" x="747.5" y="-26.8" font-family="Source Sans Pro" font-size="14.00" fill="#ffffff">mesos&#45;02.emea.svr.example.com</text>
</g>
<!-- I_CA_1_2&#45;&gt;L_EMEA_SVR_2 -->
<g id="edge10" class="edge">
<title>I_CA_1_2&#45;&gt;L_EMEA_SVR_2</title>
<path fill="none" stroke="#323a4e" d="M560.8376,-73.9912C570.7456,-71.2171 580.8785,-68.4674 590.5,-66 627.7491,-56.4475 670.3164,-46.9072 701.7219,-40.1261"/>
<polygon fill="#323a4e" stroke="#323a4e" points="711.5054,-38.0248 702.6733,-44.5244 706.6169,-39.0748 701.7284,-40.1248 701.7284,-40.1248 701.7284,-40.1248 706.6169,-39.0748 700.7834,-35.7251 711.5054,-38.0248 711.5054,-38.0248"/>
</g>
</g>
</svg>
