<?xml version="1.0" encoding="UTF-8" standalone="no"?>
<!DOCTYPE svg PUBLIC "-//W3C//DTD SVG 1.1//EN"
 "http://www.w3.org/Graphics/SVG/1.1/DTD/svg11.dtd">
<!-- Generated by graphviz version 2.40.1 (20161225.0304)
 -->
<!-- Title: G Pages: 1 -->
<svg width="1089pt" height="280pt"
 viewBox="0.00 0.00 1089.00 280.00" xmlns="http://www.w3.org/2000/svg" xmlns:xlink="http://www.w3.org/1999/xlink">
<g id="graph0" class="graph" transform="scale(1 1) rotate(0) translate(4 276)">
<title>G</title>
<text text-anchor="middle" x="540.5" y="-7.8" font-family="Source Sans Pro" font-size="14.00" fill="#323a4e">Securing Mesos Communications</text>
<g id="clust2" class="cluster">
<title>cluster_mesos</title>
<polygon fill="#27c97b" stroke="#27c97b" stroke-dasharray="5,2" points="474,-31 474,-264 1073,-264 1073,-31 474,-31"/>
<text text-anchor="middle" x="773.5" y="-248.8" font-family="Source Sans Pro" font-size="14.00" fill="#323a4e">Mesos Components</text>
</g>
<g id="clust1" class="cluster">
<title>cluster_developer</title>
<polygon fill="#20d5ff" stroke="#20d5ff" stroke-dasharray="5,2" points="118,-105 118,-186 454,-186 454,-105 118,-105"/>
<text text-anchor="middle" x="286" y="-170.8" font-family="Source Sans Pro" font-size="14.00" fill="#323a4e">Framework Developers</text>
</g>
<!-- OPS -->
<g id="node1" class="node">
<title>OPS</title>
<defs>
<linearGradient id="l_0" gradientUnits="userSpaceOnUse" x1="3.5" y1="-213" x2="86.5" y2="-213" >
<stop offset="0" style="stop-color:#9351e5;stop-opacity:1.;"/>
<stop offset="1" style="stop-color:#ef468b;stop-opacity:1.;"/>
</linearGradient>
</defs>
<path fill="url(#l_0)" stroke="#323a4e" d="M74.5,-231C74.5,-231 15.5,-231 15.5,-231 9.5,-231 3.5,-225 3.5,-219 3.5,-219 3.5,-207 3.5,-207 3.5,-201 9.5,-195 15.5,-195 15.5,-195 74.5,-195 74.5,-195 80.5,-195 86.5,-201 86.5,-207 86.5,-207 86.5,-219 86.5,-219 86.5,-225 80.5,-231 74.5,-231"/>
<text text-anchor="middle" x="45" y="-209.3" font-family="Source Sans Pro" font-size="14.00" fill="#ffffff">Operator(s)</text>
</g>
<!-- MM_MA_FW -->
<g id="node5" class="node">
<title>MM_MA_FW</title>
<path fill="#fc4661" stroke="transparent" d="M547,-170.5C547,-170.5 487,-170.5 487,-170.5 484.5,-170.5 482,-168 482,-165.5 482,-165.5 482,-160.5 482,-160.5 482,-158 484.5,-155.5 487,-155.5 487,-155.5 547,-155.5 547,-155.5 549.5,-155.5 552,-158 552,-160.5 552,-160.5 552,-165.5 552,-165.5 552,-168 549.5,-170.5 547,-170.5"/>
<text text-anchor="middle" x="517" y="-159.3" font-family="Source Sans Pro" font-size="14.00" fill="#ffffff">&#45;&#45; Firewall &#45;&#45;</text>
</g>
<!-- OPS&#45;&gt;MM_MA_FW -->
<g id="edge4" class="edge">
<title>OPS&#45;&gt;MM_MA_FW</title>
<path fill="none" stroke="#323a4e" d="M86.6012,-215.3715C161.2994,-218.5958 322.6216,-220.8354 454,-190 467.757,-186.7711 482.307,-180.7281 493.9543,-175.1765"/>
<polygon fill="#323a4e" stroke="#323a4e" points="502.974,-170.7013 496.0161,-179.1771 498.495,-172.9236 494.016,-175.1459 494.016,-175.1459 494.016,-175.1459 498.495,-172.9236 492.016,-171.1148 502.974,-170.7013 502.974,-170.7013"/>
</g>
<!-- DEV -->
<g id="node2" class="node">
<title>DEV</title>
<defs>
<linearGradient id="l_1" gradientUnits="userSpaceOnUse" x1="0" y1="-134" x2="90" y2="-134" >
<stop offset="0" style="stop-color:#9351e5;stop-opacity:1.;"/>
<stop offset="1" style="stop-color:#ef468b;stop-opacity:1.;"/>
</linearGradient>
</defs>
<path fill="url(#l_1)" stroke="#323a4e" d="M78,-152C78,-152 12,-152 12,-152 6,-152 0,-146 0,-140 0,-140 0,-128 0,-128 0,-122 6,-116 12,-116 12,-116 78,-116 78,-116 84,-116 90,-122 90,-128 90,-128 90,-140 90,-140 90,-146 84,-152 78,-152"/>
<text text-anchor="middle" x="45" y="-130.3" font-family="Source Sans Pro" font-size="14.00" fill="#ffffff">Developer(s)</text>
</g>
<!-- DEV_FW_FW -->
<g id="node3" class="node">
<title>DEV_FW_FW</title>
<path fill="#fc4661" stroke="transparent" d="M191,-141.5C191,-141.5 131,-141.5 131,-141.5 128.5,-141.5 126,-139 126,-136.5 126,-136.5 126,-131.5 126,-131.5 126,-129 128.5,-126.5 131,-126.5 131,-126.5 191,-126.5 191,-126.5 193.5,-126.5 196,-129 196,-131.5 196,-131.5 196,-136.5 196,-136.5 196,-139 193.5,-141.5 191,-141.5"/>
<text text-anchor="middle" x="161" y="-130.3" font-family="Source Sans Pro" font-size="14.00" fill="#ffffff">&#45;&#45; Firewall &#45;&#45;</text>
</g>
<!-- DEV&#45;&gt;DEV_FW_FW -->
<g id="edge1" class="edge">
<title>DEV&#45;&gt;DEV_FW_FW</title>
<path fill="none" stroke="#323a4e" d="M90.1808,-134C98.5929,-134 107.3837,-134 115.7964,-134"/>
<polygon fill="#323a4e" stroke="#323a4e" points="125.8198,-134 115.8199,-138.5001 120.8198,-134 115.8198,-134.0001 115.8198,-134.0001 115.8198,-134.0001 120.8198,-134 115.8198,-129.5001 125.8198,-134 125.8198,-134"/>
</g>
<!-- DEV_FW_LB -->
<g id="node4" class="node">
<title>DEV_FW_LB</title>
<path fill="#2f81f7" stroke="transparent" d="M334,-141.5C334,-141.5 237,-141.5 237,-141.5 234.5,-141.5 232,-139 232,-136.5 232,-136.5 232,-131.5 232,-131.5 232,-129 234.5,-126.5 237,-126.5 237,-126.5 334,-126.5 334,-126.5 336.5,-126.5 339,-129 339,-131.5 339,-131.5 339,-136.5 339,-136.5 339,-139 336.5,-141.5 334,-141.5"/>
<text text-anchor="middle" x="285.5" y="-130.3" font-family="Source Sans Pro" font-size="14.00" fill="#ffffff">&#45;&#45; Load Balancer &#45;&#45;</text>
</g>
<!-- DEV_FW_FW&#45;&gt;DEV_FW_LB -->
<g id="edge2" class="edge">
<title>DEV_FW_FW&#45;&gt;DEV_FW_LB</title>
<path fill="none" stroke="#323a4e" d="M196.0115,-134C203.9724,-134 212.6735,-134 221.4229,-134"/>
<polygon fill="#323a4e" stroke="#323a4e" points="231.6745,-134 221.6746,-138.5001 226.6745,-134 221.6745,-134.0001 221.6745,-134.0001 221.6745,-134.0001 226.6745,-134 221.6745,-129.5001 231.6745,-134 231.6745,-134"/>
</g>
<!-- FW -->
<g id="node7" class="node">
<title>FW</title>
<defs>
<linearGradient id="l_2" gradientUnits="userSpaceOnUse" x1="375" y1="-134" x2="446" y2="-134" >
<stop offset="0" style="stop-color:#9351e5;stop-opacity:1.;"/>
<stop offset="1" style="stop-color:#ef468b;stop-opacity:1.;"/>
</linearGradient>
</defs>
<path fill="url(#l_2)" stroke="transparent" d="M434,-155C434,-155 387,-155 387,-155 381,-155 375,-149 375,-143 375,-143 375,-125 375,-125 375,-119 381,-113 387,-113 387,-113 434,-113 434,-113 440,-113 446,-119 446,-125 446,-125 446,-143 446,-143 446,-149 440,-155 434,-155"/>
<defs>
<linearGradient id="l_3" gradientUnits="userSpaceOnUse" x1="375" y1="-134" x2="446" y2="-134" >
<stop offset="0" style="stop-color:#9351e5;stop-opacity:1.;"/>
<stop offset="1" style="stop-color:#ef468b;stop-opacity:1.;"/>
</linearGradient>
</defs>
<polygon fill="url(#l_3)" stroke="transparent" points="375,-113 375,-155 446,-155 446,-113 375,-113"/>
<polygon fill="none" stroke="#323a4e" points="375.5,-134 375.5,-155 446.5,-155 446.5,-134 375.5,-134"/>
<text text-anchor="start" x="378.5" y="-140.8" font-family="Source Sans Pro" font-size="14.00" fill="#ffffff">Framework</text>
<polygon fill="none" stroke="#323a4e" points="375.5,-113 375.5,-134 410.5,-134 410.5,-113 375.5,-113"/>
<text text-anchor="start" x="379" y="-119.8" font-family="Source Sans Pro" font-size="14.00" fill="#ffffff">8080</text>
<polygon fill="none" stroke="#323a4e" points="410.5,-113 410.5,-134 446.5,-134 446.5,-113 410.5,-113"/>
<text text-anchor="start" x="414.5" y="-119.8" font-family="Source Sans Pro" font-size="14.00" fill="#ffffff">8443</text>
</g>
<!-- DEV_FW_LB&#45;&gt;FW -->
<g id="edge3" class="edge">
<title>DEV_FW_LB&#45;&gt;FW</title>
<path fill="none" stroke="#323a4e" d="M339.2367,-134C347.7044,-134 356.3911,-134 364.6583,-134"/>
<polygon fill="#323a4e" stroke="#323a4e" points="374.8577,-134 364.8578,-138.5001 369.8577,-134 364.8577,-134.0001 364.8577,-134.0001 364.8577,-134.0001 369.8577,-134 364.8577,-129.5001 374.8577,-134 374.8577,-134"/>
</g>
<!-- MM_MA_LB -->
<g id="node6" class="node">
<title>MM_MA_LB</title>
<path fill="#2f81f7" stroke="transparent" d="M690,-140.5C690,-140.5 593,-140.5 593,-140.5 590.5,-140.5 588,-138 588,-135.5 588,-135.5 588,-130.5 588,-130.5 588,-128 590.5,-125.5 593,-125.5 593,-125.5 690,-125.5 690,-125.5 692.5,-125.5 695,-128 695,-130.5 695,-130.5 695,-135.5 695,-135.5 695,-138 692.5,-140.5 690,-140.5"/>
<text text-anchor="middle" x="641.5" y="-129.3" font-family="Source Sans Pro" font-size="14.00" fill="#ffffff">&#45;&#45; Load Balancer &#45;&#45;</text>
</g>
<!-- MM_MA_FW&#45;&gt;MM_MA_LB -->
<g id="edge9" class="edge">
<title>MM_MA_FW&#45;&gt;MM_MA_LB</title>
<path fill="none" stroke="#323a4e" d="M548.4166,-155.4297C564.046,-151.6636 583.1448,-147.0615 599.9657,-143.0083"/>
<polygon fill="#323a4e" stroke="#323a4e" points="610.0934,-140.5678 601.4259,-147.2853 605.2326,-141.7392 600.3717,-142.9105 600.3717,-142.9105 600.3717,-142.9105 605.2326,-141.7392 599.3175,-138.5357 610.0934,-140.5678 610.0934,-140.5678"/>
</g>
<!-- MM -->
<g id="node8" class="node">
<title>MM</title>
<defs>
<linearGradient id="l_4" gradientUnits="userSpaceOnUse" x1="731" y1="-60" x2="799" y2="-60" >
<stop offset="0" style="stop-color:#9351e5;stop-opacity:1.;"/>
<stop offset="1" style="stop-color:#ef468b;stop-opacity:1.;"/>
</linearGradient>
</defs>
<path fill="url(#l_4)" stroke="transparent" d="M787,-81C787,-81 743,-81 743,-81 737,-81 731,-75 731,-69 731,-69 731,-51 731,-51 731,-45 737,-39 743,-39 743,-39 787,-39 787,-39 793,-39 799,-45 799,-51 799,-51 799,-69 799,-69 799,-75 793,-81 787,-81"/>
<defs>
<linearGradient id="l_5" gradientUnits="userSpaceOnUse" x1="731" y1="-60" x2="799" y2="-60" >
<stop offset="0" style="stop-color:#9351e5;stop-opacity:1.;"/>
<stop offset="1" style="stop-color:#ef468b;stop-opacity:1.;"/>
</linearGradient>
</defs>
<polygon fill="url(#l_5)" stroke="transparent" points="731,-39 731,-81 799,-81 799,-39 731,-39"/>
<polygon fill="none" stroke="#323a4e" points="731,-60 731,-81 799,-81 799,-60 731,-60"/>
<text text-anchor="start" x="737.5" y="-66.8" font-family="Source Sans Pro" font-size="14.00" fill="#ffffff">Master(s)</text>
<polygon fill="none" stroke="#323a4e" points="731,-39 731,-60 765,-60 765,-39 731,-39"/>
<text text-anchor="start" x="734" y="-45.8" font-family="Source Sans Pro" font-size="14.00" fill="#ffffff">2181</text>
<polygon fill="none" stroke="#323a4e" points="765,-39 765,-60 799,-60 799,-39 765,-39"/>
<text text-anchor="start" x="768" y="-45.8" font-family="Source Sans Pro" font-size="14.00" fill="#ffffff">5050</text>
</g>
<!-- MM_MA_LB&#45;&gt;MM -->
<g id="edge10" class="edge">
<title>MM_MA_LB&#45;&gt;MM</title>
<path fill="none" stroke="#323a4e" d="M654.2515,-125.4627C670.154,-116.0628 698.1566,-99.5107 722.024,-85.4028"/>
<polygon fill="#323a4e" stroke="#323a4e" points="730.9351,-80.1355 724.6164,-89.0979 726.6308,-82.6798 722.3265,-85.224 722.3265,-85.224 722.3265,-85.224 726.6308,-82.6798 720.0367,-81.3502 730.9351,-80.1355 730.9351,-80.1355"/>
</g>
<!-- MA -->
<g id="node9" class="node">
<title>MA</title>
<defs>
<linearGradient id="l_6" gradientUnits="userSpaceOnUse" x1="966" y1="-143" x2="1065" y2="-143" >
<stop offset="0" style="stop-color:#9351e5;stop-opacity:1.;"/>
<stop offset="1" style="stop-color:#ef468b;stop-opacity:1.;"/>
</linearGradient>
</defs>
<path fill="url(#l_6)" stroke="transparent" d="M1053,-164C1053,-164 978,-164 978,-164 972,-164 966,-158 966,-152 966,-152 966,-134 966,-134 966,-128 972,-122 978,-122 978,-122 1053,-122 1053,-122 1059,-122 1065,-128 1065,-134 1065,-134 1065,-152 1065,-152 1065,-158 1059,-164 1053,-164"/>
<defs>
<linearGradient id="l_7" gradientUnits="userSpaceOnUse" x1="966" y1="-143" x2="1065" y2="-143" >
<stop offset="0" style="stop-color:#9351e5;stop-opacity:1.;"/>
<stop offset="1" style="stop-color:#ef468b;stop-opacity:1.;"/>
</linearGradient>
</defs>
<polygon fill="url(#l_7)" stroke="transparent" points="966,-122 966,-164 1065,-164 1065,-122 966,-122"/>
<polygon fill="none" stroke="#323a4e" points="966.5,-143 966.5,-164 1065.5,-164 1065.5,-143 966.5,-143"/>
<text text-anchor="start" x="969.5" y="-149.8" font-family="Source Sans Pro" font-size="14.00" fill="#ffffff">Private Agent(s)</text>
<polygon fill="none" stroke="#323a4e" points="966.5,-122 966.5,-143 1065.5,-143 1065.5,-122 966.5,-122"/>
<text text-anchor="start" x="1002" y="-128.8" font-family="Source Sans Pro" font-size="14.00" fill="#ffffff">5051</text>
</g>
<!-- MM_MA_LB&#45;&gt;MA -->
<g id="edge11" class="edge">
<title>MM_MA_LB&#45;&gt;MA</title>
<path fill="none" stroke="#323a4e" d="M677.9395,-140.5521C732.6741,-150.9291 839.3646,-167.4075 930,-159 938.43,-158.218 947.2683,-157.0112 955.9316,-155.6031"/>
<polygon fill="#323a4e" stroke="#323a4e" points="965.9864,-153.8711 956.8954,-160.0034 961.0589,-154.7199 956.1315,-155.5688 956.1315,-155.5688 956.1315,-155.5688 961.0589,-154.7199 955.3675,-151.1341 965.9864,-153.8711 965.9864,-153.8711"/>
</g>
<!-- MPA -->
<g id="node10" class="node">
<title>MPA</title>
<defs>
<linearGradient id="l_8" gradientUnits="userSpaceOnUse" x1="835" y1="-109" x2="930" y2="-109" >
<stop offset="0" style="stop-color:#9351e5;stop-opacity:1.;"/>
<stop offset="1" style="stop-color:#ef468b;stop-opacity:1.;"/>
</linearGradient>
</defs>
<path fill="url(#l_8)" stroke="transparent" d="M918,-140.5C918,-140.5 847,-140.5 847,-140.5 841,-140.5 835,-134.5 835,-128.5 835,-128.5 835,-89.5 835,-89.5 835,-83.5 841,-77.5 847,-77.5 847,-77.5 918,-77.5 918,-77.5 924,-77.5 930,-83.5 930,-89.5 930,-89.5 930,-128.5 930,-128.5 930,-134.5 924,-140.5 918,-140.5"/>
<defs>
<linearGradient id="l_9" gradientUnits="userSpaceOnUse" x1="835" y1="-109" x2="930" y2="-109" >
<stop offset="0" style="stop-color:#9351e5;stop-opacity:1.;"/>
<stop offset="1" style="stop-color:#ef468b;stop-opacity:1.;"/>
</linearGradient>
</defs>
<polygon fill="url(#l_9)" stroke="transparent" points="835,-77.5 835,-140.5 930,-140.5 930,-77.5 835,-77.5"/>
<polygon fill="none" stroke="#323a4e" points="835.5,-119 835.5,-140 930.5,-140 930.5,-119 835.5,-119"/>
<text text-anchor="start" x="838.5" y="-125.8" font-family="Source Sans Pro" font-size="14.00" fill="#ffffff">Public Agent(s)</text>
<polygon fill="none" stroke="#323a4e" points="835.5,-98 835.5,-119 930.5,-119 930.5,-98 835.5,-98"/>
<text text-anchor="start" x="869" y="-104.8" font-family="Source Sans Pro" font-size="14.00" fill="#ffffff">5051</text>
<polygon fill="none" stroke="#323a4e" points="835.5,-77 835.5,-98 879.5,-98 879.5,-77 835.5,-77"/>
<text text-anchor="start" x="850.5" y="-83.8" font-family="Source Sans Pro" font-size="14.00" fill="#ffffff">80</text>
<polygon fill="none" stroke="#323a4e" points="879.5,-77 879.5,-98 930.5,-98 930.5,-77 879.5,-77"/>
<text text-anchor="start" x="894.5" y="-83.8" font-family="Source Sans Pro" font-size="14.00" fill="#ffffff">443</text>
</g>
<!-- MM_MA_LB&#45;&gt;MPA -->
<g id="edge12" class="edge">
<title>MM_MA_LB&#45;&gt;MPA</title>
<path fill="none" stroke="#323a4e" d="M695.2851,-127.6438C733.8258,-123.8057 785.6622,-118.6436 825.0182,-114.7243"/>
<polygon fill="#323a4e" stroke="#323a4e" points="834.9952,-113.7308 825.4904,-119.1997 830.0198,-114.2263 825.0444,-114.7218 825.0444,-114.7218 825.0444,-114.7218 830.0198,-114.2263 824.5984,-110.244 834.9952,-113.7308 834.9952,-113.7308"/>
</g>
<!-- FW&#45;&gt;MM_MA_FW -->
<g id="edge5" class="edge">
<title>FW&#45;&gt;MM_MA_FW</title>
<path fill="none" stroke="#323a4e" d="M446.2592,-143.7373C456.8833,-146.6302 468.5523,-149.8077 479.2959,-152.7332"/>
<polygon fill="#323a4e" stroke="#323a4e" points="489.2487,-155.4433 478.4176,-157.1578 484.4243,-154.1296 479.6,-152.8159 479.6,-152.8159 479.6,-152.8159 484.4243,-154.1296 480.7823,-148.474 489.2487,-155.4433 489.2487,-155.4433"/>
</g>
<!-- MM&#45;&gt;MM_MA_FW -->
<g id="edge6" class="edge">
<title>MM&#45;&gt;MM_MA_FW</title>
<path fill="none" stroke="#323a4e" d="M730.9621,-65.125C694.2374,-71.5736 634.743,-84.7274 588,-108 566.7317,-118.5891 545.6279,-136.0581 532.0277,-148.4654"/>
<polygon fill="#323a4e" stroke="#323a4e" points="524.5949,-155.4298 528.8153,-145.3086 528.2436,-152.0111 531.8922,-148.5924 531.8922,-148.5924 531.8922,-148.5924 528.2436,-152.0111 534.9691,-151.8761 524.5949,-155.4298 524.5949,-155.4298"/>
</g>
<!-- MM&#45;&gt;MA -->
<g id="edge13" class="edge">
<title>MM&#45;&gt;MA:ma_5051</title>
<path fill="none" stroke="#323a4e" stroke-dasharray="1,5" d="M799.0797,-50.2503C834.5429,-42.2038 890.335,-35.6373 930,-60 960.5709,-78.7771 930.623,-132 966.5,-132"/>
</g>
<!-- MM&#45;&gt;MPA -->
<g id="edge14" class="edge">
<title>MM&#45;&gt;MPA:mpa_5051</title>
<path fill="none" stroke="#323a4e" stroke-dasharray="1,5" d="M783.1032,-81.1932C796.176,-94.0518 815.0661,-108 835.5,-108"/>
</g>
<!-- MA&#45;&gt;MM_MA_FW -->
<g id="edge7" class="edge">
<title>MA&#45;&gt;MM_MA_FW</title>
<path fill="none" stroke="#323a4e" d="M965.9157,-161.3893C954.2902,-164.9333 941.8383,-168.1236 930,-170 892.0579,-176.0139 653.5269,-176.1366 588,-172 579.7131,-171.4769 570.9144,-170.6135 562.4358,-169.6233"/>
<polygon fill="#323a4e" stroke="#323a4e" points="552.3085,-168.3668 562.7865,-165.1324 557.2704,-168.9825 562.2324,-169.5981 562.2324,-169.5981 562.2324,-169.5981 557.2704,-168.9825 561.6783,-174.0639 552.3085,-168.3668 552.3085,-168.3668"/>
</g>
<!-- MPA&#45;&gt;MM_MA_FW -->
<g id="edge8" class="edge">
<title>MPA&#45;&gt;MM_MA_FW</title>
<path fill="none" stroke="#323a4e" d="M834.9807,-125.0401C797.4621,-136.8791 743.5282,-152.0853 695,-159 650.2973,-165.3696 598.6524,-165.7723 562.5439,-164.9439"/>
<polygon fill="#323a4e" stroke="#323a4e" points="552.3267,-164.6671 562.4449,-160.4396 557.3248,-164.8025 562.323,-164.938 562.323,-164.938 562.323,-164.938 557.3248,-164.8025 562.2011,-169.4363 552.3267,-164.6671 552.3267,-164.6671"/>
</g>
<!-- MPA&#45;&gt;MA -->
<g id="edge15" class="edge">
<title>MPA&#45;&gt;MA</title>
<path fill="none" stroke="#323a4e" stroke-dasharray="5,2" d="M939.8344,-123.6569C945.2688,-125.0462 950.7865,-126.4567 956.2386,-127.8505"/>
<polygon fill="#323a4e" stroke="#323a4e" points="930.1404,-121.1787 940.9434,-119.2958 934.9846,-122.4172 939.8288,-123.6556 939.8288,-123.6556 939.8288,-123.6556 934.9846,-122.4172 938.7143,-128.0154 930.1404,-121.1787 930.1404,-121.1787"/>
<polygon fill="#323a4e" stroke="#323a4e" points="965.9491,-130.3329 955.1461,-132.2158 961.1049,-129.0944 956.2607,-127.856 956.2607,-127.856 956.2607,-127.856 961.1049,-129.0944 957.3753,-123.4962 965.9491,-130.3329 965.9491,-130.3329"/>
</g>
</g>
</svg>
