<?xml version="1.0" encoding="UTF-8" standalone="no"?>
<!-- Generated by graphviz version 2.40.1 (20161225.0304)
 -->

<!-- Title: G Pages: 1 -->

<svg xmlns:dc="http://purl.org/dc/elements/1.1/" xmlns:cc="http://creativecommons.org/ns#" xmlns:rdf="http://www.w3.org/1999/02/22-rdf-syntax-ns#" xmlns:svg="http://www.w3.org/2000/svg" xmlns="http://www.w3.org/2000/svg" xmlns:sodipodi="http://sodipodi.sourceforge.net/DTD/sodipodi-0.dtd" xmlns:inkscape="http://www.inkscape.org/namespaces/inkscape" width="594.5pt" height="375.82401pt" viewBox="0 0 594.5 375.82401" version="1.1" id="svg123339" sodipodi:docname="mesos-firewall-1.svg" inkscape:version="0.92.2 5c3e80d, 2017-08-06" inkscape:export-filename="/home/vishnu/tank/git/dcos-labs/secure-mesos-workshop/figures/png/mesos-firewall-1.png" inkscape:export-xdpi="384" inkscape:export-ydpi="384">
  <metadata id="metadata123345">
    <rdf:RDF>
      <cc:Work rdf:about="">
        <dc:format>image/svg+xml</dc:format>
        <dc:type rdf:resource="http://purl.org/dc/dcmitype/StillImage" />
        <dc:title></dc:title>
      </cc:Work>
    </rdf:RDF>
  </metadata>
  <defs id="defs123343" />
  <sodipodi:namedview pagecolor="#ffffff" bordercolor="#666666" borderopacity="1" objecttolerance="10" gridtolerance="10" guidetolerance="10" inkscape:pageopacity="0" inkscape:pageshadow="2" inkscape:window-width="640" inkscape:window-height="480" id="namedview123341" showgrid="false" fit-margin-top="0" fit-margin-left="0" fit-margin-right="0" fit-margin-bottom="0" inkscape:zoom="0.96311475" inkscape:cx="479.39716" inkscape:cy="92.971007" inkscape:current-layer="graph0" />
  <g id="graph0" class="graph" transform="translate(192.25,634.99999)">
    <title id="title123097">G</title>
    <text x="105" y="-262.31198" font-size="14.00" id="text123099" style="font-size:14px;font-family:'Source Sans Pro';text-anchor:middle;fill:#323a4e">Securing Mesos Communications</text>
    <g id="clust3" class="cluster">
      <title id="title123115">cluster_mesos</title>
    </g>
    <!-- OPS -->
    <g id="g123485" transform="translate(255.75,-412.49999)">
      <g class="node" id="node1">
        <title id="title123122">OPS</title>
        <defs id="defs123129">
          <linearGradient y2="-41" x2="146.5" y1="-41" x1="63.5" gradientUnits="userSpaceOnUse" id="l_0">
            <stop id="stop123124" style="stop-color:#9351e5" offset="0" />
            <stop id="stop123126" style="stop-color:#ef468b" offset="1" />
          </linearGradient>
        </defs>
        <path id="path123131" d="m 134.5,-59 c 0,0 -59,0 -59,0 -6,0 -12,6 -12,12 0,0 0,12 0,12 0,6 6,12 12,12 0,0 59,0 59,0 6,0 12,-6 12,-12 0,0 0,-12 0,-12 0,-6 -6,-12 -12,-12" stroke="transparent" style="fill:url(#l_0)" inkscape:connector-curvature="0" />
        <text id="text123133" font-size="14.00" y="-37.299999" x="105" style="font-size:14px;font-family:'Source Sans Pro';text-anchor:middle;fill:white">Operator(s)</text>
      </g>
    </g>
    <!-- DEV -->
    <!-- USER -->
    <!-- DEV_FW_FW -->
    <!-- DEV_FW_LB -->
    <!-- MM_MA_FW -->
    <!-- MM_MA_LB -->
    <!-- USER_MPA_FW -->
    <!-- USER_MPA_LB -->
    <g id="g123435" transform="translate(118.25,-13.499988)">
      <g class="cluster" id="clust2">
        <title id="title123101">cluster_user</title>
        <polygon id="polygon123103" points="47,-351 47,-529 163,-529 163,-351 " style="fill:#fedf57;fill-opacity:0.49803922;stroke:#fedf57;stroke-dasharray:5, 2" />
        <text id="text123105" font-size="14.00" y="-513.79999" x="105" style="font-size:14px;font-family:'Source Sans Pro';text-anchor:middle;fill:#323a4e">Service Users</text>
      </g>
      <g class="node" id="node3">
        <title id="title123150">USER</title>
        <defs id="defs123157">
          <linearGradient y2="-480" x2="134" y1="-480" x1="76" gradientUnits="userSpaceOnUse" id="l_2">
            <stop id="stop123152" style="stop-color:#9351e5" offset="0" />
            <stop id="stop123154" style="stop-color:#ef468b" offset="1" />
          </linearGradient>
        </defs>
        <path id="path123159" d="m 122,-498 c 0,0 -34,0 -34,0 -6,0 -12,6 -12,12 0,0 0,12 0,12 0,6 6,12 12,12 0,0 34,0 34,0 6,0 12,-6 12,-12 0,0 0,-12 0,-12 0,-6 -6,-12 -12,-12" stroke="transparent" style="fill:url(#l_2)" inkscape:connector-curvature="0" />
        <text id="text123161" font-size="14.00" y="-476.29999" x="105" style="font-size:14px;font-family:'Source Sans Pro';text-anchor:middle;fill:white">User(s)</text>
      </g>
      <g class="node" id="node8">
        <title id="title123192">USER_MPA_FW</title>
        <path id="path123194" d="m 135,-425.5 c 0,0 -60,0 -60,0 -2.5,0 -5,2.5 -5,5 0,0 0,5 0,5 0,2.5 2.5,5 5,5 0,0 60,0 60,0 2.5,0 5,-2.5 5,-5 0,0 0,-5 0,-5 0,-2.5 -2.5,-5 -5,-5" stroke="transparent" inkscape:connector-curvature="0" style="fill:#fc4661" />
        <text id="text123196" font-size="14.00" y="-414.29999" x="105" style="font-size:14px;font-family:'Source Sans Pro';text-anchor:middle;fill:white">-- Firewall --</text>
      </g>
      <g class="node" id="node9">
        <title id="title123199">USER_MPA_LB</title>
        <path id="path123201" d="m 150,-374.5 c 0,0 -90,0 -90,0 -2.5,0 -5,2.5 -5,5 0,0 0,5 0,5 0,2.5 2.5,5 5,5 0,0 90,0 90,0 2.5,0 5,-2.5 5,-5 0,0 0,-5 0,-5 0,-2.5 -2.5,-5 -5,-5" stroke="transparent" inkscape:connector-curvature="0" style="fill:#2f81f7" />
        <text id="text123203" font-size="14.00" y="-363.29999" x="105" style="font-size:14px;font-family:'Source Sans Pro';text-anchor:middle;fill:white">-- Load Blancer --</text>
      </g>
    </g>
    <!-- FW -->
    <g id="g123475" transform="translate(-52.749998,-238.49999)">
      <g class="cluster" id="clust1">
        <title id="title123108">cluster_developer</title>
        <polygon id="polygon123110" points="30.5,-87 30.5,-343 179.5,-343 179.5,-87 " style="fill:#20d5ff;fill-opacity:0.49803922;stroke:#20d5ff;stroke-dasharray:5, 2" />
        <text id="text123112" font-size="14.00" y="-327.79999" x="105" style="font-size:14px;font-family:'Source Sans Pro';text-anchor:middle;fill:#323a4e">Framework Developers</text>
      </g>
      <g class="node" id="node2">
        <title id="title123136">DEV</title>
        <defs id="defs123143">
          <linearGradient y2="-294" x2="150" y1="-294" x1="60" gradientUnits="userSpaceOnUse" id="l_1">
            <stop id="stop123138" style="stop-color:#9351e5" offset="0" />
            <stop id="stop123140" style="stop-color:#ef468b" offset="1" />
          </linearGradient>
        </defs>
        <path id="path123145" d="m 138,-312 c 0,0 -66,0 -66,0 -6,0 -12,6 -12,12 0,0 0,12 0,12 0,6 6,12 12,12 0,0 66,0 66,0 6,0 12,-6 12,-12 0,0 0,-12 0,-12 0,-6 -6,-12 -12,-12" stroke="transparent" style="fill:url(#l_1)" inkscape:connector-curvature="0" />
        <text id="text123147" font-size="14.00" y="-290.29999" x="105" style="font-size:14px;font-family:'Source Sans Pro';text-anchor:middle;fill:white">Developer(s)</text>
      </g>
      <g class="node" id="node4">
        <title id="title123164">DEV_FW_FW</title>
        <path id="path123166" d="m 135,-239.5 c 0,0 -60,0 -60,0 -2.5,0 -5,2.5 -5,5 0,0 0,5 0,5 0,2.5 2.5,5 5,5 0,0 60,0 60,0 2.5,0 5,-2.5 5,-5 0,0 0,-5 0,-5 0,-2.5 -2.5,-5 -5,-5" stroke="transparent" inkscape:connector-curvature="0" style="fill:#fc4661" />
        <text id="text123168" font-size="14.00" y="-228.3" x="105" style="font-size:14px;font-family:'Source Sans Pro';text-anchor:middle;fill:white">-- Firewall --</text>
      </g>
      <g class="node" id="node5">
        <title id="title123171">DEV_FW_LB</title>
        <path id="path123173" d="m 153.5,-188.5 c 0,0 -97,0 -97,0 -2.5,0 -5,2.5 -5,5 0,0 0,5 0,5 0,2.5 2.5,5 5,5 0,0 97,0 97,0 2.5,0 5,-2.5 5,-5 0,0 0,-5 0,-5 0,-2.5 -2.5,-5 -5,-5" stroke="transparent" inkscape:connector-curvature="0" style="fill:#2f81f7" />
        <text id="text123175" font-size="14.00" y="-177.3" x="105" style="font-size:14px;font-family:'Source Sans Pro';text-anchor:middle;fill:white">-- Load Balancer --</text>
      </g>
      <g class="node" id="node10">
        <title id="title123206">FW</title>
        <defs id="defs123213">
          <linearGradient y2="-116" x2="140.5" y1="-116" x1="69.5" gradientUnits="userSpaceOnUse" id="l_3">
            <stop id="stop123208" style="stop-color:#9351e5" offset="0" />
            <stop id="stop123210" style="stop-color:#ef468b" offset="1" />
          </linearGradient>
        </defs>
        <path id="path123215" d="m 128.5,-137 c 0,0 -47,0 -47,0 -6,0 -12,6 -12,12 0,0 0,18 0,18 0,6 6,12 12,12 0,0 47,0 47,0 6,0 12,-6 12,-12 0,0 0,-18 0,-18 0,-6 -6,-12 -12,-12" stroke="transparent" style="fill:url(#l_3)" inkscape:connector-curvature="0" />
        <defs id="defs123222">
          <linearGradient y2="-116" x2="140.5" y1="-116" x1="69.5" gradientUnits="userSpaceOnUse" id="l_4">
            <stop id="stop123217" style="stop-color:#9351e5" offset="0" />
            <stop id="stop123219" style="stop-color:#ef468b" offset="1" />
          </linearGradient>
        </defs>
        <polygon id="polygon123224" points="69.5,-95 69.5,-137 140.5,-137 140.5,-95 " stroke="transparent" style="fill:url(#l_4)" />
        <polygon id="polygon123226" points="70,-116 70,-137 141,-137 141,-116 " style="fill:none;stroke:#323a4e" />
        <text id="text123228" font-size="14.00" y="-122.8" x="73" style="font-size:14px;font-family:'Source Sans Pro';text-anchor:start;fill:white">Framework</text>
        <polygon id="polygon123230" points="70,-95 70,-116 105,-116 105,-95 " style="fill:none;stroke:#323a4e" />
        <text id="text123232" font-size="14.00" y="-101.8" x="73.5" style="font-size:14px;font-family:'Source Sans Pro';text-anchor:start;fill:white">8080</text>
        <polygon id="polygon123234" points="105,-95 105,-116 141,-116 141,-95 " style="fill:none;stroke:#323a4e" />
        <text id="text123236" font-size="14.00" y="-101.8" x="109" style="font-size:14px;font-family:'Source Sans Pro';text-anchor:start;fill:white">8443</text>
      </g>
    </g>
    <!-- MM -->
    <!-- MA -->
    <!-- MPA -->
    <g id="g123413" transform="translate(-231.25,264.50004)">
      <polygon id="polygon123117" points="39.5,-537 39.5,-899 170.5,-899 170.5,-537 " style="fill:#27c97b;fill-opacity:0.49803922;stroke:#27c97b;stroke-dasharray:5, 2" transform="translate(-3.0005555e-8,-3.4058766e-5)" />
      <text id="text123119" font-size="14.00" y="-883.79999" x="105" style="font-size:14px;font-family:'Source Sans Pro';text-anchor:middle;fill:#323a4e" transform="translate(-3.0005555e-8,-3.4058766e-5)">Mesos Components</text>
      <g class="node" id="node6">
        <title id="title123178">MM_MA_FW</title>
        <path id="path123180" d="m 135,-867.5 c 0,0 -60,0 -60,0 -2.5,0 -5,2.5 -5,5 0,0 0,5 0,5 0,2.5 2.5,5 5,5 0,0 60,0 60,0 2.5,0 5,-2.5 5,-5 0,0 0,-5 0,-5 0,-2.5 -2.5,-5 -5,-5" stroke="transparent" inkscape:connector-curvature="0" style="fill:#fc4661" />
        <text id="text123182" font-size="14.00" y="-856.29999" x="105" style="font-size:14px;font-family:'Source Sans Pro';text-anchor:middle;fill:white">-- Firewall --</text>
      </g>
      <g class="node" id="node7">
        <title id="title123185">MM_MA_LB</title>
        <path id="path123187" d="m 153.5,-816.5 c 0,0 -97,0 -97,0 -2.5,0 -5,2.5 -5,5 0,0 0,5 0,5 0,2.5 2.5,5 5,5 0,0 97,0 97,0 2.5,0 5,-2.5 5,-5 0,0 0,-5 0,-5 0,-2.5 -2.5,-5 -5,-5" stroke="transparent" inkscape:connector-curvature="0" style="fill:#2f81f7" />
        <text id="text123189" font-size="14.00" y="-805.29999" x="105" style="font-size:14px;font-family:'Source Sans Pro';text-anchor:middle;fill:white">-- Load Balancer --</text>
      </g>
      <g class="node" id="node11">
        <title id="title123239">MM</title>
        <defs id="defs123246">
          <linearGradient y2="-744" x2="139" y1="-744" x1="71" gradientUnits="userSpaceOnUse" id="l_5">
            <stop id="stop123241" style="stop-color:#9351e5" offset="0" />
            <stop id="stop123243" style="stop-color:#ef468b" offset="1" />
          </linearGradient>
        </defs>
        <path id="path123248" d="m 127,-765 c 0,0 -44,0 -44,0 -6,0 -12,6 -12,12 0,0 0,18 0,18 0,6 6,12 12,12 0,0 44,0 44,0 6,0 12,-6 12,-12 0,0 0,-18 0,-18 0,-6 -6,-12 -12,-12" stroke="transparent" style="fill:url(#l_5)" inkscape:connector-curvature="0" />
        <defs id="defs123255">
          <linearGradient y2="-744" x2="139" y1="-744" x1="71" gradientUnits="userSpaceOnUse" id="l_6">
            <stop id="stop123250" style="stop-color:#9351e5" offset="0" />
            <stop id="stop123252" style="stop-color:#ef468b" offset="1" />
          </linearGradient>
        </defs>
        <polygon id="polygon123257" points="71,-723 71,-765 139,-765 139,-723 " stroke="transparent" style="fill:url(#l_6)" />
        <polygon id="polygon123259" points="71,-744 71,-765 139,-765 139,-744 " style="fill:none;stroke:#323a4e" />
        <text id="text123261" font-size="14.00" y="-750.79999" x="77.5" style="font-size:14px;font-family:'Source Sans Pro';text-anchor:start;fill:white">Master(s)</text>
        <polygon id="polygon123263" points="71,-723 71,-744 105,-744 105,-723 " style="fill:none;stroke:#323a4e" />
        <text id="text123265" font-size="14.00" y="-729.79999" x="74" style="font-size:14px;font-family:'Source Sans Pro';text-anchor:start;fill:white">2181</text>
        <polygon id="polygon123267" points="105,-723 105,-744 139,-744 139,-723 " style="fill:none;stroke:#323a4e" />
        <text id="text123269" font-size="14.00" y="-729.79999" x="108" style="font-size:14px;font-family:'Source Sans Pro';text-anchor:start;fill:white">5050</text>
      </g>
      <g class="node" id="node12">
        <title id="title123272">MA</title>
        <defs id="defs123279">
          <linearGradient y2="-666" x2="154.5" y1="-666" x1="55.5" gradientUnits="userSpaceOnUse" id="l_7">
            <stop id="stop123274" style="stop-color:#9351e5" offset="0" />
            <stop id="stop123276" style="stop-color:#ef468b" offset="1" />
          </linearGradient>
        </defs>
        <path id="path123281" d="m 142.5,-687 c 0,0 -75,0 -75,0 -6,0 -12,6 -12,12 0,0 0,18 0,18 0,6 6,12 12,12 0,0 75,0 75,0 6,0 12,-6 12,-12 0,0 0,-18 0,-18 0,-6 -6,-12 -12,-12" stroke="transparent" style="fill:url(#l_7)" inkscape:connector-curvature="0" />
        <defs id="defs123288">
          <linearGradient y2="-666" x2="154.5" y1="-666" x1="55.5" gradientUnits="userSpaceOnUse" id="l_8">
            <stop id="stop123283" style="stop-color:#9351e5" offset="0" />
            <stop id="stop123285" style="stop-color:#ef468b" offset="1" />
          </linearGradient>
        </defs>
        <polygon id="polygon123290" points="55.5,-645 55.5,-687 154.5,-687 154.5,-645 " stroke="transparent" style="fill:url(#l_8)" />
        <polygon id="polygon123292" points="56,-666 56,-687 155,-687 155,-666 " style="fill:none;stroke:#323a4e" />
        <text id="text123294" font-size="14.00" y="-672.79999" x="59" style="font-size:14px;font-family:'Source Sans Pro';text-anchor:start;fill:white">Private Agent(s)</text>
        <polygon id="polygon123296" points="56,-645 56,-666 155,-666 155,-645 " style="fill:none;stroke:#323a4e" />
        <text id="text123298" font-size="14.00" y="-651.79999" x="91.5" style="font-size:14px;font-family:'Source Sans Pro';text-anchor:start;fill:white">5051</text>
      </g>
      <g class="node" id="node13">
        <title id="title123301">MPA</title>
        <defs id="defs123308">
          <linearGradient y2="-577" x2="152.5" y1="-577" x1="57.5" gradientUnits="userSpaceOnUse" id="l_9">
            <stop id="stop123303" style="stop-color:#9351e5" offset="0" />
            <stop id="stop123305" style="stop-color:#ef468b" offset="1" />
          </linearGradient>
        </defs>
        <path id="path123310" d="m 140.5,-608.5 c 0,0 -71,0 -71,0 -6,0 -12,6 -12,12 0,0 0,39 0,39 0,6 6,12 12,12 0,0 71,0 71,0 6,0 12,-6 12,-12 0,0 0,-39 0,-39 0,-6 -6,-12 -12,-12" stroke="transparent" style="fill:url(#l_9)" inkscape:connector-curvature="0" />
        <defs id="defs123317">
          <linearGradient y2="-577" x2="152.5" y1="-577" x1="57.5" gradientUnits="userSpaceOnUse" id="l_10">
            <stop id="stop123312" style="stop-color:#9351e5" offset="0" />
            <stop id="stop123314" style="stop-color:#ef468b" offset="1" />
          </linearGradient>
        </defs>
        <polygon id="polygon123319" points="57.5,-545.5 57.5,-608.5 152.5,-608.5 152.5,-545.5 " stroke="transparent" style="fill:url(#l_10)" />
        <polygon id="polygon123321" points="58,-587 58,-608 153,-608 153,-587 " style="fill:none;stroke:#323a4e" />
        <text id="text123323" font-size="14.00" y="-593.79999" x="61" style="font-size:14px;font-family:'Source Sans Pro';text-anchor:start;fill:white">Public Agent(s)</text>
        <polygon id="polygon123325" points="58,-566 58,-587 153,-587 153,-566 " style="fill:none;stroke:#323a4e" />
        <text id="text123327" font-size="14.00" y="-572.79999" x="91.5" style="font-size:14px;font-family:'Source Sans Pro';text-anchor:start;fill:white">5051</text>
        <polygon id="polygon123329" points="58,-545 58,-566 102,-566 102,-545 " style="fill:none;stroke:#323a4e" />
        <text id="text123331" font-size="14.00" y="-551.79999" x="73" style="font-size:14px;font-family:'Source Sans Pro';text-anchor:start;fill:white">80</text>
        <polygon id="polygon123333" points="102,-545 102,-566 153,-566 153,-545 " style="fill:none;stroke:#323a4e" />
        <text id="text123335" font-size="14.00" y="-551.79999" x="117" style="font-size:14px;font-family:'Source Sans Pro';text-anchor:start;fill:white">443</text>
      </g>
    </g>
  </g>
</svg>
