<?xml version="1.0" encoding="UTF-8" standalone="no"?>
<!-- Generated by graphviz version 2.40.1 (20161225.0304)
 -->

<!-- Title: G Pages: 1 -->

<svg xmlns:dc="http://purl.org/dc/elements/1.1/" xmlns:cc="http://creativecommons.org/ns#" xmlns:rdf="http://www.w3.org/1999/02/22-rdf-syntax-ns#" xmlns:svg="http://www.w3.org/2000/svg" xmlns="http://www.w3.org/2000/svg" xmlns:sodipodi="http://sodipodi.sourceforge.net/DTD/sodipodi-0.dtd" xmlns:inkscape="http://www.inkscape.org/namespaces/inkscape" width="623pt" height="280pt" viewBox="0.00 0.00 623.00 280.00" version="1.1" id="svg124860" sodipodi:docname="mesos-firewall-3.svg" inkscape:version="0.92.2 5c3e80d, 2017-08-06" inkscape:export-filename="/home/vishnu/tank/git/dcos-labs/secure-mesos-workshop/figures/png/mesos-firewall-3.png" inkscape:export-xdpi="384" inkscape:export-ydpi="384">
  <metadata id="metadata124866">
    <rdf:RDF>
      <cc:Work rdf:about="">
        <dc:format>image/svg+xml</dc:format>
        <dc:type rdf:resource="http://purl.org/dc/dcmitype/StillImage" />
        <dc:title></dc:title>
      </cc:Work>
    </rdf:RDF>
  </metadata>
  <defs id="defs124864" />
  <sodipodi:namedview pagecolor="#ffffff" bordercolor="#666666" borderopacity="1" objecttolerance="10" gridtolerance="10" guidetolerance="10" inkscape:pageopacity="0" inkscape:pageshadow="2" inkscape:window-width="640" inkscape:window-height="480" id="namedview124862" showgrid="false" inkscape:zoom="1.8623596" inkscape:cx="415.33333" inkscape:cy="186.66667" inkscape:current-layer="graph0" inkscape:measure-start="285.659,-69.8039" inkscape:measure-end="323.783,-18.7934" />
  <g id="graph0" class="graph" transform="scale(1 1) rotate(0) translate(4 276)">
    <title id="title124667">G</title>
    <text text-anchor="middle" x="307.5" y="-7.8" font-family="Source Sans Pro" font-size="14.00" fill="#323a4e" id="text124669">Securing Mesos Communications</text>
    <g id="clust1" class="cluster">
      <title id="title124671">cluster_mesos</title>
      <polygon fill="#27c97b" stroke="#27c97b" stroke-dasharray="5,2" points="8,-31 8,-264 607,-264 607,-31 8,-31" id="polygon124673" style="fill:#27c97b;fill-opacity:0.49803922" />
      <text text-anchor="middle" x="307.5" y="-248.8" font-family="Source Sans Pro" font-size="14.00" fill="#323a4e" id="text124675">Mesos Components</text>
    </g>
    <!-- MM_MA_FW -->
    <g id="node1" class="node">
      <title id="title124678">MM_MA_FW</title>
      <path fill="#fc4661" stroke="transparent" d="M81,-170.5C81,-170.5 21,-170.5 21,-170.5 18.5,-170.5 16,-168 16,-165.5 16,-165.5 16,-160.5 16,-160.5 16,-158 18.5,-155.5 21,-155.5 21,-155.5 81,-155.5 81,-155.5 83.5,-155.5 86,-158 86,-160.5 86,-160.5 86,-165.5 86,-165.5 86,-168 83.5,-170.5 81,-170.5" id="path124680" />
      <text text-anchor="middle" x="51" y="-159.3" font-family="Source Sans Pro" font-size="14.00" fill="#ffffff" id="text124682">-- Firewall --</text>
    </g>
    <!-- MM_MA_LB -->
    <g id="node2" class="node">
      <title id="title124685">MM_MA_LB</title>
      <path fill="#2f81f7" stroke="transparent" d="M224,-140.5C224,-140.5 127,-140.5 127,-140.5 124.5,-140.5 122,-138 122,-135.5 122,-135.5 122,-130.5 122,-130.5 122,-128 124.5,-125.5 127,-125.5 127,-125.5 224,-125.5 224,-125.5 226.5,-125.5 229,-128 229,-130.5 229,-130.5 229,-135.5 229,-135.5 229,-138 226.5,-140.5 224,-140.5" id="path124687" />
      <text text-anchor="middle" x="175.5" y="-129.3" font-family="Source Sans Pro" font-size="14.00" fill="#ffffff" id="text124689">-- Load Balancer --</text>
    </g>
    <!-- MM_MA_FW&#45;&gt;MM_MA_LB -->
    <g id="edge4" class="edge">
      <title id="title124692">MM_MA_FW-&gt;MM_MA_LB</title>
      <path fill="none" stroke="#323a4e" d="M82.4166,-155.4297C98.046,-151.6636 117.1448,-147.0615 133.9657,-143.0083" id="path124694" />
      <polygon fill="#323a4e" stroke="#323a4e" points="144.0934,-140.5678 135.4259,-147.2853 139.2326,-141.7392 134.3717,-142.9105 134.3717,-142.9105 134.3717,-142.9105 139.2326,-141.7392 133.3175,-138.5357 144.0934,-140.5678 144.0934,-140.5678" id="polygon124696" />
    </g>
    <!-- MM -->
    <g id="node3" class="node">
      <title id="title124699">MM</title>
      <defs id="defs124706">
        <linearGradient id="l_0" gradientUnits="userSpaceOnUse" x1="265" y1="-60" x2="333" y2="-60">
          <stop offset="0" style="stop-color:#9351e5" id="stop124701" />
          <stop offset="1" style="stop-color:#ef468b" id="stop124703" />
        </linearGradient>
      </defs>
      <path fill="url(#l_0)" stroke="transparent" d="M321,-81C321,-81 277,-81 277,-81 271,-81 265,-75 265,-69 265,-69 265,-51 265,-51 265,-45 271,-39 277,-39 277,-39 321,-39 321,-39 327,-39 333,-45 333,-51 333,-51 333,-69 333,-69 333,-75 327,-81 321,-81" id="path124708" />
      <defs id="defs124715">
        <linearGradient id="l_1" gradientUnits="userSpaceOnUse" x1="265" y1="-60" x2="333" y2="-60">
          <stop offset="0" style="stop-color:#9351e5" id="stop124710" />
          <stop offset="1" style="stop-color:#ef468b" id="stop124712" />
        </linearGradient>
      </defs>
      <polygon fill="url(#l_1)" stroke="transparent" points="265,-39 265,-81 333,-81 333,-39 265,-39" id="polygon124717" />
      <polygon fill="none" stroke="#323a4e" points="265,-60 265,-81 333,-81 333,-60 265,-60" id="polygon124719" />
      <text text-anchor="start" x="271.5" y="-66.8" font-family="Source Sans Pro" font-size="14.00" fill="#ffffff" id="text124721">Master(s)</text>
      <polygon fill="none" stroke="#323a4e" points="265,-39 265,-60 299,-60 299,-39 265,-39" id="polygon124723" />
      <text text-anchor="start" x="268" y="-45.8" font-family="Source Sans Pro" font-size="14.00" fill="#ffffff" id="text124725">2181</text>
      <polygon fill="none" stroke="#323a4e" points="299,-39 299,-60 333,-60 333,-39 299,-39" id="polygon124727" />
      <text text-anchor="start" x="302" y="-45.8" font-family="Source Sans Pro" font-size="14.00" fill="#ffffff" id="text124729">5050</text>
    </g>
    <!-- MM_MA_LB&#45;&gt;MM -->
    <g id="edge5" class="edge">
      <title id="title124732">MM_MA_LB-&gt;MM</title>
      <path fill="none" stroke="#323a4e" d="M188.2515,-125.4627C204.154,-116.0628 232.1566,-99.5107 256.024,-85.4028" id="path124734" />
      <polygon fill="#323a4e" stroke="#323a4e" points="264.9351,-80.1355 258.6164,-89.0979 260.6308,-82.6798 256.3265,-85.224 256.3265,-85.224 256.3265,-85.224 260.6308,-82.6798 254.0367,-81.3502 264.9351,-80.1355 264.9351,-80.1355" id="polygon124736" />
    </g>
    <!-- MA -->
    <g id="node4" class="node">
      <title id="title124739">MA</title>
      <defs id="defs124746">
        <linearGradient id="l_2" gradientUnits="userSpaceOnUse" x1="500" y1="-143" x2="599" y2="-143">
          <stop offset="0" style="stop-color:#9351e5" id="stop124741" />
          <stop offset="1" style="stop-color:#ef468b" id="stop124743" />
        </linearGradient>
      </defs>
      <path fill="url(#l_2)" stroke="transparent" d="M587,-164C587,-164 512,-164 512,-164 506,-164 500,-158 500,-152 500,-152 500,-134 500,-134 500,-128 506,-122 512,-122 512,-122 587,-122 587,-122 593,-122 599,-128 599,-134 599,-134 599,-152 599,-152 599,-158 593,-164 587,-164" id="path124748" />
      <defs id="defs124755">
        <linearGradient id="l_3" gradientUnits="userSpaceOnUse" x1="500" y1="-143" x2="599" y2="-143">
          <stop offset="0" style="stop-color:#9351e5" id="stop124750" />
          <stop offset="1" style="stop-color:#ef468b" id="stop124752" />
        </linearGradient>
      </defs>
      <polygon fill="url(#l_3)" stroke="transparent" points="500,-122 500,-164 599,-164 599,-122 500,-122" id="polygon124757" />
      <polygon fill="none" stroke="#323a4e" points="500.5,-143 500.5,-164 599.5,-164 599.5,-143 500.5,-143" id="polygon124759" />
      <text text-anchor="start" x="503.5" y="-149.8" font-family="Source Sans Pro" font-size="14.00" fill="#ffffff" id="text124761">Private Agent(s)</text>
      <polygon fill="none" stroke="#323a4e" points="500.5,-122 500.5,-143 599.5,-143 599.5,-122 500.5,-122" id="polygon124763" />
      <text text-anchor="start" x="536" y="-128.8" font-family="Source Sans Pro" font-size="14.00" fill="#ffffff" id="text124765">5051</text>
    </g>
    <!-- MM_MA_LB&#45;&gt;MA -->
    <g id="edge6" class="edge">
      <title id="title124768">MM_MA_LB-&gt;MA</title>
      <path fill="none" stroke="#323a4e" d="M211.9395,-140.5521C266.6741,-150.9291 373.3646,-167.4075 464,-159 472.43,-158.218 481.2683,-157.0112 489.9316,-155.6031" id="path124770" />
      <polygon fill="#323a4e" stroke="#323a4e" points="499.9864,-153.8711 490.8954,-160.0034 495.0589,-154.7199 490.1315,-155.5688 490.1315,-155.5688 490.1315,-155.5688 495.0589,-154.7199 489.3675,-151.1341 499.9864,-153.8711 499.9864,-153.8711" id="polygon124772" />
    </g>
    <!-- MPA -->
    <g id="node5" class="node">
      <title id="title124775">MPA</title>
      <defs id="defs124782">
        <linearGradient id="l_4" gradientUnits="userSpaceOnUse" x1="369" y1="-109" x2="464" y2="-109">
          <stop offset="0" style="stop-color:#9351e5" id="stop124777" />
          <stop offset="1" style="stop-color:#ef468b" id="stop124779" />
        </linearGradient>
      </defs>
      <path fill="url(#l_4)" stroke="transparent" d="M452,-140.5C452,-140.5 381,-140.5 381,-140.5 375,-140.5 369,-134.5 369,-128.5 369,-128.5 369,-89.5 369,-89.5 369,-83.5 375,-77.5 381,-77.5 381,-77.5 452,-77.5 452,-77.5 458,-77.5 464,-83.5 464,-89.5 464,-89.5 464,-128.5 464,-128.5 464,-134.5 458,-140.5 452,-140.5" id="path124784" />
      <defs id="defs124791">
        <linearGradient id="l_5" gradientUnits="userSpaceOnUse" x1="369" y1="-109" x2="464" y2="-109">
          <stop offset="0" style="stop-color:#9351e5" id="stop124786" />
          <stop offset="1" style="stop-color:#ef468b" id="stop124788" />
        </linearGradient>
      </defs>
      <polygon fill="url(#l_5)" stroke="transparent" points="369,-77.5 369,-140.5 464,-140.5 464,-77.5 369,-77.5" id="polygon124793" />
      <polygon fill="none" stroke="#323a4e" points="369.5,-119 369.5,-140 464.5,-140 464.5,-119 369.5,-119" id="polygon124795" />
      <text text-anchor="start" x="372.5" y="-125.8" font-family="Source Sans Pro" font-size="14.00" fill="#ffffff" id="text124797">Public Agent(s)</text>
      <polygon fill="none" stroke="#323a4e" points="369.5,-98 369.5,-119 464.5,-119 464.5,-98 369.5,-98" id="polygon124799" />
      <text text-anchor="start" x="403" y="-104.8" font-family="Source Sans Pro" font-size="14.00" fill="#ffffff" id="text124801">5051</text>
      <polygon fill="none" stroke="#323a4e" points="369.5,-77 369.5,-98 413.5,-98 413.5,-77 369.5,-77" id="polygon124803" />
      <text text-anchor="start" x="384.5" y="-83.8" font-family="Source Sans Pro" font-size="14.00" fill="#ffffff" id="text124805">80</text>
      <polygon fill="none" stroke="#323a4e" points="413.5,-77 413.5,-98 464.5,-98 464.5,-77 413.5,-77" id="polygon124807" />
      <text text-anchor="start" x="428.5" y="-83.8" font-family="Source Sans Pro" font-size="14.00" fill="#ffffff" id="text124809">443</text>
    </g>
    <!-- MM_MA_LB&#45;&gt;MPA -->
    <g id="edge7" class="edge">
      <title id="title124812">MM_MA_LB-&gt;MPA</title>
      <path fill="none" stroke="#323a4e" d="M229.2851,-127.6438C267.8258,-123.8057 319.6622,-118.6436 359.0182,-114.7243" id="path124814" />
      <polygon fill="#323a4e" stroke="#323a4e" points="368.9952,-113.7308 359.4904,-119.1997 364.0198,-114.2263 359.0444,-114.7218 359.0444,-114.7218 359.0444,-114.7218 364.0198,-114.2263 358.5984,-110.244 368.9952,-113.7308 368.9952,-113.7308" id="polygon124816" />
    </g>
    <!-- MM&#45;&gt;MM_MA_FW -->
    <g id="edge1" class="edge">
      <title id="title124819">MM-&gt;MM_MA_FW</title>
      <path fill="none" stroke="#323a4e" d="M264.9621,-65.125C228.2374,-71.5736 168.743,-84.7274 122,-108 100.7317,-118.5891 79.6279,-136.0581 66.0277,-148.4654" id="path124821" />
      <polygon fill="#323a4e" stroke="#323a4e" points="58.5949,-155.4298 62.8153,-145.3086 62.2436,-152.0111 65.8922,-148.5924 65.8922,-148.5924 65.8922,-148.5924 62.2436,-152.0111 68.9691,-151.8761 58.5949,-155.4298 58.5949,-155.4298" id="polygon124823" />
    </g>
    <!-- MM&#45;&gt;MA -->
    <g id="edge8" class="edge">
      <title id="title124826">MM-&gt;MA:ma_5051</title>
      <path fill="none" stroke="#323a4e" stroke-dasharray="1,5" d="M333.0797,-50.2503C368.5429,-42.2038 424.335,-35.6373 464,-60 494.5709,-78.7771 464.623,-132 500.5,-132" id="path124828" />
    </g>
    <!-- MM&#45;&gt;MPA -->
    <g id="edge9" class="edge">
      <title id="title124831">MM-&gt;MPA:mpa_5051</title>
      <path fill="none" stroke="#323a4e" stroke-dasharray="1,5" d="M317.1032,-81.1932C330.176,-94.0518 349.0661,-108 369.5,-108" id="path124833" />
    </g>
    <!-- MA&#45;&gt;MM_MA_FW -->
    <g id="edge2" class="edge">
      <title id="title124836">MA-&gt;MM_MA_FW</title>
      <path fill="none" stroke="#323a4e" d="M499.9157,-161.3893C488.2902,-164.9333 475.8383,-168.1236 464,-170 426.0579,-176.0139 187.5269,-176.1366 122,-172 113.7131,-171.4769 104.9144,-170.6135 96.4358,-169.6233" id="path124838" />
      <polygon fill="#323a4e" stroke="#323a4e" points="86.3085,-168.3668 96.7865,-165.1324 91.2704,-168.9825 96.2324,-169.5981 96.2324,-169.5981 96.2324,-169.5981 91.2704,-168.9825 95.6783,-174.0639 86.3085,-168.3668 86.3085,-168.3668" id="polygon124840" />
    </g>
    <!-- MPA&#45;&gt;MM_MA_FW -->
    <g id="edge3" class="edge">
      <title id="title124843">MPA-&gt;MM_MA_FW</title>
      <path fill="none" stroke="#323a4e" d="M368.9807,-125.0401C331.4621,-136.8791 277.5282,-152.0853 229,-159 184.2973,-165.3696 132.6524,-165.7723 96.5439,-164.9439" id="path124845" />
      <polygon fill="#323a4e" stroke="#323a4e" points="86.3267,-164.6671 96.4449,-160.4396 91.3248,-164.8025 96.323,-164.938 96.323,-164.938 96.323,-164.938 91.3248,-164.8025 96.2011,-169.4363 86.3267,-164.6671 86.3267,-164.6671" id="polygon124847" />
    </g>
    <!-- MPA&#45;&gt;MA -->
    <g id="edge10" class="edge">
      <title id="title124850">MPA-&gt;MA</title>
      <path fill="none" stroke="#323a4e" stroke-dasharray="5,2" d="M473.8344,-123.6569C479.2688,-125.0462 484.7865,-126.4567 490.2386,-127.8505" id="path124852" />
      <polygon fill="#323a4e" stroke="#323a4e" points="464.1404,-121.1787 474.9434,-119.2958 468.9846,-122.4172 473.8288,-123.6556 473.8288,-123.6556 473.8288,-123.6556 468.9846,-122.4172 472.7143,-128.0154 464.1404,-121.1787 464.1404,-121.1787" id="polygon124854" />
      <polygon fill="#323a4e" stroke="#323a4e" points="499.9491,-130.3329 489.1461,-132.2158 495.1049,-129.0944 490.2607,-127.856 490.2607,-127.856 490.2607,-127.856 495.1049,-129.0944 491.3753,-123.4962 499.9491,-130.3329 499.9491,-130.3329" id="polygon124856" />
    </g>
  </g>
</svg>
