<?xml version="1.0" encoding="UTF-8" standalone="no"?>
<!DOCTYPE svg PUBLIC "-//W3C//DTD SVG 1.1//EN"
 "http://www.w3.org/Graphics/SVG/1.1/DTD/svg11.dtd">
<!-- Generated by graphviz version 2.40.1 (20161225.0304)
 -->
<!-- Title: G Pages: 1 -->
<svg width="623pt" height="280pt"
 viewBox="0.00 0.00 623.00 280.00" xmlns="http://www.w3.org/2000/svg" xmlns:xlink="http://www.w3.org/1999/xlink">
<g id="graph0" class="graph" transform="scale(1 1) rotate(0) translate(4 276)">
<title>G</title>
<text text-anchor="middle" x="307.5" y="-7.8" font-family="Source Sans Pro" font-size="14.00" fill="#323a4e">Securing Mesos Communications</text>
<g id="clust1" class="cluster">
<title>cluster_mesos</title>
<polygon fill="#27c97b" stroke="#27c97b" stroke-dasharray="5,2" points="8,-31 8,-264 607,-264 607,-31 8,-31"/>
<text text-anchor="middle" x="307.5" y="-248.8" font-family="Source Sans Pro" font-size="14.00" fill="#323a4e">Mesos Components</text>
</g>
<!-- MM_MA_FW -->
<g id="node1" class="node">
<title>MM_MA_FW</title>
<path fill="#fc4661" stroke="transparent" d="M81,-170.5C81,-170.5 21,-170.5 21,-170.5 18.5,-170.5 16,-168 16,-165.5 16,-165.5 16,-160.5 16,-160.5 16,-158 18.5,-155.5 21,-155.5 21,-155.5 81,-155.5 81,-155.5 83.5,-155.5 86,-158 86,-160.5 86,-160.5 86,-165.5 86,-165.5 86,-168 83.5,-170.5 81,-170.5"/>
<text text-anchor="middle" x="51" y="-159.3" font-family="Source Sans Pro" font-size="14.00" fill="#ffffff">&#45;&#45; Firewall &#45;&#45;</text>
</g>
<!-- MM_MA_LB -->
<g id="node2" class="node">
<title>MM_MA_LB</title>
<path fill="#2f81f7" stroke="transparent" d="M224,-140.5C224,-140.5 127,-140.5 127,-140.5 124.5,-140.5 122,-138 122,-135.5 122,-135.5 122,-130.5 122,-130.5 122,-128 124.5,-125.5 127,-125.5 127,-125.5 224,-125.5 224,-125.5 226.5,-125.5 229,-128 229,-130.5 229,-130.5 229,-135.5 229,-135.5 229,-138 226.5,-140.5 224,-140.5"/>
<text text-anchor="middle" x="175.5" y="-129.3" font-family="Source Sans Pro" font-size="14.00" fill="#ffffff">&#45;&#45; Load Balancer &#45;&#45;</text>
</g>
<!-- MM_MA_FW&#45;&gt;MM_MA_LB -->
<g id="edge4" class="edge">
<title>MM_MA_FW&#45;&gt;MM_MA_LB</title>
<path fill="none" stroke="#323a4e" d="M82.4166,-155.4297C98.046,-151.6636 117.1448,-147.0615 133.9657,-143.0083"/>
<polygon fill="#323a4e" stroke="#323a4e" points="144.0934,-140.5678 135.4259,-147.2853 139.2326,-141.7392 134.3717,-142.9105 134.3717,-142.9105 134.3717,-142.9105 139.2326,-141.7392 133.3175,-138.5357 144.0934,-140.5678 144.0934,-140.5678"/>
</g>
<!-- MM -->
<g id="node3" class="node">
<title>MM</title>
<defs>
<linearGradient id="l_0" gradientUnits="userSpaceOnUse" x1="265" y1="-60" x2="333" y2="-60" >
<stop offset="0" style="stop-color:#9351e5;stop-opacity:1.;"/>
<stop offset="1" style="stop-color:#ef468b;stop-opacity:1.;"/>
</linearGradient>
</defs>
<path fill="url(#l_0)" stroke="transparent" d="M321,-81C321,-81 277,-81 277,-81 271,-81 265,-75 265,-69 265,-69 265,-51 265,-51 265,-45 271,-39 277,-39 277,-39 321,-39 321,-39 327,-39 333,-45 333,-51 333,-51 333,-69 333,-69 333,-75 327,-81 321,-81"/>
<defs>
<linearGradient id="l_1" gradientUnits="userSpaceOnUse" x1="265" y1="-60" x2="333" y2="-60" >
<stop offset="0" style="stop-color:#9351e5;stop-opacity:1.;"/>
<stop offset="1" style="stop-color:#ef468b;stop-opacity:1.;"/>
</linearGradient>
</defs>
<polygon fill="url(#l_1)" stroke="transparent" points="265,-39 265,-81 333,-81 333,-39 265,-39"/>
<polygon fill="none" stroke="#323a4e" points="265,-60 265,-81 333,-81 333,-60 265,-60"/>
<text text-anchor="start" x="271.5" y="-66.8" font-family="Source Sans Pro" font-size="14.00" fill="#ffffff">Master(s)</text>
<polygon fill="none" stroke="#323a4e" points="265,-39 265,-60 299,-60 299,-39 265,-39"/>
<text text-anchor="start" x="268" y="-45.8" font-family="Source Sans Pro" font-size="14.00" fill="#ffffff">2181</text>
<polygon fill="none" stroke="#323a4e" points="299,-39 299,-60 333,-60 333,-39 299,-39"/>
<text text-anchor="start" x="302" y="-45.8" font-family="Source Sans Pro" font-size="14.00" fill="#ffffff">5050</text>
</g>
<!-- MM_MA_LB&#45;&gt;MM -->
<g id="edge5" class="edge">
<title>MM_MA_LB&#45;&gt;MM</title>
<path fill="none" stroke="#323a4e" d="M188.2515,-125.4627C204.154,-116.0628 232.1566,-99.5107 256.024,-85.4028"/>
<polygon fill="#323a4e" stroke="#323a4e" points="264.9351,-80.1355 258.6164,-89.0979 260.6308,-82.6798 256.3265,-85.224 256.3265,-85.224 256.3265,-85.224 260.6308,-82.6798 254.0367,-81.3502 264.9351,-80.1355 264.9351,-80.1355"/>
</g>
<!-- MA -->
<g id="node4" class="node">
<title>MA</title>
<defs>
<linearGradient id="l_2" gradientUnits="userSpaceOnUse" x1="500" y1="-143" x2="599" y2="-143" >
<stop offset="0" style="stop-color:#9351e5;stop-opacity:1.;"/>
<stop offset="1" style="stop-color:#ef468b;stop-opacity:1.;"/>
</linearGradient>
</defs>
<path fill="url(#l_2)" stroke="transparent" d="M587,-164C587,-164 512,-164 512,-164 506,-164 500,-158 500,-152 500,-152 500,-134 500,-134 500,-128 506,-122 512,-122 512,-122 587,-122 587,-122 593,-122 599,-128 599,-134 599,-134 599,-152 599,-152 599,-158 593,-164 587,-164"/>
<defs>
<linearGradient id="l_3" gradientUnits="userSpaceOnUse" x1="500" y1="-143" x2="599" y2="-143" >
<stop offset="0" style="stop-color:#9351e5;stop-opacity:1.;"/>
<stop offset="1" style="stop-color:#ef468b;stop-opacity:1.;"/>
</linearGradient>
</defs>
<polygon fill="url(#l_3)" stroke="transparent" points="500,-122 500,-164 599,-164 599,-122 500,-122"/>
<polygon fill="none" stroke="#323a4e" points="500.5,-143 500.5,-164 599.5,-164 599.5,-143 500.5,-143"/>
<text text-anchor="start" x="503.5" y="-149.8" font-family="Source Sans Pro" font-size="14.00" fill="#ffffff">Private Agent(s)</text>
<polygon fill="none" stroke="#323a4e" points="500.5,-122 500.5,-143 599.5,-143 599.5,-122 500.5,-122"/>
<text text-anchor="start" x="536" y="-128.8" font-family="Source Sans Pro" font-size="14.00" fill="#ffffff">5051</text>
</g>
<!-- MM_MA_LB&#45;&gt;MA -->
<g id="edge6" class="edge">
<title>MM_MA_LB&#45;&gt;MA</title>
<path fill="none" stroke="#323a4e" d="M211.9395,-140.5521C266.6741,-150.9291 373.3646,-167.4075 464,-159 472.43,-158.218 481.2683,-157.0112 489.9316,-155.6031"/>
<polygon fill="#323a4e" stroke="#323a4e" points="499.9864,-153.8711 490.8954,-160.0034 495.0589,-154.7199 490.1315,-155.5688 490.1315,-155.5688 490.1315,-155.5688 495.0589,-154.7199 489.3675,-151.1341 499.9864,-153.8711 499.9864,-153.8711"/>
</g>
<!-- MPA -->
<g id="node5" class="node">
<title>MPA</title>
<defs>
<linearGradient id="l_4" gradientUnits="userSpaceOnUse" x1="369" y1="-109" x2="464" y2="-109" >
<stop offset="0" style="stop-color:#9351e5;stop-opacity:1.;"/>
<stop offset="1" style="stop-color:#ef468b;stop-opacity:1.;"/>
</linearGradient>
</defs>
<path fill="url(#l_4)" stroke="transparent" d="M452,-140.5C452,-140.5 381,-140.5 381,-140.5 375,-140.5 369,-134.5 369,-128.5 369,-128.5 369,-89.5 369,-89.5 369,-83.5 375,-77.5 381,-77.5 381,-77.5 452,-77.5 452,-77.5 458,-77.5 464,-83.5 464,-89.5 464,-89.5 464,-128.5 464,-128.5 464,-134.5 458,-140.5 452,-140.5"/>
<defs>
<linearGradient id="l_5" gradientUnits="userSpaceOnUse" x1="369" y1="-109" x2="464" y2="-109" >
<stop offset="0" style="stop-color:#9351e5;stop-opacity:1.;"/>
<stop offset="1" style="stop-color:#ef468b;stop-opacity:1.;"/>
</linearGradient>
</defs>
<polygon fill="url(#l_5)" stroke="transparent" points="369,-77.5 369,-140.5 464,-140.5 464,-77.5 369,-77.5"/>
<polygon fill="none" stroke="#323a4e" points="369.5,-119 369.5,-140 464.5,-140 464.5,-119 369.5,-119"/>
<text text-anchor="start" x="372.5" y="-125.8" font-family="Source Sans Pro" font-size="14.00" fill="#ffffff">Public Agent(s)</text>
<polygon fill="none" stroke="#323a4e" points="369.5,-98 369.5,-119 464.5,-119 464.5,-98 369.5,-98"/>
<text text-anchor="start" x="403" y="-104.8" font-family="Source Sans Pro" font-size="14.00" fill="#ffffff">5051</text>
<polygon fill="none" stroke="#323a4e" points="369.5,-77 369.5,-98 413.5,-98 413.5,-77 369.5,-77"/>
<text text-anchor="start" x="384.5" y="-83.8" font-family="Source Sans Pro" font-size="14.00" fill="#ffffff">80</text>
<polygon fill="none" stroke="#323a4e" points="413.5,-77 413.5,-98 464.5,-98 464.5,-77 413.5,-77"/>
<text text-anchor="start" x="428.5" y="-83.8" font-family="Source Sans Pro" font-size="14.00" fill="#ffffff">443</text>
</g>
<!-- MM_MA_LB&#45;&gt;MPA -->
<g id="edge7" class="edge">
<title>MM_MA_LB&#45;&gt;MPA</title>
<path fill="none" stroke="#323a4e" d="M229.2851,-127.6438C267.8258,-123.8057 319.6622,-118.6436 359.0182,-114.7243"/>
<polygon fill="#323a4e" stroke="#323a4e" points="368.9952,-113.7308 359.4904,-119.1997 364.0198,-114.2263 359.0444,-114.7218 359.0444,-114.7218 359.0444,-114.7218 364.0198,-114.2263 358.5984,-110.244 368.9952,-113.7308 368.9952,-113.7308"/>
</g>
<!-- MM&#45;&gt;MM_MA_FW -->
<g id="edge1" class="edge">
<title>MM&#45;&gt;MM_MA_FW</title>
<path fill="none" stroke="#323a4e" d="M264.9621,-65.125C228.2374,-71.5736 168.743,-84.7274 122,-108 100.7317,-118.5891 79.6279,-136.0581 66.0277,-148.4654"/>
<polygon fill="#323a4e" stroke="#323a4e" points="58.5949,-155.4298 62.8153,-145.3086 62.2436,-152.0111 65.8922,-148.5924 65.8922,-148.5924 65.8922,-148.5924 62.2436,-152.0111 68.9691,-151.8761 58.5949,-155.4298 58.5949,-155.4298"/>
</g>
<!-- MM&#45;&gt;MA -->
<g id="edge8" class="edge">
<title>MM&#45;&gt;MA:ma_5051</title>
<path fill="none" stroke="#323a4e" stroke-dasharray="1,5" d="M333.0797,-50.2503C368.5429,-42.2038 424.335,-35.6373 464,-60 494.5709,-78.7771 464.623,-132 500.5,-132"/>
</g>
<!-- MM&#45;&gt;MPA -->
<g id="edge9" class="edge">
<title>MM&#45;&gt;MPA:mpa_5051</title>
<path fill="none" stroke="#323a4e" stroke-dasharray="1,5" d="M317.1032,-81.1932C330.176,-94.0518 349.0661,-108 369.5,-108"/>
</g>
<!-- MA&#45;&gt;MM_MA_FW -->
<g id="edge2" class="edge">
<title>MA&#45;&gt;MM_MA_FW</title>
<path fill="none" stroke="#323a4e" d="M499.9157,-161.3893C488.2902,-164.9333 475.8383,-168.1236 464,-170 426.0579,-176.0139 187.5269,-176.1366 122,-172 113.7131,-171.4769 104.9144,-170.6135 96.4358,-169.6233"/>
<polygon fill="#323a4e" stroke="#323a4e" points="86.3085,-168.3668 96.7865,-165.1324 91.2704,-168.9825 96.2324,-169.5981 96.2324,-169.5981 96.2324,-169.5981 91.2704,-168.9825 95.6783,-174.0639 86.3085,-168.3668 86.3085,-168.3668"/>
</g>
<!-- MPA&#45;&gt;MM_MA_FW -->
<g id="edge3" class="edge">
<title>MPA&#45;&gt;MM_MA_FW</title>
<path fill="none" stroke="#323a4e" d="M368.9807,-125.0401C331.4621,-136.8791 277.5282,-152.0853 229,-159 184.2973,-165.3696 132.6524,-165.7723 96.5439,-164.9439"/>
<polygon fill="#323a4e" stroke="#323a4e" points="86.3267,-164.6671 96.4449,-160.4396 91.3248,-164.8025 96.323,-164.938 96.323,-164.938 96.323,-164.938 91.3248,-164.8025 96.2011,-169.4363 86.3267,-164.6671 86.3267,-164.6671"/>
</g>
<!-- MPA&#45;&gt;MA -->
<g id="edge10" class="edge">
<title>MPA&#45;&gt;MA</title>
<path fill="none" stroke="#323a4e" stroke-dasharray="5,2" d="M473.8344,-123.6569C479.2688,-125.0462 484.7865,-126.4567 490.2386,-127.8505"/>
<polygon fill="#323a4e" stroke="#323a4e" points="464.1404,-121.1787 474.9434,-119.2958 468.9846,-122.4172 473.8288,-123.6556 473.8288,-123.6556 473.8288,-123.6556 468.9846,-122.4172 472.7143,-128.0154 464.1404,-121.1787 464.1404,-121.1787"/>
<polygon fill="#323a4e" stroke="#323a4e" points="499.9491,-130.3329 489.1461,-132.2158 495.1049,-129.0944 490.2607,-127.856 490.2607,-127.856 490.2607,-127.856 495.1049,-129.0944 491.3753,-123.4962 499.9491,-130.3329 499.9491,-130.3329"/>
</g>
</g>
</svg>
