<?xml version="1.0" encoding="UTF-8" standalone="no"?>
<!DOCTYPE svg PUBLIC "-//W3C//DTD SVG 1.1//EN"
 "http://www.w3.org/Graphics/SVG/1.1/DTD/svg11.dtd">
<!-- Generated by graphviz version 2.40.1 (20161225.0304)
 -->
<!-- Title: G Pages: 1 -->
<svg width="388pt" height="306pt"
 viewBox="0.00 0.00 388.00 306.00" xmlns="http://www.w3.org/2000/svg" xmlns:xlink="http://www.w3.org/1999/xlink">
<g id="graph0" class="graph" transform="scale(1 1) rotate(0) translate(4 302)">
<title>G</title>
<text text-anchor="middle" x="190" y="-7.8" font-family="Source Sans Pro" font-size="14.00" fill="#323a4e">Securing Mesos Communications</text>
<g id="clust1" class="cluster">
<title>cluster_mesos</title>
<polygon fill="#27c97b" stroke="#27c97b" stroke-dasharray="5,2" points="8,-31 8,-290 372,-290 372,-31 8,-31"/>
<text text-anchor="middle" x="190" y="-274.8" font-family="Source Sans Pro" font-size="14.00" fill="#323a4e">Mesos Components</text>
</g>
<!-- MM_MA_FW -->
<g id="node1" class="node">
<title>MM_MA_FW</title>
<path fill="#fc4661" stroke="transparent" d="M81,-156.5C81,-156.5 21,-156.5 21,-156.5 18.5,-156.5 16,-154 16,-151.5 16,-151.5 16,-146.5 16,-146.5 16,-144 18.5,-141.5 21,-141.5 21,-141.5 81,-141.5 81,-141.5 83.5,-141.5 86,-144 86,-146.5 86,-146.5 86,-151.5 86,-151.5 86,-154 83.5,-156.5 81,-156.5"/>
<text text-anchor="middle" x="51" y="-145.3" font-family="Source Sans Pro" font-size="14.00" fill="#ffffff">&#45;&#45; Firewall &#45;&#45;</text>
</g>
<!-- MM_MA_LB -->
<g id="node2" class="node">
<title>MM_MA_LB</title>
<path fill="#2f81f7" stroke="transparent" d="M224,-134.5C224,-134.5 127,-134.5 127,-134.5 124.5,-134.5 122,-132 122,-129.5 122,-129.5 122,-124.5 122,-124.5 122,-122 124.5,-119.5 127,-119.5 127,-119.5 224,-119.5 224,-119.5 226.5,-119.5 229,-122 229,-124.5 229,-124.5 229,-129.5 229,-129.5 229,-132 226.5,-134.5 224,-134.5"/>
<text text-anchor="middle" x="175.5" y="-123.3" font-family="Source Sans Pro" font-size="14.00" fill="#ffffff">&#45;&#45; Load Balancer &#45;&#45;</text>
</g>
<!-- MM_MA_FW&#45;&gt;MM_MA_LB -->
<g id="edge4" class="edge">
<title>MM_MA_FW&#45;&gt;MM_MA_LB</title>
<path fill="none" stroke="#323a4e" d="M86.0115,-142.8132C97.3617,-140.8076 110.2168,-138.536 122.5707,-136.353"/>
<polygon fill="#323a4e" stroke="#323a4e" points="132.7862,-134.5478 123.7218,-140.7194 127.8625,-135.4179 122.9387,-136.288 122.9387,-136.288 122.9387,-136.288 127.8625,-135.4179 122.1557,-131.8567 132.7862,-134.5478 132.7862,-134.5478"/>
</g>
<!-- MM -->
<g id="node3" class="node">
<title>MM</title>
<defs>
<linearGradient id="l_0" gradientUnits="userSpaceOnUse" x1="280.5" y1="-60" x2="348.5" y2="-60" >
<stop offset="0" style="stop-color:#9351e5;stop-opacity:1.;"/>
<stop offset="1" style="stop-color:#ef468b;stop-opacity:1.;"/>
</linearGradient>
</defs>
<path fill="url(#l_0)" stroke="transparent" d="M336.5,-81C336.5,-81 292.5,-81 292.5,-81 286.5,-81 280.5,-75 280.5,-69 280.5,-69 280.5,-51 280.5,-51 280.5,-45 286.5,-39 292.5,-39 292.5,-39 336.5,-39 336.5,-39 342.5,-39 348.5,-45 348.5,-51 348.5,-51 348.5,-69 348.5,-69 348.5,-75 342.5,-81 336.5,-81"/>
<defs>
<linearGradient id="l_1" gradientUnits="userSpaceOnUse" x1="280.5" y1="-60" x2="348.5" y2="-60" >
<stop offset="0" style="stop-color:#9351e5;stop-opacity:1.;"/>
<stop offset="1" style="stop-color:#ef468b;stop-opacity:1.;"/>
</linearGradient>
</defs>
<polygon fill="url(#l_1)" stroke="transparent" points="280.5,-39 280.5,-81 348.5,-81 348.5,-39 280.5,-39"/>
<polygon fill="none" stroke="#323a4e" points="280.5,-60 280.5,-81 348.5,-81 348.5,-60 280.5,-60"/>
<text text-anchor="start" x="287" y="-66.8" font-family="Source Sans Pro" font-size="14.00" fill="#ffffff">Master(s)</text>
<polygon fill="none" stroke="#323a4e" points="280.5,-39 280.5,-60 314.5,-60 314.5,-39 280.5,-39"/>
<text text-anchor="start" x="283.5" y="-45.8" font-family="Source Sans Pro" font-size="14.00" fill="#ffffff">2181</text>
<polygon fill="none" stroke="#323a4e" points="314.5,-39 314.5,-60 348.5,-60 348.5,-39 314.5,-39"/>
<text text-anchor="start" x="317.5" y="-45.8" font-family="Source Sans Pro" font-size="14.00" fill="#ffffff">5050</text>
</g>
<!-- MM_MA_LB&#45;&gt;MM -->
<g id="edge5" class="edge">
<title>MM_MA_LB&#45;&gt;MM</title>
<path fill="none" stroke="#323a4e" d="M191.1749,-119.4445C210.4189,-110.1686 243.8493,-94.0547 271.0529,-80.9421"/>
<polygon fill="#323a4e" stroke="#323a4e" points="280.3821,-76.4453 273.3279,-84.8411 275.878,-78.6164 271.3739,-80.7874 271.3739,-80.7874 271.3739,-80.7874 275.878,-78.6164 269.42,-76.7338 280.3821,-76.4453 280.3821,-76.4453"/>
</g>
<!-- MA -->
<g id="node4" class="node">
<title>MA</title>
<defs>
<linearGradient id="l_2" gradientUnits="userSpaceOnUse" x1="265" y1="-138" x2="364" y2="-138" >
<stop offset="0" style="stop-color:#9351e5;stop-opacity:1.;"/>
<stop offset="1" style="stop-color:#ef468b;stop-opacity:1.;"/>
</linearGradient>
</defs>
<path fill="url(#l_2)" stroke="transparent" d="M352,-159C352,-159 277,-159 277,-159 271,-159 265,-153 265,-147 265,-147 265,-129 265,-129 265,-123 271,-117 277,-117 277,-117 352,-117 352,-117 358,-117 364,-123 364,-129 364,-129 364,-147 364,-147 364,-153 358,-159 352,-159"/>
<defs>
<linearGradient id="l_3" gradientUnits="userSpaceOnUse" x1="265" y1="-138" x2="364" y2="-138" >
<stop offset="0" style="stop-color:#9351e5;stop-opacity:1.;"/>
<stop offset="1" style="stop-color:#ef468b;stop-opacity:1.;"/>
</linearGradient>
</defs>
<polygon fill="url(#l_3)" stroke="transparent" points="265,-117 265,-159 364,-159 364,-117 265,-117"/>
<polygon fill="none" stroke="#323a4e" points="265.5,-138 265.5,-159 364.5,-159 364.5,-138 265.5,-138"/>
<text text-anchor="start" x="268.5" y="-144.8" font-family="Source Sans Pro" font-size="14.00" fill="#ffffff">Private Agent(s)</text>
<polygon fill="none" stroke="#323a4e" points="265.5,-117 265.5,-138 364.5,-138 364.5,-117 265.5,-117"/>
<text text-anchor="start" x="301" y="-123.8" font-family="Source Sans Pro" font-size="14.00" fill="#ffffff">5051</text>
</g>
<!-- MM_MA_LB&#45;&gt;MA -->
<g id="edge6" class="edge">
<title>MM_MA_LB&#45;&gt;MA</title>
<path fill="none" stroke="#323a4e" d="M229.241,-131.2529C237.6052,-131.9148 246.2907,-132.6021 254.7778,-133.2738"/>
<polygon fill="#323a4e" stroke="#323a4e" points="264.9968,-134.0825 254.6729,-137.7795 260.0124,-133.688 255.028,-133.2935 255.028,-133.2935 255.028,-133.2935 260.0124,-133.688 255.383,-128.8075 264.9968,-134.0825 264.9968,-134.0825"/>
</g>
<!-- MPA -->
<g id="node5" class="node">
<title>MPA</title>
<defs>
<linearGradient id="l_4" gradientUnits="userSpaceOnUse" x1="267" y1="-227" x2="362" y2="-227" >
<stop offset="0" style="stop-color:#9351e5;stop-opacity:1.;"/>
<stop offset="1" style="stop-color:#ef468b;stop-opacity:1.;"/>
</linearGradient>
</defs>
<path fill="url(#l_4)" stroke="transparent" d="M350,-258.5C350,-258.5 279,-258.5 279,-258.5 273,-258.5 267,-252.5 267,-246.5 267,-246.5 267,-207.5 267,-207.5 267,-201.5 273,-195.5 279,-195.5 279,-195.5 350,-195.5 350,-195.5 356,-195.5 362,-201.5 362,-207.5 362,-207.5 362,-246.5 362,-246.5 362,-252.5 356,-258.5 350,-258.5"/>
<defs>
<linearGradient id="l_5" gradientUnits="userSpaceOnUse" x1="267" y1="-227" x2="362" y2="-227" >
<stop offset="0" style="stop-color:#9351e5;stop-opacity:1.;"/>
<stop offset="1" style="stop-color:#ef468b;stop-opacity:1.;"/>
</linearGradient>
</defs>
<polygon fill="url(#l_5)" stroke="transparent" points="267,-195.5 267,-258.5 362,-258.5 362,-195.5 267,-195.5"/>
<polygon fill="none" stroke="#323a4e" points="267.5,-237 267.5,-258 362.5,-258 362.5,-237 267.5,-237"/>
<text text-anchor="start" x="270.5" y="-243.8" font-family="Source Sans Pro" font-size="14.00" fill="#ffffff">Public Agent(s)</text>
<polygon fill="none" stroke="#323a4e" points="267.5,-216 267.5,-237 362.5,-237 362.5,-216 267.5,-216"/>
<text text-anchor="start" x="301" y="-222.8" font-family="Source Sans Pro" font-size="14.00" fill="#ffffff">5051</text>
<polygon fill="none" stroke="#323a4e" points="267.5,-195 267.5,-216 311.5,-216 311.5,-195 267.5,-195"/>
<text text-anchor="start" x="282.5" y="-201.8" font-family="Source Sans Pro" font-size="14.00" fill="#ffffff">80</text>
<polygon fill="none" stroke="#323a4e" points="311.5,-195 311.5,-216 362.5,-216 362.5,-195 311.5,-195"/>
<text text-anchor="start" x="326.5" y="-201.8" font-family="Source Sans Pro" font-size="14.00" fill="#ffffff">443</text>
</g>
<!-- MM_MA_LB&#45;&gt;MPA -->
<g id="edge7" class="edge">
<title>MM_MA_LB&#45;&gt;MPA</title>
<path fill="none" stroke="#323a4e" d="M185.9476,-134.5163C202.0951,-146.1331 234.1869,-169.2208 262.265,-189.4209"/>
<polygon fill="#323a4e" stroke="#323a4e" points="270.4435,-195.3046 259.6979,-193.1175 266.3847,-192.3846 262.3259,-189.4646 262.3259,-189.4646 262.3259,-189.4646 266.3847,-192.3846 264.9539,-185.8117 270.4435,-195.3046 270.4435,-195.3046"/>
</g>
<!-- MM&#45;&gt;MM_MA_FW -->
<g id="edge1" class="edge">
<title>MM&#45;&gt;MM_MA_FW</title>
<path fill="none" stroke="#323a4e" d="M280.3114,-63.5925C240.9009,-68.601 174.7777,-79.6996 122,-102 102.1173,-110.4011 81.8176,-124.509 68.0449,-135.0806"/>
<polygon fill="#323a4e" stroke="#323a4e" points="60.0069,-141.4214 65.071,-131.6949 63.9325,-138.3247 67.8581,-135.228 67.8581,-135.228 67.8581,-135.228 63.9325,-138.3247 70.6451,-138.761 60.0069,-141.4214 60.0069,-141.4214"/>
</g>
<!-- MA&#45;&gt;MM_MA_FW -->
<g id="edge2" class="edge">
<title>MA&#45;&gt;MM_MA_FW</title>
<path fill="none" stroke="#323a4e" d="M264.9601,-148.1924C253.2225,-150.1898 240.7107,-151.9805 229,-153 181.6236,-157.1243 169.5367,-154.338 122,-153 113.665,-152.7654 104.7861,-152.3762 96.2304,-151.9302"/>
<polygon fill="#323a4e" stroke="#323a4e" points="86.013,-151.3647 96.2465,-147.4243 91.0054,-151.6411 95.9977,-151.9174 95.9977,-151.9174 95.9977,-151.9174 91.0054,-151.6411 95.749,-156.4106 86.013,-151.3647 86.013,-151.3647"/>
</g>
<!-- MPA&#45;&gt;MM_MA_FW -->
<g id="edge3" class="edge">
<title>MPA&#45;&gt;MM_MA_FW</title>
<path fill="none" stroke="#323a4e" d="M266.9395,-212.9214C214.9847,-197.542 132.9721,-173.265 86.3989,-159.4786"/>
<polygon fill="#323a4e" stroke="#323a4e" points="76.7453,-156.621 87.6113,-155.1445 81.5396,-158.0402 86.334,-159.4595 86.334,-159.4595 86.334,-159.4595 81.5396,-158.0402 85.0567,-163.7744 76.7453,-156.621 76.7453,-156.621"/>
</g>
</g>
</svg>
