<?xml version="1.0" encoding="UTF-8" standalone="no"?>
<!-- Generated by graphviz version 2.40.1 (20161225.0304)
 -->

<!-- Title: G Pages: 1 -->

<svg xmlns:dc="http://purl.org/dc/elements/1.1/" xmlns:cc="http://creativecommons.org/ns#" xmlns:rdf="http://www.w3.org/1999/02/22-rdf-syntax-ns#" xmlns:svg="http://www.w3.org/2000/svg" xmlns="http://www.w3.org/2000/svg" xmlns:sodipodi="http://sodipodi.sourceforge.net/DTD/sodipodi-0.dtd" xmlns:inkscape="http://www.inkscape.org/namespaces/inkscape" width="726pt" height="280pt" viewBox="0.00 0.00 726.00 280.00" version="1.1" id="svg125439" sodipodi:docname="mesos-firewall-4.svg" inkscape:export-filename="/home/vishnu/tank/git/dcos-labs/secure-mesos-workshop/figures/png/mesos-firewall-4.png" inkscape:export-xdpi="384" inkscape:export-ydpi="384" inkscape:version="0.92.2 5c3e80d, 2017-08-06">
  <metadata id="metadata125445">
    <rdf:RDF>
      <cc:Work rdf:about="">
        <dc:format>image/svg+xml</dc:format>
        <dc:type rdf:resource="http://purl.org/dc/dcmitype/StillImage" />
        <dc:title></dc:title>
      </cc:Work>
    </rdf:RDF>
  </metadata>
  <defs id="defs125443" />
  <sodipodi:namedview pagecolor="#ffffff" bordercolor="#666666" borderopacity="1" objecttolerance="10" gridtolerance="10" guidetolerance="10" inkscape:pageopacity="0" inkscape:pageshadow="2" inkscape:window-width="640" inkscape:window-height="480" id="namedview125441" showgrid="false" inkscape:zoom="1.5981405" inkscape:cx="484" inkscape:cy="186.66667" inkscape:current-layer="graph0" />
  <g id="graph0" class="graph" transform="scale(1 1) rotate(0) translate(4 276)">
    <title id="title125225">G</title>
    <text text-anchor="middle" x="359" y="-7.8" font-family="Source Sans Pro" font-size="14.00" fill="#323a4e" id="text125227">Securing Mesos Communications</text>
    <g id="clust1" class="cluster">
      <title id="title125229">cluster_mesos</title>
      <polygon fill="#27c97b" stroke="#27c97b" stroke-dasharray="5,2" points="111,-31 111,-264 710,-264 710,-31 111,-31" id="polygon125231" style="fill:#27c97b;fill-opacity:0.49803922" />
      <text text-anchor="middle" x="410.5" y="-248.8" font-family="Source Sans Pro" font-size="14.00" fill="#323a4e" id="text125233">Mesos Components</text>
    </g>
    <!-- OPS -->
    <g id="node1" class="node">
      <title id="title125236">OPS</title>
      <defs id="defs125243">
        <linearGradient id="l_0" gradientUnits="userSpaceOnUse" x1="0" y1="-163" x2="83" y2="-163">
          <stop offset="0" style="stop-color:#9351e5" id="stop125238" />
          <stop offset="1" style="stop-color:#ef468b" id="stop125240" />
        </linearGradient>
      </defs>
      <path fill="url(#l_0)" stroke="transparent" d="M71,-181C71,-181 12,-181 12,-181 6,-181 0,-175 0,-169 0,-169 0,-157 0,-157 0,-151 6,-145 12,-145 12,-145 71,-145 71,-145 77,-145 83,-151 83,-157 83,-157 83,-169 83,-169 83,-175 77,-181 71,-181" id="path125245" />
      <text text-anchor="middle" x="41.5" y="-159.3" font-family="Source Sans Pro" font-size="14.00" fill="#ffffff" id="text125247">Operator(s)</text>
    </g>
    <!-- MM_MA_FW -->
    <g id="node2" class="node">
      <title id="title125250">MM_MA_FW</title>
      <path fill="#fc4661" stroke="transparent" d="M184,-170.5C184,-170.5 124,-170.5 124,-170.5 121.5,-170.5 119,-168 119,-165.5 119,-165.5 119,-160.5 119,-160.5 119,-158 121.5,-155.5 124,-155.5 124,-155.5 184,-155.5 184,-155.5 186.5,-155.5 189,-158 189,-160.5 189,-160.5 189,-165.5 189,-165.5 189,-168 186.5,-170.5 184,-170.5" id="path125252" />
      <text text-anchor="middle" x="154" y="-159.3" font-family="Source Sans Pro" font-size="14.00" fill="#ffffff" id="text125254">-- Firewall --</text>
    </g>
    <!-- OPS&#45;&gt;MM_MA_FW -->
    <g id="edge1" class="edge">
      <title id="title125257">OPS-&gt;MM_MA_FW</title>
      <path fill="none" stroke="#323a4e" d="M83.0712,-163C91.437,-163 100.2686,-163 108.7526,-163" id="path125259" />
      <polygon fill="#323a4e" stroke="#323a4e" points="118.8743,-163 108.8743,-167.5001 113.8743,-163 108.8743,-163.0001 108.8743,-163.0001 108.8743,-163.0001 113.8743,-163 108.8742,-158.5001 118.8743,-163 118.8743,-163" id="polygon125261" />
    </g>
    <!-- MM_MA_LB -->
    <g id="node3" class="node">
      <title id="title125264">MM_MA_LB</title>
      <path fill="#2f81f7" stroke="transparent" d="M327,-140.5C327,-140.5 230,-140.5 230,-140.5 227.5,-140.5 225,-138 225,-135.5 225,-135.5 225,-130.5 225,-130.5 225,-128 227.5,-125.5 230,-125.5 230,-125.5 327,-125.5 327,-125.5 329.5,-125.5 332,-128 332,-130.5 332,-130.5 332,-135.5 332,-135.5 332,-138 329.5,-140.5 327,-140.5" id="path125266" />
      <text text-anchor="middle" x="278.5" y="-129.3" font-family="Source Sans Pro" font-size="14.00" fill="#ffffff" id="text125268">-- Load Balancer --</text>
    </g>
    <!-- MM_MA_FW&#45;&gt;MM_MA_LB -->
    <g id="edge5" class="edge">
      <title id="title125271">MM_MA_FW-&gt;MM_MA_LB</title>
      <path fill="none" stroke="#323a4e" d="M185.4166,-155.4297C201.046,-151.6636 220.1448,-147.0615 236.9657,-143.0083" id="path125273" />
      <polygon fill="#323a4e" stroke="#323a4e" points="247.0934,-140.5678 238.4259,-147.2853 242.2326,-141.7392 237.3717,-142.9105 237.3717,-142.9105 237.3717,-142.9105 242.2326,-141.7392 236.3175,-138.5357 247.0934,-140.5678 247.0934,-140.5678" id="polygon125275" />
    </g>
    <!-- MM -->
    <g id="node4" class="node">
      <title id="title125278">MM</title>
      <defs id="defs125285">
        <linearGradient id="l_1" gradientUnits="userSpaceOnUse" x1="368" y1="-60" x2="436" y2="-60">
          <stop offset="0" style="stop-color:#9351e5" id="stop125280" />
          <stop offset="1" style="stop-color:#ef468b" id="stop125282" />
        </linearGradient>
      </defs>
      <path fill="url(#l_1)" stroke="transparent" d="M424,-81C424,-81 380,-81 380,-81 374,-81 368,-75 368,-69 368,-69 368,-51 368,-51 368,-45 374,-39 380,-39 380,-39 424,-39 424,-39 430,-39 436,-45 436,-51 436,-51 436,-69 436,-69 436,-75 430,-81 424,-81" id="path125287" />
      <defs id="defs125294">
        <linearGradient id="l_2" gradientUnits="userSpaceOnUse" x1="368" y1="-60" x2="436" y2="-60">
          <stop offset="0" style="stop-color:#9351e5" id="stop125289" />
          <stop offset="1" style="stop-color:#ef468b" id="stop125291" />
        </linearGradient>
      </defs>
      <polygon fill="url(#l_2)" stroke="transparent" points="368,-39 368,-81 436,-81 436,-39 368,-39" id="polygon125296" />
      <polygon fill="none" stroke="#323a4e" points="368,-60 368,-81 436,-81 436,-60 368,-60" id="polygon125298" />
      <text text-anchor="start" x="374.5" y="-66.8" font-family="Source Sans Pro" font-size="14.00" fill="#ffffff" id="text125300">Master(s)</text>
      <polygon fill="none" stroke="#323a4e" points="368,-39 368,-60 402,-60 402,-39 368,-39" id="polygon125302" />
      <text text-anchor="start" x="371" y="-45.8" font-family="Source Sans Pro" font-size="14.00" fill="#ffffff" id="text125304">2181</text>
      <polygon fill="none" stroke="#323a4e" points="402,-39 402,-60 436,-60 436,-39 402,-39" id="polygon125306" />
      <text text-anchor="start" x="405" y="-45.8" font-family="Source Sans Pro" font-size="14.00" fill="#ffffff" id="text125308">5050</text>
    </g>
    <!-- MM_MA_LB&#45;&gt;MM -->
    <g id="edge6" class="edge">
      <title id="title125311">MM_MA_LB-&gt;MM</title>
      <path fill="none" stroke="#323a4e" d="M291.2515,-125.4627C307.154,-116.0628 335.1566,-99.5107 359.024,-85.4028" id="path125313" />
      <polygon fill="#323a4e" stroke="#323a4e" points="367.9351,-80.1355 361.6164,-89.0979 363.6308,-82.6798 359.3265,-85.224 359.3265,-85.224 359.3265,-85.224 363.6308,-82.6798 357.0367,-81.3502 367.9351,-80.1355 367.9351,-80.1355" id="polygon125315" />
    </g>
    <!-- MA -->
    <g id="node5" class="node">
      <title id="title125318">MA</title>
      <defs id="defs125325">
        <linearGradient id="l_3" gradientUnits="userSpaceOnUse" x1="603" y1="-143" x2="702" y2="-143">
          <stop offset="0" style="stop-color:#9351e5" id="stop125320" />
          <stop offset="1" style="stop-color:#ef468b" id="stop125322" />
        </linearGradient>
      </defs>
      <path fill="url(#l_3)" stroke="transparent" d="M690,-164C690,-164 615,-164 615,-164 609,-164 603,-158 603,-152 603,-152 603,-134 603,-134 603,-128 609,-122 615,-122 615,-122 690,-122 690,-122 696,-122 702,-128 702,-134 702,-134 702,-152 702,-152 702,-158 696,-164 690,-164" id="path125327" />
      <defs id="defs125334">
        <linearGradient id="l_4" gradientUnits="userSpaceOnUse" x1="603" y1="-143" x2="702" y2="-143">
          <stop offset="0" style="stop-color:#9351e5" id="stop125329" />
          <stop offset="1" style="stop-color:#ef468b" id="stop125331" />
        </linearGradient>
      </defs>
      <polygon fill="url(#l_4)" stroke="transparent" points="603,-122 603,-164 702,-164 702,-122 603,-122" id="polygon125336" />
      <polygon fill="none" stroke="#323a4e" points="603.5,-143 603.5,-164 702.5,-164 702.5,-143 603.5,-143" id="polygon125338" />
      <text text-anchor="start" x="606.5" y="-149.8" font-family="Source Sans Pro" font-size="14.00" fill="#ffffff" id="text125340">Private Agent(s)</text>
      <polygon fill="none" stroke="#323a4e" points="603.5,-122 603.5,-143 702.5,-143 702.5,-122 603.5,-122" id="polygon125342" />
      <text text-anchor="start" x="639" y="-128.8" font-family="Source Sans Pro" font-size="14.00" fill="#ffffff" id="text125344">5051</text>
    </g>
    <!-- MM_MA_LB&#45;&gt;MA -->
    <g id="edge7" class="edge">
      <title id="title125347">MM_MA_LB-&gt;MA</title>
      <path fill="none" stroke="#323a4e" d="M314.9395,-140.5521C369.6741,-150.9291 476.3646,-167.4075 567,-159 575.43,-158.218 584.2683,-157.0112 592.9316,-155.6031" id="path125349" />
      <polygon fill="#323a4e" stroke="#323a4e" points="602.9864,-153.8711 593.8954,-160.0034 598.0589,-154.7199 593.1315,-155.5688 593.1315,-155.5688 593.1315,-155.5688 598.0589,-154.7199 592.3675,-151.1341 602.9864,-153.8711 602.9864,-153.8711" id="polygon125351" />
    </g>
    <!-- MPA -->
    <g id="node6" class="node">
      <title id="title125354">MPA</title>
      <defs id="defs125361">
        <linearGradient id="l_5" gradientUnits="userSpaceOnUse" x1="472" y1="-109" x2="567" y2="-109">
          <stop offset="0" style="stop-color:#9351e5" id="stop125356" />
          <stop offset="1" style="stop-color:#ef468b" id="stop125358" />
        </linearGradient>
      </defs>
      <path fill="url(#l_5)" stroke="transparent" d="M555,-140.5C555,-140.5 484,-140.5 484,-140.5 478,-140.5 472,-134.5 472,-128.5 472,-128.5 472,-89.5 472,-89.5 472,-83.5 478,-77.5 484,-77.5 484,-77.5 555,-77.5 555,-77.5 561,-77.5 567,-83.5 567,-89.5 567,-89.5 567,-128.5 567,-128.5 567,-134.5 561,-140.5 555,-140.5" id="path125363" />
      <defs id="defs125370">
        <linearGradient id="l_6" gradientUnits="userSpaceOnUse" x1="472" y1="-109" x2="567" y2="-109">
          <stop offset="0" style="stop-color:#9351e5" id="stop125365" />
          <stop offset="1" style="stop-color:#ef468b" id="stop125367" />
        </linearGradient>
      </defs>
      <polygon fill="url(#l_6)" stroke="transparent" points="472,-77.5 472,-140.5 567,-140.5 567,-77.5 472,-77.5" id="polygon125372" />
      <polygon fill="none" stroke="#323a4e" points="472.5,-119 472.5,-140 567.5,-140 567.5,-119 472.5,-119" id="polygon125374" />
      <text text-anchor="start" x="475.5" y="-125.8" font-family="Source Sans Pro" font-size="14.00" fill="#ffffff" id="text125376">Public Agent(s)</text>
      <polygon fill="none" stroke="#323a4e" points="472.5,-98 472.5,-119 567.5,-119 567.5,-98 472.5,-98" id="polygon125378" />
      <text text-anchor="start" x="506" y="-104.8" font-family="Source Sans Pro" font-size="14.00" fill="#ffffff" id="text125380">5051</text>
      <polygon fill="none" stroke="#323a4e" points="472.5,-77 472.5,-98 516.5,-98 516.5,-77 472.5,-77" id="polygon125382" />
      <text text-anchor="start" x="487.5" y="-83.8" font-family="Source Sans Pro" font-size="14.00" fill="#ffffff" id="text125384">80</text>
      <polygon fill="none" stroke="#323a4e" points="516.5,-77 516.5,-98 567.5,-98 567.5,-77 516.5,-77" id="polygon125386" />
      <text text-anchor="start" x="531.5" y="-83.8" font-family="Source Sans Pro" font-size="14.00" fill="#ffffff" id="text125388">443</text>
    </g>
    <!-- MM_MA_LB&#45;&gt;MPA -->
    <g id="edge8" class="edge">
      <title id="title125391">MM_MA_LB-&gt;MPA</title>
      <path fill="none" stroke="#323a4e" d="M332.2851,-127.6438C370.8258,-123.8057 422.6622,-118.6436 462.0182,-114.7243" id="path125393" />
      <polygon fill="#323a4e" stroke="#323a4e" points="471.9952,-113.7308 462.4904,-119.1997 467.0198,-114.2263 462.0444,-114.7218 462.0444,-114.7218 462.0444,-114.7218 467.0198,-114.2263 461.5984,-110.244 471.9952,-113.7308 471.9952,-113.7308" id="polygon125395" />
    </g>
    <!-- MM&#45;&gt;MM_MA_FW -->
    <g id="edge2" class="edge">
      <title id="title125398">MM-&gt;MM_MA_FW</title>
      <path fill="none" stroke="#323a4e" d="M367.9621,-65.125C331.2374,-71.5736 271.743,-84.7274 225,-108 203.7317,-118.5891 182.6279,-136.0581 169.0277,-148.4654" id="path125400" />
      <polygon fill="#323a4e" stroke="#323a4e" points="161.5949,-155.4298 165.8153,-145.3086 165.2436,-152.0111 168.8922,-148.5924 168.8922,-148.5924 168.8922,-148.5924 165.2436,-152.0111 171.9691,-151.8761 161.5949,-155.4298 161.5949,-155.4298" id="polygon125402" />
    </g>
    <!-- MM&#45;&gt;MA -->
    <g id="edge9" class="edge">
      <title id="title125405">MM-&gt;MA:ma_5051</title>
      <path fill="none" stroke="#323a4e" stroke-dasharray="1,5" d="M436.0797,-50.2503C471.5429,-42.2038 527.335,-35.6373 567,-60 597.5709,-78.7771 567.623,-132 603.5,-132" id="path125407" />
    </g>
    <!-- MM&#45;&gt;MPA -->
    <g id="edge10" class="edge">
      <title id="title125410">MM-&gt;MPA:mpa_5051</title>
      <path fill="none" stroke="#323a4e" stroke-dasharray="1,5" d="M420.1032,-81.1932C433.176,-94.0518 452.0661,-108 472.5,-108" id="path125412" />
    </g>
    <!-- MA&#45;&gt;MM_MA_FW -->
    <g id="edge3" class="edge">
      <title id="title125415">MA-&gt;MM_MA_FW</title>
      <path fill="none" stroke="#323a4e" d="M602.9157,-161.3893C591.2902,-164.9333 578.8383,-168.1236 567,-170 529.0579,-176.0139 290.5269,-176.1366 225,-172 216.7131,-171.4769 207.9144,-170.6135 199.4358,-169.6233" id="path125417" />
      <polygon fill="#323a4e" stroke="#323a4e" points="189.3085,-168.3668 199.7865,-165.1324 194.2704,-168.9825 199.2324,-169.5981 199.2324,-169.5981 199.2324,-169.5981 194.2704,-168.9825 198.6783,-174.0639 189.3085,-168.3668 189.3085,-168.3668" id="polygon125419" />
    </g>
    <!-- MPA&#45;&gt;MM_MA_FW -->
    <g id="edge4" class="edge">
      <title id="title125422">MPA-&gt;MM_MA_FW</title>
      <path fill="none" stroke="#323a4e" d="M471.9807,-125.0401C434.4621,-136.8791 380.5282,-152.0853 332,-159 287.2973,-165.3696 235.6524,-165.7723 199.5439,-164.9439" id="path125424" />
      <polygon fill="#323a4e" stroke="#323a4e" points="189.3267,-164.6671 199.4449,-160.4396 194.3248,-164.8025 199.323,-164.938 199.323,-164.938 199.323,-164.938 194.3248,-164.8025 199.2011,-169.4363 189.3267,-164.6671 189.3267,-164.6671" id="polygon125426" />
    </g>
    <!-- MPA&#45;&gt;MA -->
    <g id="edge11" class="edge">
      <title id="title125429">MPA-&gt;MA</title>
      <path fill="none" stroke="#323a4e" stroke-dasharray="5,2" d="M576.8344,-123.6569C582.2688,-125.0462 587.7865,-126.4567 593.2386,-127.8505" id="path125431" />
      <polygon fill="#323a4e" stroke="#323a4e" points="567.1404,-121.1787 577.9434,-119.2958 571.9846,-122.4172 576.8288,-123.6556 576.8288,-123.6556 576.8288,-123.6556 571.9846,-122.4172 575.7143,-128.0154 567.1404,-121.1787 567.1404,-121.1787" id="polygon125433" />
      <polygon fill="#323a4e" stroke="#323a4e" points="602.9491,-130.3329 592.1461,-132.2158 598.1049,-129.0944 593.2607,-127.856 593.2607,-127.856 593.2607,-127.856 598.1049,-129.0944 594.3753,-123.4962 602.9491,-130.3329 602.9491,-130.3329" id="polygon125435" />
    </g>
  </g>
</svg>
