<?xml version="1.0" encoding="UTF-8" standalone="no"?>
<!-- Generated by graphviz version 2.40.1 (20161225.0304)
 -->

<!-- Title: G Pages: 1 -->

<svg xmlns:dc="http://purl.org/dc/elements/1.1/" xmlns:cc="http://creativecommons.org/ns#" xmlns:rdf="http://www.w3.org/1999/02/22-rdf-syntax-ns#" xmlns:svg="http://www.w3.org/2000/svg" xmlns="http://www.w3.org/2000/svg" xmlns:sodipodi="http://sodipodi.sourceforge.net/DTD/sodipodi-0.dtd" xmlns:inkscape="http://www.inkscape.org/namespaces/inkscape" width="1089pt" height="343pt" viewBox="0.00 0.00 1089.00 343.00" version="1.1" id="svg127093" sodipodi:docname="mesos-firewall-6.svg" inkscape:export-filename="/home/vishnu/tank/git/dcos-labs/secure-mesos-workshop/figures/png/mesos-firewall-6.png" inkscape:export-xdpi="384" inkscape:export-ydpi="384" inkscape:version="0.92.2 5c3e80d, 2017-08-06">
  <metadata id="metadata127099">
    <rdf:RDF>
      <cc:Work rdf:about="">
        <dc:format>image/svg+xml</dc:format>
        <dc:type rdf:resource="http://purl.org/dc/dcmitype/StillImage" />
        <dc:title></dc:title>
      </cc:Work>
    </rdf:RDF>
  </metadata>
  <defs id="defs127097" />
  <sodipodi:namedview pagecolor="#ffffff" bordercolor="#666666" borderopacity="1" objecttolerance="10" gridtolerance="10" guidetolerance="10" inkscape:pageopacity="0" inkscape:pageshadow="2" inkscape:window-width="640" inkscape:window-height="480" id="namedview127095" showgrid="false" inkscape:zoom="1.065427" inkscape:cx="726" inkscape:cy="228.66667" inkscape:current-layer="clust2" />
  <g id="graph0" class="graph" transform="scale(1 1) rotate(0) translate(4 339)">
    <title id="title126727">G</title>
    <text text-anchor="middle" x="540.5" y="-7.8" font-family="Source Sans Pro" font-size="14.00" fill="#323a4e" id="text126729">Securing Mesos Communications</text>
    <g id="clust2" class="cluster">
      <title id="title126731">cluster_user</title>
      <polygon fill="#fedf57" stroke="#fedf57" stroke-dasharray="5,2" points="118,-31 118,-86 343.5,-86 343.5,-31 118,-31" id="polygon126733" style="fill:#fedf57;fill-opacity:0.49803922" />
      <text text-anchor="middle" x="230.75" y="-70.8" font-family="Source Sans Pro" font-size="14.00" fill="#323a4e" id="text126735">Service Users</text>
    </g>
    <g id="clust1" class="cluster">
      <title id="title126738">cluster_developer</title>
      <polygon fill="#20d5ff" stroke="#20d5ff" stroke-dasharray="5,2" points="118,-184 118,-265 454,-265 454,-184 118,-184" id="polygon126740" style="fill:#20d5ff;fill-opacity:0.49803922" />
      <text text-anchor="middle" x="286" y="-249.8" font-family="Source Sans Pro" font-size="14.00" fill="#323a4e" id="text126742">Framework Developers</text>
    </g>
    <g id="clust3" class="cluster">
      <title id="title126745">cluster_mesos</title>
      <polygon fill="#27c97b" stroke="#27c97b" stroke-dasharray="5,2" points="474,-94 474,-327 1073,-327 1073,-94 474,-94" id="polygon126747" style="fill:#27c97b;fill-opacity:0.49803922" />
      <text text-anchor="middle" x="773.5" y="-311.8" font-family="Source Sans Pro" font-size="14.00" fill="#323a4e" id="text126749">Mesos Components</text>
    </g>
    <!-- OPS -->
    <g id="node1" class="node">
      <title id="title126752">OPS</title>
      <defs id="defs126759">
        <linearGradient id="l_0" gradientUnits="userSpaceOnUse" x1="3.5" y1="-137" x2="86.5" y2="-137">
          <stop offset="0" style="stop-color:#9351e5" id="stop126754" />
          <stop offset="1" style="stop-color:#ef468b" id="stop126756" />
        </linearGradient>
      </defs>
      <path fill="url(#l_0)" stroke="transparent" d="M74.5,-155C74.5,-155 15.5,-155 15.5,-155 9.5,-155 3.5,-149 3.5,-143 3.5,-143 3.5,-131 3.5,-131 3.5,-125 9.5,-119 15.5,-119 15.5,-119 74.5,-119 74.5,-119 80.5,-119 86.5,-125 86.5,-131 86.5,-131 86.5,-143 86.5,-143 86.5,-149 80.5,-155 74.5,-155" id="path126761" />
      <text text-anchor="middle" x="45" y="-133.3" font-family="Source Sans Pro" font-size="14.00" fill="#ffffff" id="text126763">Operator(s)</text>
    </g>
    <!-- MM_MA_FW -->
    <g id="node6" class="node">
      <title id="title126766">MM_MA_FW</title>
      <path fill="#fc4661" stroke="transparent" d="M547,-201.5C547,-201.5 487,-201.5 487,-201.5 484.5,-201.5 482,-199 482,-196.5 482,-196.5 482,-191.5 482,-191.5 482,-189 484.5,-186.5 487,-186.5 487,-186.5 547,-186.5 547,-186.5 549.5,-186.5 552,-189 552,-191.5 552,-191.5 552,-196.5 552,-196.5 552,-199 549.5,-201.5 547,-201.5" id="path126768" />
      <text text-anchor="middle" x="517" y="-190.3" font-family="Source Sans Pro" font-size="14.00" fill="#ffffff" id="text126770">-- Firewall --</text>
    </g>
    <!-- OPS&#45;&gt;MM_MA_FW -->
    <g id="edge4" class="edge">
      <title id="title126773">OPS-&gt;MM_MA_FW</title>
      <path fill="none" stroke="#323a4e" d="M86.6076,-138.1192C160.982,-140.7271 321.3656,-149.1095 454,-175 464.5958,-177.0683 475.9536,-180.1987 486.067,-183.3251" id="path126775" />
      <polygon fill="#323a4e" stroke="#323a4e" points="495.6913,-186.4108 484.7948,-187.6428 490.93,-184.8843 486.1687,-183.3577 486.1687,-183.3577 486.1687,-183.3577 490.93,-184.8843 487.5426,-179.0725 495.6913,-186.4108 495.6913,-186.4108" id="polygon126777" />
    </g>
    <!-- DEV -->
    <g id="node2" class="node">
      <title id="title126780">DEV</title>
      <defs id="defs126787">
        <linearGradient id="l_1" gradientUnits="userSpaceOnUse" x1="0" y1="-213" x2="90" y2="-213">
          <stop offset="0" style="stop-color:#9351e5" id="stop126782" />
          <stop offset="1" style="stop-color:#ef468b" id="stop126784" />
        </linearGradient>
      </defs>
      <path fill="url(#l_1)" stroke="transparent" d="M78,-231C78,-231 12,-231 12,-231 6,-231 0,-225 0,-219 0,-219 0,-207 0,-207 0,-201 6,-195 12,-195 12,-195 78,-195 78,-195 84,-195 90,-201 90,-207 90,-207 90,-219 90,-219 90,-225 84,-231 78,-231" id="path126789" />
      <text text-anchor="middle" x="45" y="-209.3" font-family="Source Sans Pro" font-size="14.00" fill="#ffffff" id="text126791">Developer(s)</text>
    </g>
    <!-- DEV_FW_FW -->
    <g id="node4" class="node">
      <title id="title126794">DEV_FW_FW</title>
      <path fill="#fc4661" stroke="transparent" d="M191,-220.5C191,-220.5 131,-220.5 131,-220.5 128.5,-220.5 126,-218 126,-215.5 126,-215.5 126,-210.5 126,-210.5 126,-208 128.5,-205.5 131,-205.5 131,-205.5 191,-205.5 191,-205.5 193.5,-205.5 196,-208 196,-210.5 196,-210.5 196,-215.5 196,-215.5 196,-218 193.5,-220.5 191,-220.5" id="path126796" />
      <text text-anchor="middle" x="161" y="-209.3" font-family="Source Sans Pro" font-size="14.00" fill="#ffffff" id="text126798">-- Firewall --</text>
    </g>
    <!-- DEV&#45;&gt;DEV_FW_FW -->
    <g id="edge1" class="edge">
      <title id="title126801">DEV-&gt;DEV_FW_FW</title>
      <path fill="none" stroke="#323a4e" d="M90.1808,-213C98.5929,-213 107.3837,-213 115.7964,-213" id="path126803" />
      <polygon fill="#323a4e" stroke="#323a4e" points="125.8198,-213 115.8199,-217.5001 120.8198,-213 115.8198,-213.0001 115.8198,-213.0001 115.8198,-213.0001 120.8198,-213 115.8198,-208.5001 125.8198,-213 125.8198,-213" id="polygon126805" />
    </g>
    <!-- USER -->
    <g id="node3" class="node">
      <title id="title126808">USER</title>
      <defs id="defs126815">
        <linearGradient id="l_2" gradientUnits="userSpaceOnUse" x1="16" y1="-47" x2="74" y2="-47">
          <stop offset="0" style="stop-color:#9351e5" id="stop126810" />
          <stop offset="1" style="stop-color:#ef468b" id="stop126812" />
        </linearGradient>
      </defs>
      <path fill="url(#l_2)" stroke="transparent" d="M62,-65C62,-65 28,-65 28,-65 22,-65 16,-59 16,-53 16,-53 16,-41 16,-41 16,-35 22,-29 28,-29 28,-29 62,-29 62,-29 68,-29 74,-35 74,-41 74,-41 74,-53 74,-53 74,-59 68,-65 62,-65" id="path126817" />
      <text text-anchor="middle" x="45" y="-43.3" font-family="Source Sans Pro" font-size="14.00" fill="#ffffff" id="text126819">User(s)</text>
    </g>
    <!-- USER_MPA_FW -->
    <g id="node8" class="node">
      <title id="title126822">USER_MPA_FW</title>
      <path fill="#fc4661" stroke="transparent" d="M191,-54.5C191,-54.5 131,-54.5 131,-54.5 128.5,-54.5 126,-52 126,-49.5 126,-49.5 126,-44.5 126,-44.5 126,-42 128.5,-39.5 131,-39.5 131,-39.5 191,-39.5 191,-39.5 193.5,-39.5 196,-42 196,-44.5 196,-44.5 196,-49.5 196,-49.5 196,-52 193.5,-54.5 191,-54.5" id="path126824" />
      <text text-anchor="middle" x="161" y="-43.3" font-family="Source Sans Pro" font-size="14.00" fill="#ffffff" id="text126826">-- Firewall --</text>
    </g>
    <!-- USER&#45;&gt;USER_MPA_FW -->
    <g id="edge16" class="edge">
      <title id="title126829">USER-&gt;USER_MPA_FW</title>
      <path fill="none" stroke="#323a4e" d="M74.2717,-47C86.787,-47 101.6898,-47 115.581,-47" id="path126831" />
      <polygon fill="#323a4e" stroke="#323a4e" points="125.9503,-47 115.9503,-51.5001 120.9503,-47 115.9503,-47.0001 115.9503,-47.0001 115.9503,-47.0001 120.9503,-47 115.9503,-42.5001 125.9503,-47 125.9503,-47" id="polygon126833" />
    </g>
    <!-- DEV_FW_LB -->
    <g id="node5" class="node">
      <title id="title126836">DEV_FW_LB</title>
      <path fill="#2f81f7" stroke="transparent" d="M334,-220.5C334,-220.5 237,-220.5 237,-220.5 234.5,-220.5 232,-218 232,-215.5 232,-215.5 232,-210.5 232,-210.5 232,-208 234.5,-205.5 237,-205.5 237,-205.5 334,-205.5 334,-205.5 336.5,-205.5 339,-208 339,-210.5 339,-210.5 339,-215.5 339,-215.5 339,-218 336.5,-220.5 334,-220.5" id="path126838" />
      <text text-anchor="middle" x="285.5" y="-209.3" font-family="Source Sans Pro" font-size="14.00" fill="#ffffff" id="text126840">-- Load Balancer --</text>
    </g>
    <!-- DEV_FW_FW&#45;&gt;DEV_FW_LB -->
    <g id="edge2" class="edge">
      <title id="title126843">DEV_FW_FW-&gt;DEV_FW_LB</title>
      <path fill="none" stroke="#323a4e" d="M196.0115,-213C203.9724,-213 212.6735,-213 221.4229,-213" id="path126845" />
      <polygon fill="#323a4e" stroke="#323a4e" points="231.6745,-213 221.6746,-217.5001 226.6745,-213 221.6745,-213.0001 221.6745,-213.0001 221.6745,-213.0001 226.6745,-213 221.6745,-208.5001 231.6745,-213 231.6745,-213" id="polygon126847" />
    </g>
    <!-- FW -->
    <g id="node10" class="node">
      <title id="title126850">FW</title>
      <defs id="defs126857">
        <linearGradient id="l_3" gradientUnits="userSpaceOnUse" x1="375" y1="-213" x2="446" y2="-213">
          <stop offset="0" style="stop-color:#9351e5" id="stop126852" />
          <stop offset="1" style="stop-color:#ef468b" id="stop126854" />
        </linearGradient>
      </defs>
      <path fill="url(#l_3)" stroke="transparent" d="M434,-234C434,-234 387,-234 387,-234 381,-234 375,-228 375,-222 375,-222 375,-204 375,-204 375,-198 381,-192 387,-192 387,-192 434,-192 434,-192 440,-192 446,-198 446,-204 446,-204 446,-222 446,-222 446,-228 440,-234 434,-234" id="path126859" />
      <defs id="defs126866">
        <linearGradient id="l_4" gradientUnits="userSpaceOnUse" x1="375" y1="-213" x2="446" y2="-213">
          <stop offset="0" style="stop-color:#9351e5" id="stop126861" />
          <stop offset="1" style="stop-color:#ef468b" id="stop126863" />
        </linearGradient>
      </defs>
      <polygon fill="url(#l_4)" stroke="transparent" points="375,-192 375,-234 446,-234 446,-192 375,-192" id="polygon126868" />
      <polygon fill="none" stroke="#323a4e" points="375.5,-213 375.5,-234 446.5,-234 446.5,-213 375.5,-213" id="polygon126870" />
      <text text-anchor="start" x="378.5" y="-219.8" font-family="Source Sans Pro" font-size="14.00" fill="#ffffff" id="text126872">Framework</text>
      <polygon fill="none" stroke="#323a4e" points="375.5,-192 375.5,-213 410.5,-213 410.5,-192 375.5,-192" id="polygon126874" />
      <text text-anchor="start" x="379" y="-198.8" font-family="Source Sans Pro" font-size="14.00" fill="#ffffff" id="text126876">8080</text>
      <polygon fill="none" stroke="#323a4e" points="410.5,-192 410.5,-213 446.5,-213 446.5,-192 410.5,-192" id="polygon126878" />
      <text text-anchor="start" x="414.5" y="-198.8" font-family="Source Sans Pro" font-size="14.00" fill="#ffffff" id="text126880">8443</text>
    </g>
    <!-- DEV_FW_LB&#45;&gt;FW -->
    <g id="edge3" class="edge">
      <title id="title126883">DEV_FW_LB-&gt;FW</title>
      <path fill="none" stroke="#323a4e" d="M339.2367,-213C347.7044,-213 356.3911,-213 364.6583,-213" id="path126885" />
      <polygon fill="#323a4e" stroke="#323a4e" points="374.8577,-213 364.8578,-217.5001 369.8577,-213 364.8577,-213.0001 364.8577,-213.0001 364.8577,-213.0001 369.8577,-213 364.8577,-208.5001 374.8577,-213 374.8577,-213" id="polygon126887" />
    </g>
    <!-- MM_MA_LB -->
    <g id="node7" class="node">
      <title id="title126890">MM_MA_LB</title>
      <path fill="#2f81f7" stroke="transparent" d="M690,-183.5C690,-183.5 593,-183.5 593,-183.5 590.5,-183.5 588,-181 588,-178.5 588,-178.5 588,-173.5 588,-173.5 588,-171 590.5,-168.5 593,-168.5 593,-168.5 690,-168.5 690,-168.5 692.5,-168.5 695,-171 695,-173.5 695,-173.5 695,-178.5 695,-178.5 695,-181 692.5,-183.5 690,-183.5" id="path126892" />
      <text text-anchor="middle" x="641.5" y="-172.3" font-family="Source Sans Pro" font-size="14.00" fill="#ffffff" id="text126894">-- Load Balancer --</text>
    </g>
    <!-- MM_MA_FW&#45;&gt;MM_MA_LB -->
    <g id="edge9" class="edge">
      <title id="title126897">MM_MA_FW-&gt;MM_MA_LB</title>
      <path fill="none" stroke="#323a4e" d="M552.0115,-188.9381C560.568,-187.701 569.9797,-186.3403 579.3872,-184.9802" id="path126899" />
      <polygon fill="#323a4e" stroke="#323a4e" points="589.5531,-183.5104 580.2999,-189.3951 584.6045,-184.2259 579.656,-184.9414 579.656,-184.9414 579.656,-184.9414 584.6045,-184.2259 579.012,-180.4877 589.5531,-183.5104 589.5531,-183.5104" id="polygon126901" />
    </g>
    <!-- MM -->
    <g id="node11" class="node">
      <title id="title126904">MM</title>
      <defs id="defs126911">
        <linearGradient id="l_5" gradientUnits="userSpaceOnUse" x1="731" y1="-199" x2="799" y2="-199">
          <stop offset="0" style="stop-color:#9351e5" id="stop126906" />
          <stop offset="1" style="stop-color:#ef468b" id="stop126908" />
        </linearGradient>
      </defs>
      <path fill="url(#l_5)" stroke="transparent" d="M787,-220C787,-220 743,-220 743,-220 737,-220 731,-214 731,-208 731,-208 731,-190 731,-190 731,-184 737,-178 743,-178 743,-178 787,-178 787,-178 793,-178 799,-184 799,-190 799,-190 799,-208 799,-208 799,-214 793,-220 787,-220" id="path126913" />
      <defs id="defs126920">
        <linearGradient id="l_6" gradientUnits="userSpaceOnUse" x1="731" y1="-199" x2="799" y2="-199">
          <stop offset="0" style="stop-color:#9351e5" id="stop126915" />
          <stop offset="1" style="stop-color:#ef468b" id="stop126917" />
        </linearGradient>
      </defs>
      <polygon fill="url(#l_6)" stroke="transparent" points="731,-178 731,-220 799,-220 799,-178 731,-178" id="polygon126922" />
      <polygon fill="none" stroke="#323a4e" points="731,-199 731,-220 799,-220 799,-199 731,-199" id="polygon126924" />
      <text text-anchor="start" x="737.5" y="-205.8" font-family="Source Sans Pro" font-size="14.00" fill="#ffffff" id="text126926">Master(s)</text>
      <polygon fill="none" stroke="#323a4e" points="731,-178 731,-199 765,-199 765,-178 731,-178" id="polygon126928" />
      <text text-anchor="start" x="734" y="-184.8" font-family="Source Sans Pro" font-size="14.00" fill="#ffffff" id="text126930">2181</text>
      <polygon fill="none" stroke="#323a4e" points="765,-178 765,-199 799,-199 799,-178 765,-178" id="polygon126932" />
      <text text-anchor="start" x="768" y="-184.8" font-family="Source Sans Pro" font-size="14.00" fill="#ffffff" id="text126934">5050</text>
    </g>
    <!-- MM_MA_LB&#45;&gt;MM -->
    <g id="edge10" class="edge">
      <title id="title126937">MM_MA_LB-&gt;MM</title>
      <path fill="none" stroke="#323a4e" d="M681.9385,-183.5311C694.3724,-185.8467 708.1203,-188.407 720.7931,-190.7671" id="path126939" />
      <polygon fill="#323a4e" stroke="#323a4e" points="730.6804,-192.6085 720.0255,-195.2015 725.7649,-191.693 720.8494,-190.7775 720.8494,-190.7775 720.8494,-190.7775 725.7649,-191.693 721.6734,-186.3536 730.6804,-192.6085 730.6804,-192.6085" id="polygon126941" />
    </g>
    <!-- MA -->
    <g id="node12" class="node">
      <title id="title126944">MA</title>
      <defs id="defs126951">
        <linearGradient id="l_7" gradientUnits="userSpaceOnUse" x1="966" y1="-241" x2="1065" y2="-241">
          <stop offset="0" style="stop-color:#9351e5" id="stop126946" />
          <stop offset="1" style="stop-color:#ef468b" id="stop126948" />
        </linearGradient>
      </defs>
      <path fill="url(#l_7)" stroke="transparent" d="M1053,-262C1053,-262 978,-262 978,-262 972,-262 966,-256 966,-250 966,-250 966,-232 966,-232 966,-226 972,-220 978,-220 978,-220 1053,-220 1053,-220 1059,-220 1065,-226 1065,-232 1065,-232 1065,-250 1065,-250 1065,-256 1059,-262 1053,-262" id="path126953" />
      <defs id="defs126960">
        <linearGradient id="l_8" gradientUnits="userSpaceOnUse" x1="966" y1="-241" x2="1065" y2="-241">
          <stop offset="0" style="stop-color:#9351e5" id="stop126955" />
          <stop offset="1" style="stop-color:#ef468b" id="stop126957" />
        </linearGradient>
      </defs>
      <polygon fill="url(#l_8)" stroke="transparent" points="966,-220 966,-262 1065,-262 1065,-220 966,-220" id="polygon126962" />
      <polygon fill="none" stroke="#323a4e" points="966.5,-241 966.5,-262 1065.5,-262 1065.5,-241 966.5,-241" id="polygon126964" />
      <text text-anchor="start" x="969.5" y="-247.8" font-family="Source Sans Pro" font-size="14.00" fill="#ffffff" id="text126966">Private Agent(s)</text>
      <polygon fill="none" stroke="#323a4e" points="966.5,-220 966.5,-241 1065.5,-241 1065.5,-220 966.5,-220" id="polygon126968" />
      <text text-anchor="start" x="1002" y="-226.8" font-family="Source Sans Pro" font-size="14.00" fill="#ffffff" id="text126970">5051</text>
    </g>
    <!-- MM_MA_LB&#45;&gt;MA -->
    <g id="edge11" class="edge">
      <title id="title126973">MM_MA_LB-&gt;MA</title>
      <path fill="none" stroke="#323a4e" d="M649.0002,-183.6234C663.365,-197.6206 696.4175,-226.9913 731,-238 805.5951,-261.7461 896.867,-257.2405 955.5778,-250.3624" id="path126975" />
      <polygon fill="#323a4e" stroke="#323a4e" points="965.7902,-249.1034 956.416,-254.7932 960.8278,-249.7153 955.8653,-250.3271 955.8653,-250.3271 955.8653,-250.3271 960.8278,-249.7153 955.3147,-245.8609 965.7902,-249.1034 965.7902,-249.1034" id="polygon126977" />
    </g>
    <!-- MPA -->
    <g id="node13" class="node">
      <title id="title126980">MPA</title>
      <defs id="defs126987">
        <linearGradient id="l_9" gradientUnits="userSpaceOnUse" x1="835" y1="-141" x2="930" y2="-141">
          <stop offset="0" style="stop-color:#9351e5" id="stop126982" />
          <stop offset="1" style="stop-color:#ef468b" id="stop126984" />
        </linearGradient>
      </defs>
      <path fill="url(#l_9)" stroke="transparent" d="M918,-172.5C918,-172.5 847,-172.5 847,-172.5 841,-172.5 835,-166.5 835,-160.5 835,-160.5 835,-121.5 835,-121.5 835,-115.5 841,-109.5 847,-109.5 847,-109.5 918,-109.5 918,-109.5 924,-109.5 930,-115.5 930,-121.5 930,-121.5 930,-160.5 930,-160.5 930,-166.5 924,-172.5 918,-172.5" id="path126989" />
      <defs id="defs126996">
        <linearGradient id="l_10" gradientUnits="userSpaceOnUse" x1="835" y1="-141" x2="930" y2="-141">
          <stop offset="0" style="stop-color:#9351e5" id="stop126991" />
          <stop offset="1" style="stop-color:#ef468b" id="stop126993" />
        </linearGradient>
      </defs>
      <polygon fill="url(#l_10)" stroke="transparent" points="835,-109.5 835,-172.5 930,-172.5 930,-109.5 835,-109.5" id="polygon126998" />
      <polygon fill="none" stroke="#323a4e" points="835.5,-151 835.5,-172 930.5,-172 930.5,-151 835.5,-151" id="polygon127000" />
      <text text-anchor="start" x="838.5" y="-157.8" font-family="Source Sans Pro" font-size="14.00" fill="#ffffff" id="text127002">Public Agent(s)</text>
      <polygon fill="none" stroke="#323a4e" points="835.5,-130 835.5,-151 930.5,-151 930.5,-130 835.5,-130" id="polygon127004" />
      <text text-anchor="start" x="869" y="-136.8" font-family="Source Sans Pro" font-size="14.00" fill="#ffffff" id="text127006">5051</text>
      <polygon fill="none" stroke="#323a4e" points="835.5,-109 835.5,-130 879.5,-130 879.5,-109 835.5,-109" id="polygon127008" />
      <text text-anchor="start" x="850.5" y="-115.8" font-family="Source Sans Pro" font-size="14.00" fill="#ffffff" id="text127010">80</text>
      <polygon fill="none" stroke="#323a4e" points="879.5,-109 879.5,-130 930.5,-130 930.5,-109 879.5,-109" id="polygon127012" />
      <text text-anchor="start" x="894.5" y="-115.8" font-family="Source Sans Pro" font-size="14.00" fill="#ffffff" id="text127014">443</text>
    </g>
    <!-- MM_MA_LB&#45;&gt;MPA -->
    <g id="edge12" class="edge">
      <title id="title127017">MM_MA_LB-&gt;MPA</title>
      <path fill="none" stroke="#323a4e" d="M681.0793,-168.4663C696.6137,-165.6295 714.6144,-162.4904 731,-160 761.9265,-155.2996 796.5332,-150.8953 824.8556,-147.513" id="path127019" />
      <polygon fill="#323a4e" stroke="#323a4e" points="834.9874,-146.3144 825.5853,-151.9581 830.022,-146.9019 825.0566,-147.4893 825.0566,-147.4893 825.0566,-147.4893 830.022,-146.9019 824.5279,-143.0204 834.9874,-146.3144 834.9874,-146.3144" id="polygon127021" />
    </g>
    <!-- USER_MPA_LB -->
    <g id="node9" class="node">
      <title id="title127024">USER_MPA_LB</title>
      <path fill="#2f81f7" stroke="transparent" d="M330.5,-54.5C330.5,-54.5 240.5,-54.5 240.5,-54.5 238,-54.5 235.5,-52 235.5,-49.5 235.5,-49.5 235.5,-44.5 235.5,-44.5 235.5,-42 238,-39.5 240.5,-39.5 240.5,-39.5 330.5,-39.5 330.5,-39.5 333,-39.5 335.5,-42 335.5,-44.5 335.5,-44.5 335.5,-49.5 335.5,-49.5 335.5,-52 333,-54.5 330.5,-54.5" id="path127026" />
      <text text-anchor="middle" x="285.5" y="-43.3" font-family="Source Sans Pro" font-size="14.00" fill="#ffffff" id="text127028">-- Load Blancer --</text>
    </g>
    <!-- USER_MPA_FW&#45;&gt;USER_MPA_LB -->
    <g id="edge17" class="edge">
      <title id="title127031">USER_MPA_FW-&gt;USER_MPA_LB</title>
      <path fill="none" stroke="#323a4e" d="M196.0115,-47C205.1815,-47 215.3339,-47 225.4107,-47" id="path127033" />
      <polygon fill="#323a4e" stroke="#323a4e" points="235.4231,-47 225.4231,-51.5001 230.4231,-47 225.4231,-47.0001 225.4231,-47.0001 225.4231,-47.0001 230.4231,-47 225.423,-42.5001 235.4231,-47 235.4231,-47" id="polygon127035" />
    </g>
    <!-- USER_MPA_LB&#45;&gt;MPA -->
    <g id="edge18" class="edge">
      <title id="title127038">USER_MPA_LB-&gt;MPA</title>
      <path fill="none" stroke="#323a4e" d="M335.626,-47C382.5156,-47 454.503,-47 517,-47 517,-47 517,-47 641.5,-47 708.1619,-47 778.5419,-78.6018 825.9173,-105.1588" id="path127040" />
      <polygon fill="#323a4e" stroke="#323a4e" points="834.7834,-110.2209 823.8679,-109.1705 830.4413,-107.7417 826.0991,-105.2626 826.0991,-105.2626 826.0991,-105.2626 830.4413,-107.7417 828.3304,-101.3547 834.7834,-110.2209 834.7834,-110.2209" id="polygon127042" />
    </g>
    <!-- FW&#45;&gt;MM_MA_FW -->
    <g id="edge5" class="edge">
      <title id="title127045">FW-&gt;MM_MA_FW</title>
      <path fill="none" stroke="#323a4e" d="M446.2592,-206.6204C454.5115,-205.1482 463.3942,-203.5635 471.984,-202.031" id="path127047" />
      <polygon fill="#323a4e" stroke="#323a4e" points="481.8778,-200.2659 472.8236,-206.4524 476.9555,-201.1441 472.0332,-202.0223 472.0332,-202.0223 472.0332,-202.0223 476.9555,-201.1441 471.2428,-197.5923 481.8778,-200.2659 481.8778,-200.2659" id="polygon127049" />
    </g>
    <!-- MM&#45;&gt;MM_MA_FW -->
    <g id="edge6" class="edge">
      <title id="title127052">MM-&gt;MM_MA_FW</title>
      <path fill="none" stroke="#323a4e" d="M730.7084,-201.0623C695.0298,-202.8608 637.5566,-204.7831 588,-202 579.7234,-201.5352 570.9297,-200.7679 562.4527,-199.8877" id="path127054" />
      <polygon fill="#323a4e" stroke="#323a4e" points="552.326,-198.7708 562.759,-195.3943 557.2958,-199.319 562.2657,-199.8671 562.2657,-199.8671 562.2657,-199.8671 557.2958,-199.319 561.7723,-204.34 552.326,-198.7708 552.326,-198.7708" id="polygon127056" />
    </g>
    <!-- MM&#45;&gt;MA -->
    <g id="edge13" class="edge">
      <title id="title127059">MM-&gt;MA:ma_5051</title>
      <path fill="none" stroke="#323a4e" stroke-dasharray="1,5" d="M799.3385,-207.5529C839.2467,-216.7288 907.2147,-230 966.5,-230" id="path127061" />
    </g>
    <!-- MM&#45;&gt;MPA -->
    <g id="edge14" class="edge">
      <title id="title127064">MM-&gt;MPA:mpa_5051</title>
      <path fill="none" stroke="#323a4e" stroke-dasharray="1,5" d="M778.4408,-177.6996C790.9352,-160.7998 811.2405,-140 835.5,-140" id="path127066" />
    </g>
    <!-- MA&#45;&gt;MM_MA_FW -->
    <g id="edge7" class="edge">
      <title id="title127069">MA-&gt;MM_MA_FW</title>
      <path fill="none" stroke="#323a4e" d="M965.7627,-256.7349C954.1444,-259.7507 941.734,-262.4493 930,-264 785.303,-283.1223 613.6474,-229.2388 546.2358,-205.0659" id="path127071" />
      <polygon fill="#323a4e" stroke="#323a4e" points="536.696,-201.592 547.6322,-200.7854 541.3942,-203.3029 546.0924,-205.0138 546.0924,-205.0138 546.0924,-205.0138 541.3942,-203.3029 544.5526,-209.2421 536.696,-201.592 536.696,-201.592" id="polygon127073" />
    </g>
    <!-- MPA&#45;&gt;MM_MA_FW -->
    <g id="edge8" class="edge">
      <title id="title127076">MPA-&gt;MM_MA_FW</title>
      <path fill="none" stroke="#323a4e" d="M834.7577,-134.8781C775.3783,-128.9986 671.6288,-124.4708 588,-151 568.1684,-157.2911 548.1234,-170.1627 534.4134,-180.1915" id="path127078" />
      <polygon fill="#323a4e" stroke="#323a4e" points="526.3846,-186.2737 531.6383,-176.6482 530.3701,-183.2545 534.3556,-180.2352 534.3556,-180.2352 534.3556,-180.2352 530.3701,-183.2545 537.0729,-183.8222 526.3846,-186.2737 526.3846,-186.2737" id="polygon127080" />
    </g>
    <!-- MPA&#45;&gt;MA -->
    <g id="edge15" class="edge">
      <title id="title127083">MPA-&gt;MA</title>
      <path fill="none" stroke="#323a4e" stroke-dasharray="5,2" d="M932.6879,-178.7353C948.2133,-190.4085 965.003,-203.0323 979.3796,-213.8418" id="path127085" />
      <polygon fill="#323a4e" stroke="#323a4e" points="924.582,-172.6406 935.2792,-175.0535 928.5784,-175.6455 932.5748,-178.6503 932.5748,-178.6503 932.5748,-178.6503 928.5784,-175.6455 929.8705,-182.247 924.582,-172.6406 924.582,-172.6406" id="polygon127087" />
      <polygon fill="#323a4e" stroke="#323a4e" points="987.5378,-219.9758 976.8406,-217.5629 983.5414,-216.9709 979.545,-213.9661 979.545,-213.9661 979.545,-213.9661 983.5414,-216.9709 982.2493,-210.3694 987.5378,-219.9758 987.5378,-219.9758" id="polygon127089" />
    </g>
  </g>
</svg>
