<?xml version="1.0" encoding="UTF-8" standalone="no"?>
<!-- Generated by graphviz version 2.40.1 (20161225.0304)
 -->

<!-- Title: G Pages: 1 -->

<svg xmlns:dc="http://purl.org/dc/elements/1.1/" xmlns:cc="http://creativecommons.org/ns#" xmlns:rdf="http://www.w3.org/1999/02/22-rdf-syntax-ns#" xmlns:svg="http://www.w3.org/2000/svg" xmlns="http://www.w3.org/2000/svg" xmlns:sodipodi="http://sodipodi.sourceforge.net/DTD/sodipodi-0.dtd" xmlns:inkscape="http://www.inkscape.org/namespaces/inkscape" width="388pt" height="306pt" viewBox="0.00 0.00 388.00 306.00" version="1.1" id="svg123978" sodipodi:docname="mesos-firewall-2.svg" inkscape:export-filename="/home/vishnu/tank/git/dcos-labs/secure-mesos-workshop/figures/png/mesos-firewall-2.png" inkscape:export-xdpi="384" inkscape:export-ydpi="384" inkscape:version="0.92.2 5c3e80d, 2017-08-06">
  <metadata id="metadata123984">
    <rdf:RDF>
      <cc:Work rdf:about="">
        <dc:format>image/svg+xml</dc:format>
        <dc:type rdf:resource="http://purl.org/dc/dcmitype/StillImage" />
        <dc:title></dc:title>
      </cc:Work>
    </rdf:RDF>
  </metadata>
  <defs id="defs123982" />
  <sodipodi:namedview pagecolor="#ffffff" bordercolor="#666666" borderopacity="1" objecttolerance="10" gridtolerance="10" guidetolerance="10" inkscape:pageopacity="0" inkscape:pageshadow="2" inkscape:window-width="640" inkscape:window-height="480" id="namedview123980" showgrid="false" inkscape:zoom="2.879902" inkscape:cx="258.66667" inkscape:cy="204" inkscape:current-layer="clust1" />
  <g id="graph0" class="graph" transform="scale(1 1) rotate(0) translate(4 302)">
    <title id="title123804">G</title>
    <text text-anchor="middle" x="190" y="-7.8" font-family="Source Sans Pro" font-size="14.00" fill="#323a4e" id="text123806">Securing Mesos Communications</text>
    <g id="clust1" class="cluster">
      <title id="title123808">cluster_mesos</title>
      <polygon fill="#27c97b" stroke="#27c97b" stroke-dasharray="5,2" points="8,-31 8,-290 372,-290 372,-31 8,-31" id="polygon123810" style="fill:#27c97b;fill-opacity:0.49803922" />
      <text text-anchor="middle" x="190" y="-274.8" font-family="Source Sans Pro" font-size="14.00" fill="#323a4e" id="text123812">Mesos Components</text>
    </g>
    <!-- MM_MA_FW -->
    <g id="node1" class="node">
      <title id="title123815">MM_MA_FW</title>
      <path fill="#fc4661" stroke="transparent" d="M81,-156.5C81,-156.5 21,-156.5 21,-156.5 18.5,-156.5 16,-154 16,-151.5 16,-151.5 16,-146.5 16,-146.5 16,-144 18.5,-141.5 21,-141.5 21,-141.5 81,-141.5 81,-141.5 83.5,-141.5 86,-144 86,-146.5 86,-146.5 86,-151.5 86,-151.5 86,-154 83.5,-156.5 81,-156.5" id="path123817" />
      <text text-anchor="middle" x="51" y="-145.3" font-family="Source Sans Pro" font-size="14.00" fill="#ffffff" id="text123819">-- Firewall --</text>
    </g>
    <!-- MM_MA_LB -->
    <g id="node2" class="node">
      <title id="title123822">MM_MA_LB</title>
      <path fill="#2f81f7" stroke="transparent" d="M224,-134.5C224,-134.5 127,-134.5 127,-134.5 124.5,-134.5 122,-132 122,-129.5 122,-129.5 122,-124.5 122,-124.5 122,-122 124.5,-119.5 127,-119.5 127,-119.5 224,-119.5 224,-119.5 226.5,-119.5 229,-122 229,-124.5 229,-124.5 229,-129.5 229,-129.5 229,-132 226.5,-134.5 224,-134.5" id="path123824" />
      <text text-anchor="middle" x="175.5" y="-123.3" font-family="Source Sans Pro" font-size="14.00" fill="#ffffff" id="text123826">-- Load Balancer --</text>
    </g>
    <!-- MM_MA_FW&#45;&gt;MM_MA_LB -->
    <g id="edge4" class="edge">
      <title id="title123829">MM_MA_FW-&gt;MM_MA_LB</title>
      <path fill="none" stroke="#323a4e" d="M86.0115,-142.8132C97.3617,-140.8076 110.2168,-138.536 122.5707,-136.353" id="path123831" />
      <polygon fill="#323a4e" stroke="#323a4e" points="132.7862,-134.5478 123.7218,-140.7194 127.8625,-135.4179 122.9387,-136.288 122.9387,-136.288 122.9387,-136.288 127.8625,-135.4179 122.1557,-131.8567 132.7862,-134.5478 132.7862,-134.5478" id="polygon123833" />
    </g>
    <!-- MM -->
    <g id="node3" class="node">
      <title id="title123836">MM</title>
      <defs id="defs123843">
        <linearGradient id="l_0" gradientUnits="userSpaceOnUse" x1="280.5" y1="-60" x2="348.5" y2="-60">
          <stop offset="0" style="stop-color:#9351e5" id="stop123838" />
          <stop offset="1" style="stop-color:#ef468b" id="stop123840" />
        </linearGradient>
      </defs>
      <path fill="url(#l_0)" stroke="transparent" d="M336.5,-81C336.5,-81 292.5,-81 292.5,-81 286.5,-81 280.5,-75 280.5,-69 280.5,-69 280.5,-51 280.5,-51 280.5,-45 286.5,-39 292.5,-39 292.5,-39 336.5,-39 336.5,-39 342.5,-39 348.5,-45 348.5,-51 348.5,-51 348.5,-69 348.5,-69 348.5,-75 342.5,-81 336.5,-81" id="path123845" />
      <defs id="defs123852">
        <linearGradient id="l_1" gradientUnits="userSpaceOnUse" x1="280.5" y1="-60" x2="348.5" y2="-60">
          <stop offset="0" style="stop-color:#9351e5" id="stop123847" />
          <stop offset="1" style="stop-color:#ef468b" id="stop123849" />
        </linearGradient>
      </defs>
      <polygon fill="url(#l_1)" stroke="transparent" points="280.5,-39 280.5,-81 348.5,-81 348.5,-39 280.5,-39" id="polygon123854" />
      <polygon fill="none" stroke="#323a4e" points="280.5,-60 280.5,-81 348.5,-81 348.5,-60 280.5,-60" id="polygon123856" />
      <text text-anchor="start" x="287" y="-66.8" font-family="Source Sans Pro" font-size="14.00" fill="#ffffff" id="text123858">Master(s)</text>
      <polygon fill="none" stroke="#323a4e" points="280.5,-39 280.5,-60 314.5,-60 314.5,-39 280.5,-39" id="polygon123860" />
      <text text-anchor="start" x="283.5" y="-45.8" font-family="Source Sans Pro" font-size="14.00" fill="#ffffff" id="text123862">2181</text>
      <polygon fill="none" stroke="#323a4e" points="314.5,-39 314.5,-60 348.5,-60 348.5,-39 314.5,-39" id="polygon123864" />
      <text text-anchor="start" x="317.5" y="-45.8" font-family="Source Sans Pro" font-size="14.00" fill="#ffffff" id="text123866">5050</text>
    </g>
    <!-- MM_MA_LB&#45;&gt;MM -->
    <g id="edge5" class="edge">
      <title id="title123869">MM_MA_LB-&gt;MM</title>
      <path fill="none" stroke="#323a4e" d="M191.1749,-119.4445C210.4189,-110.1686 243.8493,-94.0547 271.0529,-80.9421" id="path123871" />
      <polygon fill="#323a4e" stroke="#323a4e" points="280.3821,-76.4453 273.3279,-84.8411 275.878,-78.6164 271.3739,-80.7874 271.3739,-80.7874 271.3739,-80.7874 275.878,-78.6164 269.42,-76.7338 280.3821,-76.4453 280.3821,-76.4453" id="polygon123873" />
    </g>
    <!-- MA -->
    <g id="node4" class="node">
      <title id="title123876">MA</title>
      <defs id="defs123883">
        <linearGradient id="l_2" gradientUnits="userSpaceOnUse" x1="265" y1="-138" x2="364" y2="-138">
          <stop offset="0" style="stop-color:#9351e5" id="stop123878" />
          <stop offset="1" style="stop-color:#ef468b" id="stop123880" />
        </linearGradient>
      </defs>
      <path fill="url(#l_2)" stroke="transparent" d="M352,-159C352,-159 277,-159 277,-159 271,-159 265,-153 265,-147 265,-147 265,-129 265,-129 265,-123 271,-117 277,-117 277,-117 352,-117 352,-117 358,-117 364,-123 364,-129 364,-129 364,-147 364,-147 364,-153 358,-159 352,-159" id="path123885" />
      <defs id="defs123892">
        <linearGradient id="l_3" gradientUnits="userSpaceOnUse" x1="265" y1="-138" x2="364" y2="-138">
          <stop offset="0" style="stop-color:#9351e5" id="stop123887" />
          <stop offset="1" style="stop-color:#ef468b" id="stop123889" />
        </linearGradient>
      </defs>
      <polygon fill="url(#l_3)" stroke="transparent" points="265,-117 265,-159 364,-159 364,-117 265,-117" id="polygon123894" />
      <polygon fill="none" stroke="#323a4e" points="265.5,-138 265.5,-159 364.5,-159 364.5,-138 265.5,-138" id="polygon123896" />
      <text text-anchor="start" x="268.5" y="-144.8" font-family="Source Sans Pro" font-size="14.00" fill="#ffffff" id="text123898">Private Agent(s)</text>
      <polygon fill="none" stroke="#323a4e" points="265.5,-117 265.5,-138 364.5,-138 364.5,-117 265.5,-117" id="polygon123900" />
      <text text-anchor="start" x="301" y="-123.8" font-family="Source Sans Pro" font-size="14.00" fill="#ffffff" id="text123902">5051</text>
    </g>
    <!-- MM_MA_LB&#45;&gt;MA -->
    <g id="edge6" class="edge">
      <title id="title123905">MM_MA_LB-&gt;MA</title>
      <path fill="none" stroke="#323a4e" d="M229.241,-131.2529C237.6052,-131.9148 246.2907,-132.6021 254.7778,-133.2738" id="path123907" />
      <polygon fill="#323a4e" stroke="#323a4e" points="264.9968,-134.0825 254.6729,-137.7795 260.0124,-133.688 255.028,-133.2935 255.028,-133.2935 255.028,-133.2935 260.0124,-133.688 255.383,-128.8075 264.9968,-134.0825 264.9968,-134.0825" id="polygon123909" />
    </g>
    <!-- MPA -->
    <g id="node5" class="node">
      <title id="title123912">MPA</title>
      <defs id="defs123919">
        <linearGradient id="l_4" gradientUnits="userSpaceOnUse" x1="267" y1="-227" x2="362" y2="-227">
          <stop offset="0" style="stop-color:#9351e5" id="stop123914" />
          <stop offset="1" style="stop-color:#ef468b" id="stop123916" />
        </linearGradient>
      </defs>
      <path fill="url(#l_4)" stroke="transparent" d="M350,-258.5C350,-258.5 279,-258.5 279,-258.5 273,-258.5 267,-252.5 267,-246.5 267,-246.5 267,-207.5 267,-207.5 267,-201.5 273,-195.5 279,-195.5 279,-195.5 350,-195.5 350,-195.5 356,-195.5 362,-201.5 362,-207.5 362,-207.5 362,-246.5 362,-246.5 362,-252.5 356,-258.5 350,-258.5" id="path123921" />
      <defs id="defs123928">
        <linearGradient id="l_5" gradientUnits="userSpaceOnUse" x1="267" y1="-227" x2="362" y2="-227">
          <stop offset="0" style="stop-color:#9351e5" id="stop123923" />
          <stop offset="1" style="stop-color:#ef468b" id="stop123925" />
        </linearGradient>
      </defs>
      <polygon fill="url(#l_5)" stroke="transparent" points="267,-195.5 267,-258.5 362,-258.5 362,-195.5 267,-195.5" id="polygon123930" />
      <polygon fill="none" stroke="#323a4e" points="267.5,-237 267.5,-258 362.5,-258 362.5,-237 267.5,-237" id="polygon123932" />
      <text text-anchor="start" x="270.5" y="-243.8" font-family="Source Sans Pro" font-size="14.00" fill="#ffffff" id="text123934">Public Agent(s)</text>
      <polygon fill="none" stroke="#323a4e" points="267.5,-216 267.5,-237 362.5,-237 362.5,-216 267.5,-216" id="polygon123936" />
      <text text-anchor="start" x="301" y="-222.8" font-family="Source Sans Pro" font-size="14.00" fill="#ffffff" id="text123938">5051</text>
      <polygon fill="none" stroke="#323a4e" points="267.5,-195 267.5,-216 311.5,-216 311.5,-195 267.5,-195" id="polygon123940" />
      <text text-anchor="start" x="282.5" y="-201.8" font-family="Source Sans Pro" font-size="14.00" fill="#ffffff" id="text123942">80</text>
      <polygon fill="none" stroke="#323a4e" points="311.5,-195 311.5,-216 362.5,-216 362.5,-195 311.5,-195" id="polygon123944" />
      <text text-anchor="start" x="326.5" y="-201.8" font-family="Source Sans Pro" font-size="14.00" fill="#ffffff" id="text123946">443</text>
    </g>
    <!-- MM_MA_LB&#45;&gt;MPA -->
    <g id="edge7" class="edge">
      <title id="title123949">MM_MA_LB-&gt;MPA</title>
      <path fill="none" stroke="#323a4e" d="M185.9476,-134.5163C202.0951,-146.1331 234.1869,-169.2208 262.265,-189.4209" id="path123951" />
      <polygon fill="#323a4e" stroke="#323a4e" points="270.4435,-195.3046 259.6979,-193.1175 266.3847,-192.3846 262.3259,-189.4646 262.3259,-189.4646 262.3259,-189.4646 266.3847,-192.3846 264.9539,-185.8117 270.4435,-195.3046 270.4435,-195.3046" id="polygon123953" />
    </g>
    <!-- MM&#45;&gt;MM_MA_FW -->
    <g id="edge1" class="edge">
      <title id="title123956">MM-&gt;MM_MA_FW</title>
      <path fill="none" stroke="#323a4e" d="M280.3114,-63.5925C240.9009,-68.601 174.7777,-79.6996 122,-102 102.1173,-110.4011 81.8176,-124.509 68.0449,-135.0806" id="path123958" />
      <polygon fill="#323a4e" stroke="#323a4e" points="60.0069,-141.4214 65.071,-131.6949 63.9325,-138.3247 67.8581,-135.228 67.8581,-135.228 67.8581,-135.228 63.9325,-138.3247 70.6451,-138.761 60.0069,-141.4214 60.0069,-141.4214" id="polygon123960" />
    </g>
    <!-- MA&#45;&gt;MM_MA_FW -->
    <g id="edge2" class="edge">
      <title id="title123963">MA-&gt;MM_MA_FW</title>
      <path fill="none" stroke="#323a4e" d="M264.9601,-148.1924C253.2225,-150.1898 240.7107,-151.9805 229,-153 181.6236,-157.1243 169.5367,-154.338 122,-153 113.665,-152.7654 104.7861,-152.3762 96.2304,-151.9302" id="path123965" />
      <polygon fill="#323a4e" stroke="#323a4e" points="86.013,-151.3647 96.2465,-147.4243 91.0054,-151.6411 95.9977,-151.9174 95.9977,-151.9174 95.9977,-151.9174 91.0054,-151.6411 95.749,-156.4106 86.013,-151.3647 86.013,-151.3647" id="polygon123967" />
    </g>
    <!-- MPA&#45;&gt;MM_MA_FW -->
    <g id="edge3" class="edge">
      <title id="title123970">MPA-&gt;MM_MA_FW</title>
      <path fill="none" stroke="#323a4e" d="M266.9395,-212.9214C214.9847,-197.542 132.9721,-173.265 86.3989,-159.4786" id="path123972" />
      <polygon fill="#323a4e" stroke="#323a4e" points="76.7453,-156.621 87.6113,-155.1445 81.5396,-158.0402 86.334,-159.4595 86.334,-159.4595 86.334,-159.4595 81.5396,-158.0402 85.0567,-163.7744 76.7453,-156.621 76.7453,-156.621" id="polygon123974" />
    </g>
  </g>
</svg>
