<?xml version="1.0" encoding="UTF-8" standalone="no"?>
<!DOCTYPE svg PUBLIC "-//W3C//DTD SVG 1.1//EN"
 "http://www.w3.org/Graphics/SVG/1.1/DTD/svg11.dtd">
<!-- Generated by graphviz version 2.40.1 (20161225.0304)
 -->
<!-- Title: G Pages: 1 -->
<svg width="218pt" height="915pt"
 viewBox="0.00 0.00 218.00 915.00" xmlns="http://www.w3.org/2000/svg" xmlns:xlink="http://www.w3.org/1999/xlink">
<g id="graph0" class="graph" transform="scale(1 1) rotate(0) translate(4 911)">
<title>G</title>
<text text-anchor="middle" x="105" y="-7.8" font-family="Source Sans Pro" font-size="14.00" fill="#323a4e">Securing Mesos Communications</text>
<g id="clust2" class="cluster">
<title>cluster_user</title>
<polygon fill="#fedf57" stroke="#fedf57" stroke-dasharray="5,2" points="47,-351 47,-529 163,-529 163,-351 47,-351"/>
<text text-anchor="middle" x="105" y="-513.8" font-family="Source Sans Pro" font-size="14.00" fill="#323a4e">Service Users</text>
</g>
<g id="clust1" class="cluster">
<title>cluster_developer</title>
<polygon fill="#20d5ff" stroke="#20d5ff" stroke-dasharray="5,2" points="30.5,-87 30.5,-343 179.5,-343 179.5,-87 30.5,-87"/>
<text text-anchor="middle" x="105" y="-327.8" font-family="Source Sans Pro" font-size="14.00" fill="#323a4e">Framework Developers</text>
</g>
<g id="clust3" class="cluster">
<title>cluster_mesos</title>
<polygon fill="#27c97b" stroke="#27c97b" stroke-dasharray="5,2" points="39.5,-537 39.5,-899 170.5,-899 170.5,-537 39.5,-537"/>
<text text-anchor="middle" x="105" y="-883.8" font-family="Source Sans Pro" font-size="14.00" fill="#323a4e">Mesos Components</text>
</g>
<!-- OPS -->
<g id="node1" class="node">
<title>OPS</title>
<defs>
<linearGradient id="l_0" gradientUnits="userSpaceOnUse" x1="63.5" y1="-41" x2="146.5" y2="-41" >
<stop offset="0" style="stop-color:#9351e5;stop-opacity:1.;"/>
<stop offset="1" style="stop-color:#ef468b;stop-opacity:1.;"/>
</linearGradient>
</defs>
<path fill="url(#l_0)" stroke="#323a4e" d="M134.5,-59C134.5,-59 75.5,-59 75.5,-59 69.5,-59 63.5,-53 63.5,-47 63.5,-47 63.5,-35 63.5,-35 63.5,-29 69.5,-23 75.5,-23 75.5,-23 134.5,-23 134.5,-23 140.5,-23 146.5,-29 146.5,-35 146.5,-35 146.5,-47 146.5,-47 146.5,-53 140.5,-59 134.5,-59"/>
<text text-anchor="middle" x="105" y="-37.3" font-family="Source Sans Pro" font-size="14.00" fill="#ffffff">Operator(s)</text>
</g>
<!-- DEV -->
<g id="node2" class="node">
<title>DEV</title>
<defs>
<linearGradient id="l_1" gradientUnits="userSpaceOnUse" x1="60" y1="-294" x2="150" y2="-294" >
<stop offset="0" style="stop-color:#9351e5;stop-opacity:1.;"/>
<stop offset="1" style="stop-color:#ef468b;stop-opacity:1.;"/>
</linearGradient>
</defs>
<path fill="url(#l_1)" stroke="#323a4e" d="M138,-312C138,-312 72,-312 72,-312 66,-312 60,-306 60,-300 60,-300 60,-288 60,-288 60,-282 66,-276 72,-276 72,-276 138,-276 138,-276 144,-276 150,-282 150,-288 150,-288 150,-300 150,-300 150,-306 144,-312 138,-312"/>
<text text-anchor="middle" x="105" y="-290.3" font-family="Source Sans Pro" font-size="14.00" fill="#ffffff">Developer(s)</text>
</g>
<!-- USER -->
<g id="node3" class="node">
<title>USER</title>
<defs>
<linearGradient id="l_2" gradientUnits="userSpaceOnUse" x1="76" y1="-480" x2="134" y2="-480" >
<stop offset="0" style="stop-color:#9351e5;stop-opacity:1.;"/>
<stop offset="1" style="stop-color:#ef468b;stop-opacity:1.;"/>
</linearGradient>
</defs>
<path fill="url(#l_2)" stroke="#323a4e" d="M122,-498C122,-498 88,-498 88,-498 82,-498 76,-492 76,-486 76,-486 76,-474 76,-474 76,-468 82,-462 88,-462 88,-462 122,-462 122,-462 128,-462 134,-468 134,-474 134,-474 134,-486 134,-486 134,-492 128,-498 122,-498"/>
<text text-anchor="middle" x="105" y="-476.3" font-family="Source Sans Pro" font-size="14.00" fill="#ffffff">User(s)</text>
</g>
<!-- DEV_FW_FW -->
<g id="node4" class="node">
<title>DEV_FW_FW</title>
<path fill="#fc4661" stroke="transparent" d="M135,-239.5C135,-239.5 75,-239.5 75,-239.5 72.5,-239.5 70,-237 70,-234.5 70,-234.5 70,-229.5 70,-229.5 70,-227 72.5,-224.5 75,-224.5 75,-224.5 135,-224.5 135,-224.5 137.5,-224.5 140,-227 140,-229.5 140,-229.5 140,-234.5 140,-234.5 140,-237 137.5,-239.5 135,-239.5"/>
<text text-anchor="middle" x="105" y="-228.3" font-family="Source Sans Pro" font-size="14.00" fill="#ffffff">&#45;&#45; Firewall &#45;&#45;</text>
</g>
<!-- DEV_FW_LB -->
<g id="node5" class="node">
<title>DEV_FW_LB</title>
<path fill="#2f81f7" stroke="transparent" d="M153.5,-188.5C153.5,-188.5 56.5,-188.5 56.5,-188.5 54,-188.5 51.5,-186 51.5,-183.5 51.5,-183.5 51.5,-178.5 51.5,-178.5 51.5,-176 54,-173.5 56.5,-173.5 56.5,-173.5 153.5,-173.5 153.5,-173.5 156,-173.5 158.5,-176 158.5,-178.5 158.5,-178.5 158.5,-183.5 158.5,-183.5 158.5,-186 156,-188.5 153.5,-188.5"/>
<text text-anchor="middle" x="105" y="-177.3" font-family="Source Sans Pro" font-size="14.00" fill="#ffffff">&#45;&#45; Load Balancer &#45;&#45;</text>
</g>
<!-- MM_MA_FW -->
<g id="node6" class="node">
<title>MM_MA_FW</title>
<path fill="#fc4661" stroke="transparent" d="M135,-867.5C135,-867.5 75,-867.5 75,-867.5 72.5,-867.5 70,-865 70,-862.5 70,-862.5 70,-857.5 70,-857.5 70,-855 72.5,-852.5 75,-852.5 75,-852.5 135,-852.5 135,-852.5 137.5,-852.5 140,-855 140,-857.5 140,-857.5 140,-862.5 140,-862.5 140,-865 137.5,-867.5 135,-867.5"/>
<text text-anchor="middle" x="105" y="-856.3" font-family="Source Sans Pro" font-size="14.00" fill="#ffffff">&#45;&#45; Firewall &#45;&#45;</text>
</g>
<!-- MM_MA_LB -->
<g id="node7" class="node">
<title>MM_MA_LB</title>
<path fill="#2f81f7" stroke="transparent" d="M153.5,-816.5C153.5,-816.5 56.5,-816.5 56.5,-816.5 54,-816.5 51.5,-814 51.5,-811.5 51.5,-811.5 51.5,-806.5 51.5,-806.5 51.5,-804 54,-801.5 56.5,-801.5 56.5,-801.5 153.5,-801.5 153.5,-801.5 156,-801.5 158.5,-804 158.5,-806.5 158.5,-806.5 158.5,-811.5 158.5,-811.5 158.5,-814 156,-816.5 153.5,-816.5"/>
<text text-anchor="middle" x="105" y="-805.3" font-family="Source Sans Pro" font-size="14.00" fill="#ffffff">&#45;&#45; Load Balancer &#45;&#45;</text>
</g>
<!-- USER_MPA_FW -->
<g id="node8" class="node">
<title>USER_MPA_FW</title>
<path fill="#fc4661" stroke="transparent" d="M135,-425.5C135,-425.5 75,-425.5 75,-425.5 72.5,-425.5 70,-423 70,-420.5 70,-420.5 70,-415.5 70,-415.5 70,-413 72.5,-410.5 75,-410.5 75,-410.5 135,-410.5 135,-410.5 137.5,-410.5 140,-413 140,-415.5 140,-415.5 140,-420.5 140,-420.5 140,-423 137.5,-425.5 135,-425.5"/>
<text text-anchor="middle" x="105" y="-414.3" font-family="Source Sans Pro" font-size="14.00" fill="#ffffff">&#45;&#45; Firewall &#45;&#45;</text>
</g>
<!-- USER_MPA_LB -->
<g id="node9" class="node">
<title>USER_MPA_LB</title>
<path fill="#2f81f7" stroke="transparent" d="M150,-374.5C150,-374.5 60,-374.5 60,-374.5 57.5,-374.5 55,-372 55,-369.5 55,-369.5 55,-364.5 55,-364.5 55,-362 57.5,-359.5 60,-359.5 60,-359.5 150,-359.5 150,-359.5 152.5,-359.5 155,-362 155,-364.5 155,-364.5 155,-369.5 155,-369.5 155,-372 152.5,-374.5 150,-374.5"/>
<text text-anchor="middle" x="105" y="-363.3" font-family="Source Sans Pro" font-size="14.00" fill="#ffffff">&#45;&#45; Load Blancer &#45;&#45;</text>
</g>
<!-- FW -->
<g id="node10" class="node">
<title>FW</title>
<defs>
<linearGradient id="l_3" gradientUnits="userSpaceOnUse" x1="69.5" y1="-116" x2="140.5" y2="-116" >
<stop offset="0" style="stop-color:#9351e5;stop-opacity:1.;"/>
<stop offset="1" style="stop-color:#ef468b;stop-opacity:1.;"/>
</linearGradient>
</defs>
<path fill="url(#l_3)" stroke="transparent" d="M128.5,-137C128.5,-137 81.5,-137 81.5,-137 75.5,-137 69.5,-131 69.5,-125 69.5,-125 69.5,-107 69.5,-107 69.5,-101 75.5,-95 81.5,-95 81.5,-95 128.5,-95 128.5,-95 134.5,-95 140.5,-101 140.5,-107 140.5,-107 140.5,-125 140.5,-125 140.5,-131 134.5,-137 128.5,-137"/>
<defs>
<linearGradient id="l_4" gradientUnits="userSpaceOnUse" x1="69.5" y1="-116" x2="140.5" y2="-116" >
<stop offset="0" style="stop-color:#9351e5;stop-opacity:1.;"/>
<stop offset="1" style="stop-color:#ef468b;stop-opacity:1.;"/>
</linearGradient>
</defs>
<polygon fill="url(#l_4)" stroke="transparent" points="69.5,-95 69.5,-137 140.5,-137 140.5,-95 69.5,-95"/>
<polygon fill="none" stroke="#323a4e" points="70,-116 70,-137 141,-137 141,-116 70,-116"/>
<text text-anchor="start" x="73" y="-122.8" font-family="Source Sans Pro" font-size="14.00" fill="#ffffff">Framework</text>
<polygon fill="none" stroke="#323a4e" points="70,-95 70,-116 105,-116 105,-95 70,-95"/>
<text text-anchor="start" x="73.5" y="-101.8" font-family="Source Sans Pro" font-size="14.00" fill="#ffffff">8080</text>
<polygon fill="none" stroke="#323a4e" points="105,-95 105,-116 141,-116 141,-95 105,-95"/>
<text text-anchor="start" x="109" y="-101.8" font-family="Source Sans Pro" font-size="14.00" fill="#ffffff">8443</text>
</g>
<!-- MM -->
<g id="node11" class="node">
<title>MM</title>
<defs>
<linearGradient id="l_5" gradientUnits="userSpaceOnUse" x1="71" y1="-744" x2="139" y2="-744" >
<stop offset="0" style="stop-color:#9351e5;stop-opacity:1.;"/>
<stop offset="1" style="stop-color:#ef468b;stop-opacity:1.;"/>
</linearGradient>
</defs>
<path fill="url(#l_5)" stroke="transparent" d="M127,-765C127,-765 83,-765 83,-765 77,-765 71,-759 71,-753 71,-753 71,-735 71,-735 71,-729 77,-723 83,-723 83,-723 127,-723 127,-723 133,-723 139,-729 139,-735 139,-735 139,-753 139,-753 139,-759 133,-765 127,-765"/>
<defs>
<linearGradient id="l_6" gradientUnits="userSpaceOnUse" x1="71" y1="-744" x2="139" y2="-744" >
<stop offset="0" style="stop-color:#9351e5;stop-opacity:1.;"/>
<stop offset="1" style="stop-color:#ef468b;stop-opacity:1.;"/>
</linearGradient>
</defs>
<polygon fill="url(#l_6)" stroke="transparent" points="71,-723 71,-765 139,-765 139,-723 71,-723"/>
<polygon fill="none" stroke="#323a4e" points="71,-744 71,-765 139,-765 139,-744 71,-744"/>
<text text-anchor="start" x="77.5" y="-750.8" font-family="Source Sans Pro" font-size="14.00" fill="#ffffff">Master(s)</text>
<polygon fill="none" stroke="#323a4e" points="71,-723 71,-744 105,-744 105,-723 71,-723"/>
<text text-anchor="start" x="74" y="-729.8" font-family="Source Sans Pro" font-size="14.00" fill="#ffffff">2181</text>
<polygon fill="none" stroke="#323a4e" points="105,-723 105,-744 139,-744 139,-723 105,-723"/>
<text text-anchor="start" x="108" y="-729.8" font-family="Source Sans Pro" font-size="14.00" fill="#ffffff">5050</text>
</g>
<!-- MA -->
<g id="node12" class="node">
<title>MA</title>
<defs>
<linearGradient id="l_7" gradientUnits="userSpaceOnUse" x1="55.5" y1="-666" x2="154.5" y2="-666" >
<stop offset="0" style="stop-color:#9351e5;stop-opacity:1.;"/>
<stop offset="1" style="stop-color:#ef468b;stop-opacity:1.;"/>
</linearGradient>
</defs>
<path fill="url(#l_7)" stroke="transparent" d="M142.5,-687C142.5,-687 67.5,-687 67.5,-687 61.5,-687 55.5,-681 55.5,-675 55.5,-675 55.5,-657 55.5,-657 55.5,-651 61.5,-645 67.5,-645 67.5,-645 142.5,-645 142.5,-645 148.5,-645 154.5,-651 154.5,-657 154.5,-657 154.5,-675 154.5,-675 154.5,-681 148.5,-687 142.5,-687"/>
<defs>
<linearGradient id="l_8" gradientUnits="userSpaceOnUse" x1="55.5" y1="-666" x2="154.5" y2="-666" >
<stop offset="0" style="stop-color:#9351e5;stop-opacity:1.;"/>
<stop offset="1" style="stop-color:#ef468b;stop-opacity:1.;"/>
</linearGradient>
</defs>
<polygon fill="url(#l_8)" stroke="transparent" points="55.5,-645 55.5,-687 154.5,-687 154.5,-645 55.5,-645"/>
<polygon fill="none" stroke="#323a4e" points="56,-666 56,-687 155,-687 155,-666 56,-666"/>
<text text-anchor="start" x="59" y="-672.8" font-family="Source Sans Pro" font-size="14.00" fill="#ffffff">Private Agent(s)</text>
<polygon fill="none" stroke="#323a4e" points="56,-645 56,-666 155,-666 155,-645 56,-645"/>
<text text-anchor="start" x="91.5" y="-651.8" font-family="Source Sans Pro" font-size="14.00" fill="#ffffff">5051</text>
</g>
<!-- MPA -->
<g id="node13" class="node">
<title>MPA</title>
<defs>
<linearGradient id="l_9" gradientUnits="userSpaceOnUse" x1="57.5" y1="-577" x2="152.5" y2="-577" >
<stop offset="0" style="stop-color:#9351e5;stop-opacity:1.;"/>
<stop offset="1" style="stop-color:#ef468b;stop-opacity:1.;"/>
</linearGradient>
</defs>
<path fill="url(#l_9)" stroke="transparent" d="M140.5,-608.5C140.5,-608.5 69.5,-608.5 69.5,-608.5 63.5,-608.5 57.5,-602.5 57.5,-596.5 57.5,-596.5 57.5,-557.5 57.5,-557.5 57.5,-551.5 63.5,-545.5 69.5,-545.5 69.5,-545.5 140.5,-545.5 140.5,-545.5 146.5,-545.5 152.5,-551.5 152.5,-557.5 152.5,-557.5 152.5,-596.5 152.5,-596.5 152.5,-602.5 146.5,-608.5 140.5,-608.5"/>
<defs>
<linearGradient id="l_10" gradientUnits="userSpaceOnUse" x1="57.5" y1="-577" x2="152.5" y2="-577" >
<stop offset="0" style="stop-color:#9351e5;stop-opacity:1.;"/>
<stop offset="1" style="stop-color:#ef468b;stop-opacity:1.;"/>
</linearGradient>
</defs>
<polygon fill="url(#l_10)" stroke="transparent" points="57.5,-545.5 57.5,-608.5 152.5,-608.5 152.5,-545.5 57.5,-545.5"/>
<polygon fill="none" stroke="#323a4e" points="58,-587 58,-608 153,-608 153,-587 58,-587"/>
<text text-anchor="start" x="61" y="-593.8" font-family="Source Sans Pro" font-size="14.00" fill="#ffffff">Public Agent(s)</text>
<polygon fill="none" stroke="#323a4e" points="58,-566 58,-587 153,-587 153,-566 58,-566"/>
<text text-anchor="start" x="91.5" y="-572.8" font-family="Source Sans Pro" font-size="14.00" fill="#ffffff">5051</text>
<polygon fill="none" stroke="#323a4e" points="58,-545 58,-566 102,-566 102,-545 58,-545"/>
<text text-anchor="start" x="73" y="-551.8" font-family="Source Sans Pro" font-size="14.00" fill="#ffffff">80</text>
<polygon fill="none" stroke="#323a4e" points="102,-545 102,-566 153,-566 153,-545 102,-545"/>
<text text-anchor="start" x="117" y="-551.8" font-family="Source Sans Pro" font-size="14.00" fill="#ffffff">443</text>
</g>
</g>
</svg>
