<?xml version="1.0" encoding="UTF-8" standalone="no"?>
<!DOCTYPE svg PUBLIC "-//W3C//DTD SVG 1.1//EN"
 "http://www.w3.org/Graphics/SVG/1.1/DTD/svg11.dtd">
<!-- Generated by graphviz version 2.40.1 (20161225.0304)
 -->
<!-- Title: G Pages: 1 -->
<svg width="732pt" height="529pt"
 viewBox="0.00 0.00 732.00 529.00" xmlns="http://www.w3.org/2000/svg" xmlns:xlink="http://www.w3.org/1999/xlink">
<g id="graph0" class="graph" transform="scale(1 1) rotate(0) translate(4 525)">
<title>G</title>
<text text-anchor="middle" x="362" y="-7.8" font-family="Source Sans Pro" font-size="14.00" fill="#323a4e">Organization::Secrets Namespace Access Mapping</text>
<!-- ROOT -->
<g id="node1" class="node">
<title>ROOT</title>
<defs>
<linearGradient id="l_0" gradientUnits="userSpaceOnUse" x1="324" y1="-503" x2="378" y2="-503" >
<stop offset="0" style="stop-color:#9351e5;stop-opacity:1.;"/>
<stop offset="1" style="stop-color:#ef468b;stop-opacity:1.;"/>
</linearGradient>
</defs>
<path fill="url(#l_0)" stroke="transparent" d="M366,-521C366,-521 336,-521 336,-521 330,-521 324,-515 324,-509 324,-509 324,-497 324,-497 324,-491 330,-485 336,-485 336,-485 366,-485 366,-485 372,-485 378,-491 378,-497 378,-497 378,-509 378,-509 378,-515 372,-521 366,-521"/>
<text text-anchor="middle" x="351" y="-499.3" font-family="Source Sans Pro" font-size="14.00" fill="#ffffff">/</text>
</g>
<!-- DEV -->
<g id="node2" class="node">
<title>DEV</title>
<polygon fill="#fc4661" stroke="#fc4661" stroke-dasharray="1,5" points="276,-449 222,-449 222,-413 276,-413 276,-449"/>
<text text-anchor="middle" x="249" y="-427.3" font-family="Source Sans Pro" font-size="14.00" fill="#ffffff">/dev</text>
</g>
<!-- ROOT&#45;&gt;DEV -->
<g id="edge1" class="edge">
<title>ROOT&#45;&gt;DEV</title>
<path fill="none" stroke="#323a4e" d="M325.2611,-484.8314C312.4563,-475.7927 296.8091,-464.7476 283.0281,-455.0198"/>
<polygon fill="#323a4e" stroke="#323a4e" points="274.7307,-449.1628 285.4955,-451.2533 278.8155,-452.0463 282.9004,-454.9297 282.9004,-454.9297 282.9004,-454.9297 278.8155,-452.0463 280.3053,-458.6061 274.7307,-449.1628 274.7307,-449.1628"/>
</g>
<!-- TEST -->
<g id="node3" class="node">
<title>TEST</title>
<polygon fill="#2f81f7" stroke="#2f81f7" stroke-dasharray="1,5" points="378,-449 324,-449 324,-413 378,-413 378,-449"/>
<text text-anchor="middle" x="351" y="-427.3" font-family="Source Sans Pro" font-size="14.00" fill="#ffffff">/test</text>
</g>
<!-- ROOT&#45;&gt;TEST -->
<g id="edge2" class="edge">
<title>ROOT&#45;&gt;TEST</title>
<path fill="none" stroke="#323a4e" d="M351,-484.8314C351,-477.131 351,-467.9743 351,-459.4166"/>
<polygon fill="#323a4e" stroke="#323a4e" points="351,-449.4133 355.5001,-459.4132 351,-454.4133 351.0001,-459.4133 351.0001,-459.4133 351.0001,-459.4133 351,-454.4133 346.5001,-459.4133 351,-449.4133 351,-449.4133"/>
</g>
<!-- PROD -->
<g id="node4" class="node">
<title>PROD</title>
<polygon fill="#27c97b" stroke="#27c97b" stroke-dasharray="1,5" points="481,-449 427,-449 427,-413 481,-413 481,-449"/>
<text text-anchor="middle" x="454" y="-427.3" font-family="Source Sans Pro" font-size="14.00" fill="#ffffff">/prod</text>
</g>
<!-- ROOT&#45;&gt;PROD -->
<g id="edge3" class="edge">
<title>ROOT&#45;&gt;PROD</title>
<path fill="none" stroke="#323a4e" d="M376.9912,-484.8314C389.9216,-475.7927 405.7222,-464.7476 419.6383,-455.0198"/>
<polygon fill="#323a4e" stroke="#323a4e" points="428.0171,-449.1628 422.3992,-458.5804 423.919,-452.0275 419.821,-454.8922 419.821,-454.8922 419.821,-454.8922 423.919,-452.0275 417.2428,-451.2039 428.0171,-449.1628 428.0171,-449.1628"/>
</g>
<!-- DEV_SALES -->
<g id="node5" class="node">
<title>DEV_SALES</title>
<polygon fill="#fc4661" stroke="#fc4661" points="248.5,-377 171.5,-377 171.5,-341 248.5,-341 248.5,-377"/>
<text text-anchor="middle" x="210" y="-355.3" font-family="Source Sans Pro" font-size="14.00" fill="#ffffff">/dev/sales</text>
</g>
<!-- DEV&#45;&gt;DEV_SALES -->
<g id="edge4" class="edge">
<title>DEV&#45;&gt;DEV_SALES</title>
<path fill="none" stroke="#323a4e" d="M239.1587,-412.8314C234.8043,-404.7925 229.5902,-395.1666 224.7831,-386.2918"/>
<polygon fill="#323a4e" stroke="#323a4e" points="219.9739,-377.4133 228.6936,-384.0629 222.3553,-381.8097 224.7367,-386.2062 224.7367,-386.2062 224.7367,-386.2062 222.3553,-381.8097 220.7799,-388.3495 219.9739,-377.4133 219.9739,-377.4133"/>
</g>
<!-- TEST_SALES -->
<g id="node6" class="node">
<title>TEST_SALES</title>
<polygon fill="#2f81f7" stroke="#2f81f7" points="390,-377 312,-377 312,-341 390,-341 390,-377"/>
<text text-anchor="middle" x="351" y="-355.3" font-family="Source Sans Pro" font-size="14.00" fill="#ffffff">/test/sales</text>
</g>
<!-- TEST&#45;&gt;TEST_SALES -->
<g id="edge6" class="edge">
<title>TEST&#45;&gt;TEST_SALES</title>
<path fill="none" stroke="#323a4e" d="M351,-412.8314C351,-405.131 351,-395.9743 351,-387.4166"/>
<polygon fill="#323a4e" stroke="#323a4e" points="351,-377.4133 355.5001,-387.4132 351,-382.4133 351.0001,-387.4133 351.0001,-387.4133 351.0001,-387.4133 351,-382.4133 346.5001,-387.4133 351,-377.4133 351,-377.4133"/>
</g>
<!-- PROD_SALES -->
<g id="node7" class="node">
<title>PROD_SALES</title>
<polygon fill="#27c97b" stroke="#27c97b" points="576.5,-377 493.5,-377 493.5,-341 576.5,-341 576.5,-377"/>
<text text-anchor="middle" x="535" y="-355.3" font-family="Source Sans Pro" font-size="14.00" fill="#ffffff">/prod/sales</text>
</g>
<!-- PROD&#45;&gt;PROD_SALES -->
<g id="edge8" class="edge">
<title>PROD&#45;&gt;PROD_SALES</title>
<path fill="none" stroke="#323a4e" d="M474.4397,-412.8314C484.3205,-404.0485 496.3324,-393.3712 507.045,-383.8489"/>
<polygon fill="#323a4e" stroke="#323a4e" points="514.5668,-377.1628 510.0824,-387.1699 510.8298,-380.4847 507.0927,-383.8065 507.0927,-383.8065 507.0927,-383.8065 510.8298,-380.4847 504.103,-380.4431 514.5668,-377.1628 514.5668,-377.1628"/>
</g>
<!-- DEV_SALES_APP -->
<g id="node8" class="node">
<title>DEV_SALES_APP</title>
<path fill="#fc4661" stroke="transparent" d="M188,-305C188,-305 110,-305 110,-305 107.5,-305 105,-302.5 105,-300 105,-300 105,-295 105,-295 105,-292.5 107.5,-290 110,-290 110,-290 188,-290 188,-290 190.5,-290 193,-292.5 193,-295 193,-295 193,-300 193,-300 193,-302.5 190.5,-305 188,-305"/>
<text text-anchor="middle" x="149" y="-293.8" font-family="Source Sans Pro" font-size="14.00" fill="#ffffff">/dev/sales/app</text>
</g>
<!-- DEV_SALES&#45;&gt;DEV_SALES_APP -->
<g id="edge5" class="edge">
<title>DEV_SALES&#45;&gt;DEV_SALES_APP</title>
<path fill="none" stroke="#323a4e" d="M192.0279,-340.8806C182.9872,-331.7658 172.1691,-320.859 163.6419,-312.2619"/>
<polygon fill="#323a4e" stroke="#323a4e" points="156.5716,-305.1337 166.8088,-309.0646 160.0927,-308.6837 163.6138,-312.2336 163.6138,-312.2336 163.6138,-312.2336 160.0927,-308.6837 160.4189,-315.4026 156.5716,-305.1337 156.5716,-305.1337"/>
</g>
<!-- TEST_SALES_APP -->
<g id="node9" class="node">
<title>TEST_SALES_APP</title>
<path fill="#2f81f7" stroke="transparent" d="M390.5,-305C390.5,-305 311.5,-305 311.5,-305 309,-305 306.5,-302.5 306.5,-300 306.5,-300 306.5,-295 306.5,-295 306.5,-292.5 309,-290 311.5,-290 311.5,-290 390.5,-290 390.5,-290 393,-290 395.5,-292.5 395.5,-295 395.5,-295 395.5,-300 395.5,-300 395.5,-302.5 393,-305 390.5,-305"/>
<text text-anchor="middle" x="351" y="-293.8" font-family="Source Sans Pro" font-size="14.00" fill="#ffffff">/test/sales/app</text>
</g>
<!-- TEST_SALES&#45;&gt;TEST_SALES_APP -->
<g id="edge7" class="edge">
<title>TEST_SALES&#45;&gt;TEST_SALES_APP</title>
<path fill="none" stroke="#323a4e" d="M351,-340.8806C351,-332.7889 351,-323.2849 351,-315.2384"/>
<polygon fill="#323a4e" stroke="#323a4e" points="351,-305.1337 355.5001,-315.1337 351,-310.1337 351.0001,-315.1337 351.0001,-315.1337 351.0001,-315.1337 351,-310.1337 346.5001,-315.1337 351,-305.1337 351,-305.1337"/>
</g>
<!-- PROD_SALES_APP -->
<g id="node10" class="node">
<title>PROD_SALES_APP</title>
<path fill="#27c97b" stroke="transparent" d="M611,-305C611,-305 527,-305 527,-305 524.5,-305 522,-302.5 522,-300 522,-300 522,-295 522,-295 522,-292.5 524.5,-290 527,-290 527,-290 611,-290 611,-290 613.5,-290 616,-292.5 616,-295 616,-295 616,-300 616,-300 616,-302.5 613.5,-305 611,-305"/>
<text text-anchor="middle" x="569" y="-293.8" font-family="Source Sans Pro" font-size="14.00" fill="#ffffff">/prod/sales/app</text>
</g>
<!-- PROD_SALES&#45;&gt;PROD_SALES_APP -->
<g id="edge9" class="edge">
<title>PROD_SALES&#45;&gt;PROD_SALES_APP</title>
<path fill="none" stroke="#323a4e" d="M545.0172,-340.8806C549.6964,-332.4169 555.2297,-322.408 559.8017,-314.138"/>
<polygon fill="#323a4e" stroke="#323a4e" points="564.7797,-305.1337 563.8796,-316.0626 562.3606,-309.5095 559.9414,-313.8853 559.9414,-313.8853 559.9414,-313.8853 562.3606,-309.5095 556.0032,-311.7081 564.7797,-305.1337 564.7797,-305.1337"/>
</g>
<!-- ROOT_SECRET -->
<g id="node11" class="node">
<title>ROOT_SECRET</title>
<defs>
<linearGradient id="l_1" gradientUnits="userSpaceOnUse" x1="446.5" y1="-236" x2="513.5" y2="-236" >
<stop offset="0" style="stop-color:#9351e5;stop-opacity:1.;"/>
<stop offset="1" style="stop-color:#ef468b;stop-opacity:1.;"/>
</linearGradient>
</defs>
<path fill="url(#l_1)" stroke="transparent" d="M501.5,-254C501.5,-254 458.5,-254 458.5,-254 452.5,-254 446.5,-248 446.5,-242 446.5,-242 446.5,-230 446.5,-230 446.5,-224 452.5,-218 458.5,-218 458.5,-218 501.5,-218 501.5,-218 507.5,-218 513.5,-224 513.5,-230 513.5,-230 513.5,-242 513.5,-242 513.5,-248 507.5,-254 501.5,-254"/>
<text text-anchor="middle" x="480" y="-232.3" font-family="Source Sans Pro" font-size="14.00" fill="#ffffff">secret(?)</text>
</g>
<!-- DEV_SALES_APP&#45;&gt;ROOT_SECRET -->
<g id="edge23" class="edge">
<title>DEV_SALES_APP&#45;&gt;ROOT_SECRET</title>
<path fill="none" stroke="#323a4e" stroke-dasharray="5,2" d="M189.5871,-289.9589C252.183,-278.3285 371.7756,-256.1082 436.2388,-244.1309"/>
<polygon fill="#323a4e" stroke="#323a4e" points="446.0942,-242.2997 437.0845,-248.5508 441.1783,-243.2131 436.2624,-244.1265 436.2624,-244.1265 436.2624,-244.1265 441.1783,-243.2131 435.4404,-239.7023 446.0942,-242.2997 446.0942,-242.2997"/>
</g>
<!-- DEV_SECRET -->
<g id="node12" class="node">
<title>DEV_SECRET</title>
<polygon fill="#fc4661" stroke="#fc4661" stroke-dasharray="1,5" points="188,-182 110,-182 110,-146 188,-146 188,-182"/>
<text text-anchor="middle" x="149" y="-160.3" font-family="Source Sans Pro" font-size="14.00" fill="#ffffff">dev/secret</text>
</g>
<!-- DEV_SALES_APP&#45;&gt;DEV_SECRET -->
<g id="edge24" class="edge">
<title>DEV_SALES_APP&#45;&gt;DEV_SECRET</title>
<path fill="none" stroke="#323a4e" stroke-dasharray="5,2" d="M149,-289.94C149,-271.4865 149,-223.3768 149,-192.2463"/>
<polygon fill="#323a4e" stroke="#323a4e" points="149,-182.0196 153.5001,-192.0195 149,-187.0196 149.0001,-192.0196 149.0001,-192.0196 149.0001,-192.0196 149,-187.0196 144.5001,-192.0196 149,-182.0196 149,-182.0196"/>
</g>
<!-- DEV_SALES_SECRET -->
<g id="node15" class="node">
<title>DEV_SALES_SECRET</title>
<polygon fill="#fc4661" stroke="#fc4661" points="149.5,-110 36.5,-110 36.5,-74 149.5,-74 149.5,-110"/>
<text text-anchor="middle" x="93" y="-88.3" font-family="Source Sans Pro" font-size="14.00" fill="#ffffff">dev/sales/secret</text>
</g>
<!-- DEV_SALES_APP&#45;&gt;DEV_SALES_SECRET -->
<g id="edge25" class="edge">
<title>DEV_SALES_APP&#45;&gt;DEV_SALES_SECRET</title>
<path fill="none" stroke="#323a4e" stroke-dasharray="5,2" d="M143.6517,-289.8581C131.527,-272.0097 102.2124,-225.77 92,-182 87.2734,-161.742 87.7331,-138.2153 89.2633,-120.2976"/>
<polygon fill="#323a4e" stroke="#323a4e" points="90.287,-110.2049 93.7548,-120.608 89.7824,-115.1794 89.2778,-120.1539 89.2778,-120.1539 89.2778,-120.1539 89.7824,-115.1794 84.8007,-119.6997 90.287,-110.2049 90.287,-110.2049"/>
</g>
<!-- DEV_SALES_APP_SECRET -->
<g id="node18" class="node">
<title>DEV_SALES_APP_SECRET</title>
<path fill="#fc4661" stroke="transparent" d="M119,-38C119,-38 5,-38 5,-38 2.5,-38 0,-35.5 0,-33 0,-33 0,-28 0,-28 0,-25.5 2.5,-23 5,-23 5,-23 119,-23 119,-23 121.5,-23 124,-25.5 124,-28 124,-28 124,-33 124,-33 124,-35.5 121.5,-38 119,-38"/>
<text text-anchor="middle" x="62" y="-26.8" font-family="Source Sans Pro" font-size="14.00" fill="#ffffff">dev/sales/app/secret</text>
</g>
<!-- DEV_SALES_APP&#45;&gt;DEV_SALES_APP_SECRET -->
<g id="edge26" class="edge">
<title>DEV_SALES_APP&#45;&gt;DEV_SALES_APP_SECRET</title>
<path fill="none" stroke="#323a4e" stroke-dasharray="5,2" d="M137.3449,-289.9334C125.7955,-282.0093 108.1231,-268.6895 96,-254 49.6705,-197.8631 35.8813,-180.5552 18,-110 14.0693,-94.4903 11.8349,-88.7645 18,-74 22.9436,-62.1609 32.8518,-51.9003 42.0161,-44.3222"/>
<polygon fill="#323a4e" stroke="#323a4e" points="50.0594,-38.1486 44.8666,-47.8071 46.093,-41.193 42.1267,-44.2374 42.1267,-44.2374 42.1267,-44.2374 46.093,-41.193 39.3867,-40.6676 50.0594,-38.1486 50.0594,-38.1486"/>
</g>
<!-- TEST_SALES_APP&#45;&gt;ROOT_SECRET -->
<g id="edge27" class="edge">
<title>TEST_SALES_APP&#45;&gt;ROOT_SECRET</title>
<path fill="none" stroke="#323a4e" stroke-dasharray="5,2" d="M366.8179,-289.9589C384.2205,-281.6623 412.9269,-267.9767 437.074,-256.4647"/>
<polygon fill="#323a4e" stroke="#323a4e" points="446.412,-252.0129 439.3219,-260.3784 441.8987,-254.1646 437.3853,-256.3164 437.3853,-256.3164 437.3853,-256.3164 441.8987,-254.1646 435.4488,-252.2543 446.412,-252.0129 446.412,-252.0129"/>
</g>
<!-- TEST_SECRET -->
<g id="node13" class="node">
<title>TEST_SECRET</title>
<polygon fill="#2f81f7" stroke="#2f81f7" stroke-dasharray="1,5" points="451.5,-182 372.5,-182 372.5,-146 451.5,-146 451.5,-182"/>
<text text-anchor="middle" x="412" y="-160.3" font-family="Source Sans Pro" font-size="14.00" fill="#ffffff">test/secret</text>
</g>
<!-- TEST_SALES_APP&#45;&gt;TEST_SECRET -->
<g id="edge28" class="edge">
<title>TEST_SALES_APP&#45;&gt;TEST_SECRET</title>
<path fill="none" stroke="#323a4e" stroke-dasharray="5,2" d="M354.4544,-289.94C362.96,-271.3253 385.254,-222.5342 399.4644,-191.4345"/>
<polygon fill="#323a4e" stroke="#323a4e" points="403.7663,-182.0196 403.7033,-192.9853 401.6883,-186.5673 399.6103,-191.1151 399.6103,-191.1151 399.6103,-191.1151 401.6883,-186.5673 395.5173,-189.2448 403.7663,-182.0196 403.7663,-182.0196"/>
</g>
<!-- TEST_SALES_SECRET -->
<g id="node16" class="node">
<title>TEST_SALES_SECRET</title>
<polygon fill="#2f81f7" stroke="#2f81f7" points="411.5,-110 298.5,-110 298.5,-74 411.5,-74 411.5,-110"/>
<text text-anchor="middle" x="355" y="-88.3" font-family="Source Sans Pro" font-size="14.00" fill="#ffffff">test/sales/secret</text>
</g>
<!-- TEST_SALES_APP&#45;&gt;TEST_SALES_SECRET -->
<g id="edge29" class="edge">
<title>TEST_SALES_APP&#45;&gt;TEST_SALES_SECRET</title>
<path fill="none" stroke="#323a4e" stroke-dasharray="5,2" d="M351.1519,-289.6951C351.6894,-262.0804 353.5187,-168.103 354.4482,-120.3494"/>
<polygon fill="#323a4e" stroke="#323a4e" points="354.648,-110.0847 358.9524,-120.1705 354.5506,-115.0838 354.4533,-120.0828 354.4533,-120.0828 354.4533,-120.0828 354.5506,-115.0838 349.9541,-119.9952 354.648,-110.0847 354.648,-110.0847"/>
</g>
<!-- TEST_SALES_APP_SECRET -->
<g id="node19" class="node">
<title>TEST_SALES_APP_SECRET</title>
<path fill="#2f81f7" stroke="transparent" d="M330,-38C330,-38 216,-38 216,-38 213.5,-38 211,-35.5 211,-33 211,-33 211,-28 211,-28 211,-25.5 213.5,-23 216,-23 216,-23 330,-23 330,-23 332.5,-23 335,-25.5 335,-28 335,-28 335,-33 335,-33 335,-35.5 332.5,-38 330,-38"/>
<text text-anchor="middle" x="273" y="-26.8" font-family="Source Sans Pro" font-size="14.00" fill="#ffffff">test/sales/app/secret</text>
</g>
<!-- TEST_SALES_APP&#45;&gt;TEST_SALES_APP_SECRET -->
<g id="edge30" class="edge">
<title>TEST_SALES_APP&#45;&gt;TEST_SALES_APP_SECRET</title>
<path fill="none" stroke="#323a4e" stroke-dasharray="5,2" d="M347.2352,-289.8789C335.0649,-264.8494 296.6118,-182.6126 280,-110 275.2261,-89.1324 273.6648,-64.4963 273.1772,-48.241"/>
<polygon fill="#323a4e" stroke="#323a4e" points="272.9814,-38.0595 277.673,-47.9711 273.0776,-43.0586 273.1738,-48.0577 273.1738,-48.0577 273.1738,-48.0577 273.0776,-43.0586 268.6746,-48.1443 272.9814,-38.0595 272.9814,-38.0595"/>
</g>
<!-- PROD_SALES_APP&#45;&gt;ROOT_SECRET -->
<g id="edge19" class="edge">
<title>PROD_SALES_APP&#45;&gt;ROOT_SECRET</title>
<path fill="none" stroke="#323a4e" stroke-dasharray="5,2" d="M558.0869,-289.9589C547.2775,-282.4895 530.1469,-270.6521 514.6815,-259.9653"/>
<polygon fill="#323a4e" stroke="#323a4e" points="506.3116,-254.1816 517.0968,-256.1645 510.4251,-257.0241 514.5386,-259.8666 514.5386,-259.8666 514.5386,-259.8666 510.4251,-257.0241 511.9804,-263.5687 506.3116,-254.1816 506.3116,-254.1816"/>
</g>
<!-- PROD_SECRET -->
<g id="node14" class="node">
<title>PROD_SECRET</title>
<polygon fill="#27c97b" stroke="#27c97b" stroke-dasharray="1,5" points="588,-182 504,-182 504,-146 588,-146 588,-182"/>
<text text-anchor="middle" x="546" y="-160.3" font-family="Source Sans Pro" font-size="14.00" fill="#ffffff">prod/secret</text>
</g>
<!-- PROD_SALES_APP&#45;&gt;PROD_SECRET -->
<g id="edge20" class="edge">
<title>PROD_SALES_APP&#45;&gt;PROD_SECRET</title>
<path fill="none" stroke="#323a4e" stroke-dasharray="5,2" d="M567.6975,-289.94C564.5183,-271.4865 556.2297,-223.3768 550.8664,-192.2463"/>
<polygon fill="#323a4e" stroke="#323a4e" points="549.1045,-182.0196 555.2371,-191.1103 549.9535,-186.947 550.8024,-191.8744 550.8024,-191.8744 550.8024,-191.8744 549.9535,-186.947 546.3677,-192.6385 549.1045,-182.0196 549.1045,-182.0196"/>
</g>
<!-- PROD_SALES_SECRET -->
<g id="node17" class="node">
<title>PROD_SALES_SECRET</title>
<polygon fill="#27c97b" stroke="#27c97b" points="661.5,-110 542.5,-110 542.5,-74 661.5,-74 661.5,-110"/>
<text text-anchor="middle" x="602" y="-88.3" font-family="Source Sans Pro" font-size="14.00" fill="#ffffff">prod/sales/secret</text>
</g>
<!-- PROD_SALES_APP&#45;&gt;PROD_SALES_SECRET -->
<g id="edge21" class="edge">
<title>PROD_SALES_APP&#45;&gt;PROD_SALES_SECRET</title>
<path fill="none" stroke="#323a4e" stroke-dasharray="5,2" d="M572.2478,-289.8856C575.8592,-281.2688 581.7436,-266.7691 586,-254 596.5024,-222.4927 601.5145,-214.9073 606,-182 608.161,-166.1466 606.5914,-161.9891 606,-146 605.6956,-137.7697 605.1311,-128.8483 604.5201,-120.6727"/>
<polygon fill="#323a4e" stroke="#323a4e" points="603.7082,-110.4756 608.9878,-120.0868 604.1051,-115.4598 604.502,-120.444 604.502,-120.444 604.502,-120.444 604.1051,-115.4598 600.0162,-120.8013 603.7082,-110.4756 603.7082,-110.4756"/>
</g>
<!-- PROD_SALES_APP_SECRET -->
<g id="node20" class="node">
<title>PROD_SALES_APP_SECRET</title>
<path fill="#27c97b" stroke="transparent" d="M719,-38C719,-38 599,-38 599,-38 596.5,-38 594,-35.5 594,-33 594,-33 594,-28 594,-28 594,-25.5 596.5,-23 599,-23 599,-23 719,-23 719,-23 721.5,-23 724,-25.5 724,-28 724,-28 724,-33 724,-33 724,-35.5 721.5,-38 719,-38"/>
<text text-anchor="middle" x="659" y="-26.8" font-family="Source Sans Pro" font-size="14.00" fill="#ffffff">prod/sales/app/secret</text>
</g>
<!-- PROD_SALES_APP&#45;&gt;PROD_SALES_APP_SECRET -->
<g id="edge22" class="edge">
<title>PROD_SALES_APP&#45;&gt;PROD_SALES_APP_SECRET</title>
<path fill="none" stroke="#323a4e" stroke-dasharray="5,2" d="M580.9389,-289.7898C592.2827,-281.9477 609.1718,-268.8607 620,-254 660.8302,-197.9643 666.4026,-177.9869 680,-110 683.1379,-94.3107 683.5678,-89.5971 680,-74 677.8437,-64.5733 673.3691,-54.813 669.1023,-46.9322"/>
<polygon fill="#323a4e" stroke="#323a4e" points="663.9989,-38.1217 672.9051,-44.5193 666.505,-42.4482 669.0112,-46.7748 669.0112,-46.7748 669.0112,-46.7748 666.505,-42.4482 665.1173,-49.0304 663.9989,-38.1217 663.9989,-38.1217"/>
</g>
<!-- ROOT_SECRET&#45;&gt;DEV_SECRET -->
<g id="edge10" class="edge">
<title>ROOT_SECRET&#45;&gt;DEV_SECRET</title>
<path fill="none" stroke="#323a4e" d="M446.4404,-228.7C387.8167,-215.948 266.5165,-189.5625 198.3203,-174.7283"/>
<polygon fill="#323a4e" stroke="#323a4e" points="188.2532,-172.5385 198.9813,-170.2669 193.139,-173.6013 198.0247,-174.6641 198.0247,-174.6641 198.0247,-174.6641 193.139,-173.6013 197.0682,-179.0612 188.2532,-172.5385 188.2532,-172.5385"/>
</g>
<!-- ROOT_SECRET&#45;&gt;TEST_SECRET -->
<g id="edge11" class="edge">
<title>ROOT_SECRET&#45;&gt;TEST_SECRET</title>
<path fill="none" stroke="#323a4e" d="M462.8407,-217.8314C454.8489,-209.3694 445.1962,-199.1489 436.4584,-189.8971"/>
<polygon fill="#323a4e" stroke="#323a4e" points="429.3903,-182.4133 439.5281,-186.5936 432.8234,-186.0483 436.2566,-189.6834 436.2566,-189.6834 436.2566,-189.6834 432.8234,-186.0483 432.985,-192.7732 429.3903,-182.4133 429.3903,-182.4133"/>
</g>
<!-- ROOT_SECRET&#45;&gt;PROD_SECRET -->
<g id="edge12" class="edge">
<title>ROOT_SECRET&#45;&gt;PROD_SECRET</title>
<path fill="none" stroke="#323a4e" d="M496.6546,-217.8314C504.4114,-209.3694 513.7802,-199.1489 522.261,-189.8971"/>
<polygon fill="#323a4e" stroke="#323a4e" points="529.1212,-182.4133 525.6811,-192.8256 525.7425,-186.0991 522.3639,-189.7848 522.3639,-189.7848 522.3639,-189.7848 525.7425,-186.0991 519.0467,-186.7441 529.1212,-182.4133 529.1212,-182.4133"/>
</g>
<!-- DEV_SECRET&#45;&gt;DEV_SALES_SECRET -->
<g id="edge13" class="edge">
<title>DEV_SECRET&#45;&gt;DEV_SALES_SECRET</title>
<path fill="none" stroke="#323a4e" d="M134.8688,-145.8314C128.4189,-137.5386 120.6555,-127.557 113.5748,-118.4533"/>
<polygon fill="#323a4e" stroke="#323a4e" points="107.3214,-110.4133 117.013,-115.5441 110.3912,-114.36 113.4609,-118.3068 113.4609,-118.3068 113.4609,-118.3068 110.3912,-114.36 109.9088,-121.0696 107.3214,-110.4133 107.3214,-110.4133"/>
</g>
<!-- TEST_SECRET&#45;&gt;TEST_SALES_SECRET -->
<g id="edge15" class="edge">
<title>TEST_SECRET&#45;&gt;TEST_SALES_SECRET</title>
<path fill="none" stroke="#323a4e" d="M397.6165,-145.8314C391.0514,-137.5386 383.1493,-127.557 375.9422,-118.4533"/>
<polygon fill="#323a4e" stroke="#323a4e" points="369.5772,-110.4133 379.3125,-115.4606 372.6807,-114.3335 375.7842,-118.2537 375.7842,-118.2537 375.7842,-118.2537 372.6807,-114.3335 372.256,-121.0469 369.5772,-110.4133 369.5772,-110.4133"/>
</g>
<!-- PROD_SECRET&#45;&gt;PROD_SALES_SECRET -->
<g id="edge17" class="edge">
<title>PROD_SECRET&#45;&gt;PROD_SALES_SECRET</title>
<path fill="none" stroke="#323a4e" d="M560.1312,-145.8314C566.5811,-137.5386 574.3445,-127.557 581.4252,-118.4533"/>
<polygon fill="#323a4e" stroke="#323a4e" points="587.6786,-110.4133 585.0912,-121.0696 584.6088,-114.36 581.5391,-118.3068 581.5391,-118.3068 581.5391,-118.3068 584.6088,-114.36 577.987,-115.5441 587.6786,-110.4133 587.6786,-110.4133"/>
</g>
<!-- DEV_SALES_SECRET&#45;&gt;DEV_SALES_APP_SECRET -->
<g id="edge14" class="edge">
<title>DEV_SALES_SECRET&#45;&gt;DEV_SALES_APP_SECRET</title>
<path fill="none" stroke="#323a4e" d="M83.8666,-73.8806C79.6004,-65.4169 74.5552,-55.408 70.3867,-47.138"/>
<polygon fill="#323a4e" stroke="#323a4e" points="65.8479,-38.1337 74.3675,-45.0379 68.0985,-42.5986 70.3491,-47.0634 70.3491,-47.0634 70.3491,-47.0634 68.0985,-42.5986 66.3307,-49.089 65.8479,-38.1337 65.8479,-38.1337"/>
</g>
<!-- TEST_SALES_SECRET&#45;&gt;TEST_SALES_APP_SECRET -->
<g id="edge16" class="edge">
<title>TEST_SALES_SECRET&#45;&gt;TEST_SALES_APP_SECRET</title>
<path fill="none" stroke="#323a4e" d="M330.8408,-73.8806C318.1917,-64.3938 302.9542,-52.9657 291.2948,-44.2211"/>
<polygon fill="#323a4e" stroke="#323a4e" points="283.1783,-38.1337 293.8783,-40.5337 287.1783,-41.1337 291.1783,-44.1337 291.1783,-44.1337 291.1783,-44.1337 287.1783,-41.1337 288.4783,-47.7338 283.1783,-38.1337 283.1783,-38.1337"/>
</g>
<!-- PROD_SALES_SECRET&#45;&gt;PROD_SALES_APP_SECRET -->
<g id="edge18" class="edge">
<title>PROD_SALES_SECRET&#45;&gt;PROD_SALES_APP_SECRET</title>
<path fill="none" stroke="#323a4e" d="M618.7936,-73.8806C627.1552,-64.8588 637.1441,-54.0814 645.0736,-45.5258"/>
<polygon fill="#323a4e" stroke="#323a4e" points="651.9249,-38.1337 648.4276,-48.527 648.526,-41.8009 645.1272,-45.468 645.1272,-45.468 645.1272,-45.468 648.526,-41.8009 641.8267,-42.4091 651.9249,-38.1337 651.9249,-38.1337"/>
</g>
</g>
</svg>
