<?xml version="1.0" encoding="UTF-8" standalone="no"?>
<!DOCTYPE svg PUBLIC "-//W3C//DTD SVG 1.1//EN"
 "http://www.w3.org/Graphics/SVG/1.1/DTD/svg11.dtd">
<!-- Generated by graphviz version 2.40.1 (20161225.0304)
 -->
<!-- Title: G Pages: 1 -->
<svg width="967pt" height="262pt"
 viewBox="0.00 0.00 966.50 262.00" xmlns="http://www.w3.org/2000/svg" xmlns:xlink="http://www.w3.org/1999/xlink">
<g id="graph0" class="graph" transform="scale(1 1) rotate(0) translate(4 258)">
<title>G</title>
<text text-anchor="middle" x="479.25" y="-7.8" font-family="Source Sans Pro" font-size="14.00" fill="#323a4e">Organization Namespace</text>
<!-- ROOT -->
<g id="node1" class="node">
<title>ROOT</title>
<defs>
<linearGradient id="l_0" gradientUnits="userSpaceOnUse" x1="438" y1="-236" x2="492" y2="-236" >
<stop offset="0" style="stop-color:#9351e5;stop-opacity:1.;"/>
<stop offset="1" style="stop-color:#ef468b;stop-opacity:1.;"/>
</linearGradient>
</defs>
<path fill="url(#l_0)" stroke="transparent" d="M480,-254C480,-254 450,-254 450,-254 444,-254 438,-248 438,-242 438,-242 438,-230 438,-230 438,-224 444,-218 450,-218 450,-218 480,-218 480,-218 486,-218 492,-224 492,-230 492,-230 492,-242 492,-242 492,-248 486,-254 480,-254"/>
<text text-anchor="middle" x="465" y="-232.3" font-family="Source Sans Pro" font-size="14.00" fill="#ffffff">/</text>
</g>
<!-- DEV -->
<g id="node2" class="node">
<title>DEV</title>
<polygon fill="#fc4661" stroke="#fc4661" stroke-dasharray="1,5" points="219,-182 165,-182 165,-146 219,-146 219,-182"/>
<text text-anchor="middle" x="192" y="-160.3" font-family="Source Sans Pro" font-size="14.00" fill="#ffffff">/dev</text>
</g>
<!-- ROOT&#45;&gt;DEV -->
<g id="edge1" class="edge">
<title>ROOT&#45;&gt;DEV</title>
<path fill="none" stroke="#323a4e" d="M437.8256,-228.8331C388.5632,-215.8408 284.4756,-188.3892 228.8607,-173.7215"/>
<polygon fill="#323a4e" stroke="#323a4e" points="219.0645,-171.1379 229.8814,-169.3369 223.8991,-172.413 228.7338,-173.6881 228.7338,-173.6881 228.7338,-173.6881 223.8991,-172.413 227.5862,-178.0393 219.0645,-171.1379 219.0645,-171.1379"/>
</g>
<!-- TEST -->
<g id="node9" class="node">
<title>TEST</title>
<polygon fill="#2f81f7" stroke="#2f81f7" stroke-dasharray="1,5" points="492,-182 438,-182 438,-146 492,-146 492,-182"/>
<text text-anchor="middle" x="465" y="-160.3" font-family="Source Sans Pro" font-size="14.00" fill="#ffffff">/test</text>
</g>
<!-- ROOT&#45;&gt;TEST -->
<g id="edge2" class="edge">
<title>ROOT&#45;&gt;TEST</title>
<path fill="none" stroke="#323a4e" d="M465,-217.8314C465,-210.131 465,-200.9743 465,-192.4166"/>
<polygon fill="#323a4e" stroke="#323a4e" points="465,-182.4133 469.5001,-192.4132 465,-187.4133 465.0001,-192.4133 465.0001,-192.4133 465.0001,-192.4133 465,-187.4133 460.5001,-192.4133 465,-182.4133 465,-182.4133"/>
</g>
<!-- PROD -->
<g id="node16" class="node">
<title>PROD</title>
<polygon fill="#27c97b" stroke="#27c97b" stroke-dasharray="1,5" points="767,-182 713,-182 713,-146 767,-146 767,-182"/>
<text text-anchor="middle" x="740" y="-160.3" font-family="Source Sans Pro" font-size="14.00" fill="#ffffff">/prod</text>
</g>
<!-- ROOT&#45;&gt;PROD -->
<g id="edge3" class="edge">
<title>ROOT&#45;&gt;PROD</title>
<path fill="none" stroke="#323a4e" d="M492.1207,-228.8993C541.6158,-215.9406 646.6493,-188.4409 702.7872,-173.743"/>
<polygon fill="#323a4e" stroke="#323a4e" points="712.676,-171.1539 704.1419,-178.0401 707.839,-172.4204 703.0021,-173.6868 703.0021,-173.6868 703.0021,-173.6868 707.839,-172.4204 701.8623,-169.3335 712.676,-171.1539 712.676,-171.1539"/>
</g>
<!-- DEV_SALES -->
<g id="node3" class="node">
<title>DEV_SALES</title>
<polygon fill="#fc4661" stroke="#fc4661" points="90.5,-110 13.5,-110 13.5,-74 90.5,-74 90.5,-110"/>
<text text-anchor="middle" x="52" y="-88.3" font-family="Source Sans Pro" font-size="14.00" fill="#ffffff">/dev/sales</text>
</g>
<!-- DEV&#45;&gt;DEV_SALES -->
<g id="edge4" class="edge">
<title>DEV&#45;&gt;DEV_SALES</title>
<path fill="none" stroke="#323a4e" d="M164.6742,-149.9468C145.2311,-139.9474 118.6851,-126.2952 96.2433,-114.7537"/>
<polygon fill="#323a4e" stroke="#323a4e" points="87.2305,-110.1185 98.1814,-110.6903 91.6769,-112.4053 96.1234,-114.6921 96.1234,-114.6921 96.1234,-114.6921 91.6769,-112.4053 94.0653,-118.6939 87.2305,-110.1185 87.2305,-110.1185"/>
</g>
<!-- DEV_ENG -->
<g id="node4" class="node">
<title>DEV_ENG</title>
<polygon fill="#fc4661" stroke="#fc4661" points="182,-110 114,-110 114,-74 182,-74 182,-110"/>
<text text-anchor="middle" x="148" y="-88.3" font-family="Source Sans Pro" font-size="14.00" fill="#ffffff">/dev/eng</text>
</g>
<!-- DEV&#45;&gt;DEV_ENG -->
<g id="edge5" class="edge">
<title>DEV&#45;&gt;DEV_ENG</title>
<path fill="none" stroke="#323a4e" d="M180.8969,-145.8314C175.9326,-137.7079 169.9778,-127.9637 164.5072,-119.0118"/>
<polygon fill="#323a4e" stroke="#323a4e" points="159.2526,-110.4133 168.3069,-116.5996 161.8598,-114.6797 164.4671,-118.9461 164.4671,-118.9461 164.4671,-118.9461 161.8598,-114.6797 160.6273,-121.2926 159.2526,-110.4133 159.2526,-110.4133"/>
</g>
<!-- DEV_MKTNG -->
<g id="node5" class="node">
<title>DEV_MKTNG</title>
<polygon fill="#fc4661" stroke="#fc4661" points="287,-110 203,-110 203,-74 287,-74 287,-110"/>
<text text-anchor="middle" x="245" y="-88.3" font-family="Source Sans Pro" font-size="14.00" fill="#ffffff">/dev/mktng</text>
</g>
<!-- DEV&#45;&gt;DEV_MKTNG -->
<g id="edge6" class="edge">
<title>DEV&#45;&gt;DEV_MKTNG</title>
<path fill="none" stroke="#323a4e" d="M205.3741,-145.8314C211.4162,-137.6232 218.6763,-127.7606 225.3221,-118.7323"/>
<polygon fill="#323a4e" stroke="#323a4e" points="231.4458,-110.4133 229.1416,-121.1344 228.4817,-114.44 225.5176,-118.4667 225.5176,-118.4667 225.5176,-118.4667 228.4817,-114.44 221.8936,-115.799 231.4458,-110.4133 231.4458,-110.4133"/>
</g>
<!-- DEV_SALES_APP -->
<g id="node6" class="node">
<title>DEV_SALES_APP</title>
<path fill="#fc4661" stroke="transparent" d="M83,-38C83,-38 5,-38 5,-38 2.5,-38 0,-35.5 0,-33 0,-33 0,-28 0,-28 0,-25.5 2.5,-23 5,-23 5,-23 83,-23 83,-23 85.5,-23 88,-25.5 88,-28 88,-28 88,-33 88,-33 88,-35.5 85.5,-38 83,-38"/>
<text text-anchor="middle" x="44" y="-26.8" font-family="Source Sans Pro" font-size="14.00" fill="#ffffff">/dev/sales/app</text>
</g>
<!-- DEV_SALES&#45;&gt;DEV_SALES_APP -->
<g id="edge7" class="edge">
<title>DEV_SALES&#45;&gt;DEV_SALES_APP</title>
<path fill="none" stroke="#323a4e" d="M49.643,-73.8806C48.5904,-65.7889 47.3541,-56.2849 46.3074,-48.2384"/>
<polygon fill="#323a4e" stroke="#323a4e" points="44.993,-38.1337 50.7454,-47.4696 45.638,-43.0919 46.283,-48.0502 46.283,-48.0502 46.283,-48.0502 45.638,-43.0919 41.8206,-48.6307 44.993,-38.1337 44.993,-38.1337"/>
</g>
<!-- DEV_ENG_APP -->
<g id="node7" class="node">
<title>DEV_ENG_APP</title>
<path fill="#fc4661" stroke="transparent" d="M179.5,-38C179.5,-38 110.5,-38 110.5,-38 108,-38 105.5,-35.5 105.5,-33 105.5,-33 105.5,-28 105.5,-28 105.5,-25.5 108,-23 110.5,-23 110.5,-23 179.5,-23 179.5,-23 182,-23 184.5,-25.5 184.5,-28 184.5,-28 184.5,-33 184.5,-33 184.5,-35.5 182,-38 179.5,-38"/>
<text text-anchor="middle" x="145" y="-26.8" font-family="Source Sans Pro" font-size="14.00" fill="#ffffff">/dev/eng/app</text>
</g>
<!-- DEV_ENG&#45;&gt;DEV_ENG_APP -->
<g id="edge8" class="edge">
<title>DEV_ENG&#45;&gt;DEV_ENG_APP</title>
<path fill="none" stroke="#323a4e" d="M147.1161,-73.8806C146.7214,-65.7889 146.2578,-56.2849 145.8653,-48.2384"/>
<polygon fill="#323a4e" stroke="#323a4e" points="145.3724,-38.1337 150.3544,-47.9025 145.616,-43.1278 145.8597,-48.1218 145.8597,-48.1218 145.8597,-48.1218 145.616,-43.1278 141.365,-48.3411 145.3724,-38.1337 145.3724,-38.1337"/>
</g>
<!-- DEV_MKTNG_APP -->
<g id="node8" class="node">
<title>DEV_MKTNG_APP</title>
<path fill="#fc4661" stroke="transparent" d="M294,-38C294,-38 208,-38 208,-38 205.5,-38 203,-35.5 203,-33 203,-33 203,-28 203,-28 203,-25.5 205.5,-23 208,-23 208,-23 294,-23 294,-23 296.5,-23 299,-25.5 299,-28 299,-28 299,-33 299,-33 299,-35.5 296.5,-38 294,-38"/>
<text text-anchor="middle" x="251" y="-26.8" font-family="Source Sans Pro" font-size="14.00" fill="#ffffff">/dev/mktng/app</text>
</g>
<!-- DEV_MKTNG&#45;&gt;DEV_MKTNG_APP -->
<g id="edge9" class="edge">
<title>DEV_MKTNG&#45;&gt;DEV_MKTNG_APP</title>
<path fill="none" stroke="#323a4e" d="M246.7677,-73.8806C247.5572,-65.7889 248.4844,-56.2849 249.2694,-48.2384"/>
<polygon fill="#323a4e" stroke="#323a4e" points="250.2552,-38.1337 253.7629,-48.5234 249.7697,-43.1101 249.2842,-48.0865 249.2842,-48.0865 249.2842,-48.0865 249.7697,-43.1101 244.8054,-47.6495 250.2552,-38.1337 250.2552,-38.1337"/>
</g>
<!-- TEST_SALES -->
<g id="node10" class="node">
<title>TEST_SALES</title>
<polygon fill="#2f81f7" stroke="#2f81f7" points="406,-110 328,-110 328,-74 406,-74 406,-110"/>
<text text-anchor="middle" x="367" y="-88.3" font-family="Source Sans Pro" font-size="14.00" fill="#ffffff">/test/sales</text>
</g>
<!-- TEST&#45;&gt;TEST_SALES -->
<g id="edge10" class="edge">
<title>TEST&#45;&gt;TEST_SALES</title>
<path fill="none" stroke="#323a4e" d="M440.2705,-145.8314C428.0838,-136.8779 413.2177,-125.9558 400.0688,-116.2955"/>
<polygon fill="#323a4e" stroke="#323a4e" points="391.7216,-110.1628 402.4448,-112.4572 395.751,-113.1232 399.7805,-116.0836 399.7805,-116.0836 399.7805,-116.0836 395.751,-113.1232 397.1161,-119.7101 391.7216,-110.1628 391.7216,-110.1628"/>
</g>
<!-- TEST_ENG -->
<g id="node11" class="node">
<title>TEST_ENG</title>
<polygon fill="#2f81f7" stroke="#2f81f7" points="499.5,-110 430.5,-110 430.5,-74 499.5,-74 499.5,-110"/>
<text text-anchor="middle" x="465" y="-88.3" font-family="Source Sans Pro" font-size="14.00" fill="#ffffff">/test/eng</text>
</g>
<!-- TEST&#45;&gt;TEST_ENG -->
<g id="edge11" class="edge">
<title>TEST&#45;&gt;TEST_ENG</title>
<path fill="none" stroke="#323a4e" d="M465,-145.8314C465,-138.131 465,-128.9743 465,-120.4166"/>
<polygon fill="#323a4e" stroke="#323a4e" points="465,-110.4133 469.5001,-120.4132 465,-115.4133 465.0001,-120.4133 465.0001,-120.4133 465.0001,-120.4133 465,-115.4133 460.5001,-120.4133 465,-110.4133 465,-110.4133"/>
</g>
<!-- TEST_MKTNG -->
<g id="node12" class="node">
<title>TEST_MKTNG</title>
<polygon fill="#2f81f7" stroke="#2f81f7" points="610,-110 524,-110 524,-74 610,-74 610,-110"/>
<text text-anchor="middle" x="567" y="-88.3" font-family="Source Sans Pro" font-size="14.00" fill="#ffffff">/test/mktng</text>
</g>
<!-- TEST&#45;&gt;TEST_MKTNG -->
<g id="edge12" class="edge">
<title>TEST&#45;&gt;TEST_MKTNG</title>
<path fill="none" stroke="#323a4e" d="M490.7389,-145.8314C503.5437,-136.7927 519.1909,-125.7476 532.9719,-116.0198"/>
<polygon fill="#323a4e" stroke="#323a4e" points="541.2693,-110.1628 535.6947,-119.6061 537.1845,-113.0463 533.0996,-115.9297 533.0996,-115.9297 533.0996,-115.9297 537.1845,-113.0463 530.5045,-112.2533 541.2693,-110.1628 541.2693,-110.1628"/>
</g>
<!-- TEST_SALES_APP -->
<g id="node13" class="node">
<title>TEST_SALES_APP</title>
<path fill="#2f81f7" stroke="transparent" d="M401.5,-38C401.5,-38 322.5,-38 322.5,-38 320,-38 317.5,-35.5 317.5,-33 317.5,-33 317.5,-28 317.5,-28 317.5,-25.5 320,-23 322.5,-23 322.5,-23 401.5,-23 401.5,-23 404,-23 406.5,-25.5 406.5,-28 406.5,-28 406.5,-33 406.5,-33 406.5,-35.5 404,-38 401.5,-38"/>
<text text-anchor="middle" x="362" y="-26.8" font-family="Source Sans Pro" font-size="14.00" fill="#ffffff">/test/sales/app</text>
</g>
<!-- TEST_SALES&#45;&gt;TEST_SALES_APP -->
<g id="edge13" class="edge">
<title>TEST_SALES&#45;&gt;TEST_SALES_APP</title>
<path fill="none" stroke="#323a4e" d="M365.5269,-73.8806C364.869,-65.7889 364.0963,-56.2849 363.4421,-48.2384"/>
<polygon fill="#323a4e" stroke="#323a4e" points="362.6206,-38.1337 367.9163,-47.7361 363.0258,-43.1173 363.4311,-48.1008 363.4311,-48.1008 363.4311,-48.1008 363.0258,-43.1173 358.9459,-48.4655 362.6206,-38.1337 362.6206,-38.1337"/>
</g>
<!-- TEST_ENG_APP -->
<g id="node14" class="node">
<title>TEST_ENG_APP</title>
<path fill="#2f81f7" stroke="transparent" d="M500.5,-38C500.5,-38 429.5,-38 429.5,-38 427,-38 424.5,-35.5 424.5,-33 424.5,-33 424.5,-28 424.5,-28 424.5,-25.5 427,-23 429.5,-23 429.5,-23 500.5,-23 500.5,-23 503,-23 505.5,-25.5 505.5,-28 505.5,-28 505.5,-33 505.5,-33 505.5,-35.5 503,-38 500.5,-38"/>
<text text-anchor="middle" x="465" y="-26.8" font-family="Source Sans Pro" font-size="14.00" fill="#ffffff">/test/eng/app</text>
</g>
<!-- TEST_ENG&#45;&gt;TEST_ENG_APP -->
<g id="edge14" class="edge">
<title>TEST_ENG&#45;&gt;TEST_ENG_APP</title>
<path fill="none" stroke="#323a4e" d="M465,-73.8806C465,-65.7889 465,-56.2849 465,-48.2384"/>
<polygon fill="#323a4e" stroke="#323a4e" points="465,-38.1337 469.5001,-48.1337 465,-43.1337 465.0001,-48.1337 465.0001,-48.1337 465.0001,-48.1337 465,-43.1337 460.5001,-48.1337 465,-38.1337 465,-38.1337"/>
</g>
<!-- TEST_MKTNG_APP -->
<g id="node15" class="node">
<title>TEST_MKTNG_APP</title>
<path fill="#2f81f7" stroke="transparent" d="M615.5,-38C615.5,-38 528.5,-38 528.5,-38 526,-38 523.5,-35.5 523.5,-33 523.5,-33 523.5,-28 523.5,-28 523.5,-25.5 526,-23 528.5,-23 528.5,-23 615.5,-23 615.5,-23 618,-23 620.5,-25.5 620.5,-28 620.5,-28 620.5,-33 620.5,-33 620.5,-35.5 618,-38 615.5,-38"/>
<text text-anchor="middle" x="572" y="-26.8" font-family="Source Sans Pro" font-size="14.00" fill="#ffffff">/test/mktng/app</text>
</g>
<!-- TEST_MKTNG&#45;&gt;TEST_MKTNG_APP -->
<g id="edge15" class="edge">
<title>TEST_MKTNG&#45;&gt;TEST_MKTNG_APP</title>
<path fill="none" stroke="#323a4e" d="M568.4731,-73.8806C569.131,-65.7889 569.9037,-56.2849 570.5579,-48.2384"/>
<polygon fill="#323a4e" stroke="#323a4e" points="571.3794,-38.1337 575.0541,-48.4655 570.9742,-43.1173 570.5689,-48.1008 570.5689,-48.1008 570.5689,-48.1008 570.9742,-43.1173 566.0837,-47.7361 571.3794,-38.1337 571.3794,-38.1337"/>
</g>
<!-- PROD_SALES -->
<g id="node17" class="node">
<title>PROD_SALES</title>
<polygon fill="#27c97b" stroke="#27c97b" points="730.5,-110 647.5,-110 647.5,-74 730.5,-74 730.5,-110"/>
<text text-anchor="middle" x="689" y="-88.3" font-family="Source Sans Pro" font-size="14.00" fill="#ffffff">/prod/sales</text>
</g>
<!-- PROD&#45;&gt;PROD_SALES -->
<g id="edge16" class="edge">
<title>PROD&#45;&gt;PROD_SALES</title>
<path fill="none" stroke="#323a4e" d="M727.1305,-145.8314C721.3165,-137.6232 714.3304,-127.7606 707.9354,-118.7323"/>
<polygon fill="#323a4e" stroke="#323a4e" points="702.0427,-110.4133 711.4951,-115.9724 704.9328,-114.4934 707.8229,-118.5735 707.8229,-118.5735 707.8229,-118.5735 704.9328,-114.4934 704.1508,-121.1746 702.0427,-110.4133 702.0427,-110.4133"/>
</g>
<!-- PROD_ENG -->
<g id="node18" class="node">
<title>PROD_ENG</title>
<polygon fill="#27c97b" stroke="#27c97b" points="828,-110 754,-110 754,-74 828,-74 828,-110"/>
<text text-anchor="middle" x="791" y="-88.3" font-family="Source Sans Pro" font-size="14.00" fill="#ffffff">/prod/eng</text>
</g>
<!-- PROD&#45;&gt;PROD_ENG -->
<g id="edge17" class="edge">
<title>PROD&#45;&gt;PROD_ENG</title>
<path fill="none" stroke="#323a4e" d="M752.8695,-145.8314C758.6835,-137.6232 765.6696,-127.7606 772.0646,-118.7323"/>
<polygon fill="#323a4e" stroke="#323a4e" points="777.9573,-110.4133 775.8492,-121.1746 775.0672,-114.4934 772.1771,-118.5735 772.1771,-118.5735 772.1771,-118.5735 775.0672,-114.4934 768.5049,-115.9724 777.9573,-110.4133 777.9573,-110.4133"/>
</g>
<!-- PROD_MKTNG -->
<g id="node19" class="node">
<title>PROD_MKTNG</title>
<polygon fill="#27c97b" stroke="#27c97b" points="946.5,-110 855.5,-110 855.5,-74 946.5,-74 946.5,-110"/>
<text text-anchor="middle" x="901" y="-88.3" font-family="Source Sans Pro" font-size="14.00" fill="#ffffff">/prod/mktng</text>
</g>
<!-- PROD&#45;&gt;PROD_MKTNG -->
<g id="edge18" class="edge">
<title>PROD&#45;&gt;PROD_MKTNG</title>
<path fill="none" stroke="#323a4e" d="M767.3115,-151.7862C790.2834,-141.513 823.7149,-126.5623 851.3987,-114.1819"/>
<polygon fill="#323a4e" stroke="#323a4e" points="860.5434,-110.0924 853.2518,-118.2828 855.979,-112.1336 851.4146,-114.1749 851.4146,-114.1749 851.4146,-114.1749 855.979,-112.1336 849.5775,-110.0669 860.5434,-110.0924 860.5434,-110.0924"/>
</g>
<!-- PROD_SALES_APP -->
<g id="node20" class="node">
<title>PROD_SALES_APP</title>
<path fill="#27c97b" stroke="transparent" d="M728,-38C728,-38 644,-38 644,-38 641.5,-38 639,-35.5 639,-33 639,-33 639,-28 639,-28 639,-25.5 641.5,-23 644,-23 644,-23 728,-23 728,-23 730.5,-23 733,-25.5 733,-28 733,-28 733,-33 733,-33 733,-35.5 730.5,-38 728,-38"/>
<text text-anchor="middle" x="686" y="-26.8" font-family="Source Sans Pro" font-size="14.00" fill="#ffffff">/prod/sales/app</text>
</g>
<!-- PROD_SALES&#45;&gt;PROD_SALES_APP -->
<g id="edge19" class="edge">
<title>PROD_SALES&#45;&gt;PROD_SALES_APP</title>
<path fill="none" stroke="#323a4e" d="M688.1161,-73.8806C687.7214,-65.7889 687.2578,-56.2849 686.8653,-48.2384"/>
<polygon fill="#323a4e" stroke="#323a4e" points="686.3724,-38.1337 691.3544,-47.9025 686.616,-43.1278 686.8597,-48.1218 686.8597,-48.1218 686.8597,-48.1218 686.616,-43.1278 682.365,-48.3411 686.3724,-38.1337 686.3724,-38.1337"/>
</g>
<!-- PROD_ENG_APP -->
<g id="node21" class="node">
<title>PROD_ENG_APP</title>
<path fill="#27c97b" stroke="transparent" d="M832,-38C832,-38 756,-38 756,-38 753.5,-38 751,-35.5 751,-33 751,-33 751,-28 751,-28 751,-25.5 753.5,-23 756,-23 756,-23 832,-23 832,-23 834.5,-23 837,-25.5 837,-28 837,-28 837,-33 837,-33 837,-35.5 834.5,-38 832,-38"/>
<text text-anchor="middle" x="794" y="-26.8" font-family="Source Sans Pro" font-size="14.00" fill="#ffffff">/prod/eng/app</text>
</g>
<!-- PROD_ENG&#45;&gt;PROD_ENG_APP -->
<g id="edge20" class="edge">
<title>PROD_ENG&#45;&gt;PROD_ENG_APP</title>
<path fill="none" stroke="#323a4e" d="M791.8839,-73.8806C792.2786,-65.7889 792.7422,-56.2849 793.1347,-48.2384"/>
<polygon fill="#323a4e" stroke="#323a4e" points="793.6276,-38.1337 797.635,-48.3411 793.384,-43.1278 793.1403,-48.1218 793.1403,-48.1218 793.1403,-48.1218 793.384,-43.1278 788.6456,-47.9025 793.6276,-38.1337 793.6276,-38.1337"/>
</g>
<!-- PROD_MKTNG_APP -->
<g id="node22" class="node">
<title>PROD_MKTNG_APP</title>
<path fill="#27c97b" stroke="transparent" d="M953.5,-38C953.5,-38 860.5,-38 860.5,-38 858,-38 855.5,-35.5 855.5,-33 855.5,-33 855.5,-28 855.5,-28 855.5,-25.5 858,-23 860.5,-23 860.5,-23 953.5,-23 953.5,-23 956,-23 958.5,-25.5 958.5,-28 958.5,-28 958.5,-33 958.5,-33 958.5,-35.5 956,-38 953.5,-38"/>
<text text-anchor="middle" x="907" y="-26.8" font-family="Source Sans Pro" font-size="14.00" fill="#ffffff">/prod/mktng/app</text>
</g>
<!-- PROD_MKTNG&#45;&gt;PROD_MKTNG_APP -->
<g id="edge21" class="edge">
<title>PROD_MKTNG&#45;&gt;PROD_MKTNG_APP</title>
<path fill="none" stroke="#323a4e" d="M902.7677,-73.8806C903.5572,-65.7889 904.4844,-56.2849 905.2694,-48.2384"/>
<polygon fill="#323a4e" stroke="#323a4e" points="906.2552,-38.1337 909.7629,-48.5234 905.7697,-43.1101 905.2842,-48.0865 905.2842,-48.0865 905.2842,-48.0865 905.7697,-43.1101 900.8054,-47.6495 906.2552,-38.1337 906.2552,-38.1337"/>
</g>
</g>
</svg>
