<?xml version="1.0" encoding="UTF-8" standalone="no"?>
<!-- Generated by graphviz version 2.40.1 (20161225.0304)
 -->

<!-- Title: G Pages: 1 -->

<svg xmlns:dc="http://purl.org/dc/elements/1.1/" xmlns:cc="http://creativecommons.org/ns#" xmlns:rdf="http://www.w3.org/1999/02/22-rdf-syntax-ns#" xmlns:svg="http://www.w3.org/2000/svg" xmlns="http://www.w3.org/2000/svg" xmlns:sodipodi="http://sodipodi.sourceforge.net/DTD/sodipodi-0.dtd" xmlns:inkscape="http://www.inkscape.org/namespaces/inkscape" width="316pt" height="201pt" viewBox="0.00 0.00 316.00 201.00" version="1.1" id="svg30525" sodipodi:docname="org-secret-namespace-flat.svg" inkscape:version="0.92.2 5c3e80d, 2017-08-06">
  <metadata id="metadata30531">
    <rdf:RDF>
      <cc:Work rdf:about="">
        <dc:format>image/svg+xml</dc:format>
        <dc:type rdf:resource="http://purl.org/dc/dcmitype/StillImage" />
      </cc:Work>
    </rdf:RDF>
  </metadata>
  <defs id="defs30529" />
  <sodipodi:namedview pagecolor="#ffffff" bordercolor="#666666" borderopacity="1" objecttolerance="10" gridtolerance="10" guidetolerance="10" inkscape:pageopacity="0" inkscape:pageshadow="2" inkscape:window-width="640" inkscape:window-height="480" id="namedview30527" showgrid="false" inkscape:zoom="3.4912975" inkscape:cx="210.66667" inkscape:cy="134" inkscape:current-layer="clust2" />
  <g id="graph0" class="graph" transform="scale(1 1) rotate(0) translate(4 197)">
    <title id="title30408">G</title>
    <text text-anchor="middle" x="154" y="-7.8" font-family="Source Sans Pro" font-size="14.00" fill="#323a4e" id="text30410">Organization::Secrets Namespace Access Mapping</text>
    <g id="clust1" class="cluster">
      <title id="title30412">cluster_app_namespace</title>
      <polygon fill="#fedf57" stroke="#fedf57" stroke-dasharray="5,2" points="17.5,-64 17.5,-185 127.5,-185 127.5,-64 17.5,-64" id="polygon30414" style="fill:#fedf57;fill-opacity:0.49803922" />
      <text text-anchor="middle" x="72.5" y="-169.8" font-family="Source Sans Pro" font-size="14.00" fill="#323a4e" id="text30416">App Namespace</text>
    </g>
    <g id="clust2" class="cluster">
      <title id="title30419">cluster_secrets_namespace</title>
      <polygon fill="#27c97b" stroke="#27c97b" stroke-dasharray="5,2" points="147.5,-31 147.5,-185 287.5,-185 287.5,-31 147.5,-31" id="polygon30421" style="fill:#27c97b;fill-opacity:0.49803922" />
      <text text-anchor="middle" x="217.5" y="-169.8" font-family="Source Sans Pro" font-size="14.00" fill="#323a4e" id="text30423">Secrets Namespace</text>
    </g>
    <!-- APP -->
    <g id="node1" class="node">
      <title id="title30426">APP</title>
      <path fill="#fc4661" stroke="transparent" d="M81.5,-153.5C81.5,-153.5 63.5,-153.5 63.5,-153.5 61,-153.5 58.5,-151 58.5,-148.5 58.5,-148.5 58.5,-143.5 58.5,-143.5 58.5,-141 61,-138.5 63.5,-138.5 63.5,-138.5 81.5,-138.5 81.5,-138.5 84,-138.5 86.5,-141 86.5,-143.5 86.5,-143.5 86.5,-148.5 86.5,-148.5 86.5,-151 84,-153.5 81.5,-153.5" id="path30428" />
      <text text-anchor="middle" x="72.5" y="-142.3" font-family="Source Sans Pro" font-size="14.00" fill="#ffffff" id="text30430">/app</text>
    </g>
    <!-- ROOT_SECRET -->
    <g id="node4" class="node">
      <title id="title30433">ROOT_SECRET</title>
      <path fill="#fc4661" stroke="transparent" d="M230.5,-153.5C230.5,-153.5 204.5,-153.5 204.5,-153.5 202,-153.5 199.5,-151 199.5,-148.5 199.5,-148.5 199.5,-143.5 199.5,-143.5 199.5,-141 202,-138.5 204.5,-138.5 204.5,-138.5 230.5,-138.5 230.5,-138.5 233,-138.5 235.5,-141 235.5,-143.5 235.5,-143.5 235.5,-148.5 235.5,-148.5 235.5,-151 233,-153.5 230.5,-153.5" id="path30435" />
      <text text-anchor="middle" x="217.5" y="-142.3" font-family="Source Sans Pro" font-size="14.00" fill="#ffffff" id="text30437">secret</text>
    </g>
    <!-- APP&#45;&gt;ROOT_SECRET -->
    <g id="edge1" class="edge">
      <title id="title30440">APP-&gt;ROOT_SECRET</title>
      <path fill="none" stroke="#323a4e" stroke-dasharray="5,2" d="M86.6672,-146C110.3805,-146 158.5351,-146 189.3439,-146" id="path30442" />
      <polygon fill="#323a4e" stroke="#323a4e" points="199.4494,-146 189.4494,-150.5001 194.4494,-146 189.4494,-146.0001 189.4494,-146.0001 189.4494,-146.0001 194.4494,-146 189.4493,-141.5001 199.4494,-146 199.4494,-146" id="polygon30444" />
    </g>
    <!-- DEV_APP -->
    <g id="node2" class="node">
      <title id="title30447">DEV_APP</title>
      <path fill="#fc4661" stroke="transparent" d="M94,-120.5C94,-120.5 51,-120.5 51,-120.5 48.5,-120.5 46,-118 46,-115.5 46,-115.5 46,-110.5 46,-110.5 46,-108 48.5,-105.5 51,-105.5 51,-105.5 94,-105.5 94,-105.5 96.5,-105.5 99,-108 99,-110.5 99,-110.5 99,-115.5 99,-115.5 99,-118 96.5,-120.5 94,-120.5" id="path30449" />
      <text text-anchor="middle" x="72.5" y="-109.3" font-family="Source Sans Pro" font-size="14.00" fill="#ffffff" id="text30451">/dev/app</text>
    </g>
    <!-- DEV_APP&#45;&gt;ROOT_SECRET -->
    <g id="edge2" class="edge">
      <title id="title30454">DEV_APP-&gt;ROOT_SECRET</title>
      <path fill="none" stroke="#323a4e" stroke-dasharray="5,2" d="M99.0952,-119.0527C124.6767,-124.8747 163.2113,-133.6446 189.3137,-139.5852" id="path30456" />
      <polygon fill="#323a4e" stroke="#323a4e" points="199.3283,-141.8644 188.5789,-144.033 194.4529,-140.7548 189.5776,-139.6452 189.5776,-139.6452 189.5776,-139.6452 194.4529,-140.7548 190.5762,-135.2574 199.3283,-141.8644 199.3283,-141.8644" id="polygon30458" />
    </g>
    <!-- DEV_SECRET -->
    <g id="node5" class="node">
      <title id="title30461">DEV_SECRET</title>
      <path fill="#fc4661" stroke="transparent" d="M243.5,-120.5C243.5,-120.5 191.5,-120.5 191.5,-120.5 189,-120.5 186.5,-118 186.5,-115.5 186.5,-115.5 186.5,-110.5 186.5,-110.5 186.5,-108 189,-105.5 191.5,-105.5 191.5,-105.5 243.5,-105.5 243.5,-105.5 246,-105.5 248.5,-108 248.5,-110.5 248.5,-110.5 248.5,-115.5 248.5,-115.5 248.5,-118 246,-120.5 243.5,-120.5" id="path30463" />
      <text text-anchor="middle" x="217.5" y="-109.3" font-family="Source Sans Pro" font-size="14.00" fill="#ffffff" id="text30465">dev/secret</text>
    </g>
    <!-- DEV_APP&#45;&gt;DEV_SECRET -->
    <g id="edge3" class="edge">
      <title id="title30468">DEV_APP-&gt;DEV_SECRET</title>
      <path fill="none" stroke="#323a4e" stroke-dasharray="5,2" d="M99.0952,-113C120.6283,-113 151.3393,-113 176.0879,-113" id="path30470" />
      <polygon fill="#323a4e" stroke="#323a4e" points="186.2853,-113 176.2854,-117.5001 181.2853,-113 176.2853,-113.0001 176.2853,-113.0001 176.2853,-113.0001 181.2853,-113 176.2853,-108.5001 186.2853,-113 186.2853,-113" id="polygon30472" />
    </g>
    <!-- DEV_SALES_APP -->
    <g id="node3" class="node">
      <title id="title30475">DEV_SALES_APP</title>
      <path fill="#fc4661" stroke="transparent" d="M111.5,-87.5C111.5,-87.5 33.5,-87.5 33.5,-87.5 31,-87.5 28.5,-85 28.5,-82.5 28.5,-82.5 28.5,-77.5 28.5,-77.5 28.5,-75 31,-72.5 33.5,-72.5 33.5,-72.5 111.5,-72.5 111.5,-72.5 114,-72.5 116.5,-75 116.5,-77.5 116.5,-77.5 116.5,-82.5 116.5,-82.5 116.5,-85 114,-87.5 111.5,-87.5" id="path30477" />
      <text text-anchor="middle" x="72.5" y="-76.3" font-family="Source Sans Pro" font-size="14.00" fill="#ffffff" id="text30479">/dev/sales/app</text>
    </g>
    <!-- DEV_SALES_APP&#45;&gt;ROOT_SECRET -->
    <g id="edge4" class="edge">
      <title id="title30482">DEV_SALES_APP-&gt;ROOT_SECRET</title>
      <path fill="none" stroke="#323a4e" stroke-dasharray="5,2" d="M110.112,-87.5927C116.3133,-89.9388 122.3794,-93.0024 127.5,-97 141.0183,-107.5536 133.5952,-119.9611 147.5,-130 159.4629,-138.6369 175.3271,-142.7076 188.9279,-144.5881" id="path30484" />
      <polygon fill="#323a4e" stroke="#323a4e" points="199.2325,-145.6721 188.8166,-149.1011 194.2599,-145.149 189.2874,-144.6258 189.2874,-144.6258 189.2874,-144.6258 194.2599,-145.149 189.7582,-140.1505 199.2325,-145.6721 199.2325,-145.6721" id="polygon30486" />
    </g>
    <!-- DEV_SALES_APP&#45;&gt;DEV_SECRET -->
    <g id="edge5" class="edge">
      <title id="title30489">DEV_SALES_APP-&gt;DEV_SECRET</title>
      <path fill="none" stroke="#323a4e" stroke-dasharray="5,2" d="M105.7659,-87.5709C126.7929,-92.3563 154.1205,-98.5757 176.4864,-103.6659" id="path30491" />
      <polygon fill="#323a4e" stroke="#323a4e" points="186.373,-105.9159 175.6237,-108.0845 181.4977,-104.8063 176.6223,-103.6967 176.6223,-103.6967 176.6223,-103.6967 181.4977,-104.8063 177.621,-99.3089 186.373,-105.9159 186.373,-105.9159" id="polygon30493" />
    </g>
    <!-- DEV_SALES_SECRET -->
    <g id="node6" class="node">
      <title id="title30496">DEV_SALES_SECRET</title>
      <path fill="#fc4661" stroke="transparent" d="M261,-87.5C261,-87.5 174,-87.5 174,-87.5 171.5,-87.5 169,-85 169,-82.5 169,-82.5 169,-77.5 169,-77.5 169,-75 171.5,-72.5 174,-72.5 174,-72.5 261,-72.5 261,-72.5 263.5,-72.5 266,-75 266,-77.5 266,-77.5 266,-82.5 266,-82.5 266,-85 263.5,-87.5 261,-87.5" id="path30498" />
      <text text-anchor="middle" x="217.5" y="-76.3" font-family="Source Sans Pro" font-size="14.00" fill="#ffffff" id="text30500">dev/sales/secret</text>
    </g>
    <!-- DEV_SALES_APP&#45;&gt;DEV_SALES_SECRET -->
    <g id="edge6" class="edge">
      <title id="title30503">DEV_SALES_APP-&gt;DEV_SALES_SECRET</title>
      <path fill="none" stroke="#323a4e" stroke-dasharray="5,2" d="M116.7927,-80C130.0623,-80 144.8255,-80 158.8677,-80" id="path30505" />
      <polygon fill="#323a4e" stroke="#323a4e" points="168.9336,-80 158.9336,-84.5001 163.9336,-80 158.9336,-80.0001 158.9336,-80.0001 158.9336,-80.0001 163.9336,-80 158.9335,-75.5001 168.9336,-80 168.9336,-80" id="polygon30507" />
    </g>
    <!-- DEV_SALES_APP_SECRET -->
    <g id="node7" class="node">
      <title id="title30510">DEV_SALES_APP_SECRET</title>
      <path fill="#fc4661" stroke="transparent" d="M274.5,-54.5C274.5,-54.5 160.5,-54.5 160.5,-54.5 158,-54.5 155.5,-52 155.5,-49.5 155.5,-49.5 155.5,-44.5 155.5,-44.5 155.5,-42 158,-39.5 160.5,-39.5 160.5,-39.5 274.5,-39.5 274.5,-39.5 277,-39.5 279.5,-42 279.5,-44.5 279.5,-44.5 279.5,-49.5 279.5,-49.5 279.5,-52 277,-54.5 274.5,-54.5" id="path30512" />
      <text text-anchor="middle" x="217.5" y="-43.3" font-family="Source Sans Pro" font-size="14.00" fill="#ffffff" id="text30514">dev/sales/app/secret</text>
    </g>
    <!-- DEV_SALES_APP&#45;&gt;DEV_SALES_APP_SECRET -->
    <g id="edge7" class="edge">
      <title id="title30517">DEV_SALES_APP-&gt;DEV_SALES_APP_SECRET</title>
      <path fill="none" stroke="#323a4e" stroke-dasharray="5,2" d="M105.7659,-72.4291C126.2128,-67.7757 152.6176,-61.7663 174.6243,-56.7579" id="path30519" />
      <polygon fill="#323a4e" stroke="#323a4e" points="184.3889,-54.5356 175.6368,-61.1426 179.5135,-55.6452 174.6382,-56.7548 174.6382,-56.7548 174.6382,-56.7548 179.5135,-55.6452 173.6396,-52.367 184.3889,-54.5356 184.3889,-54.5356" id="polygon30521" />
    </g>
  </g>
</svg>
