<?xml version="1.0" encoding="UTF-8" standalone="no"?>
<!DOCTYPE svg PUBLIC "-//W3C//DTD SVG 1.1//EN"
 "http://www.w3.org/Graphics/SVG/1.1/DTD/svg11.dtd">
<!-- Generated by graphviz version 2.40.1 (20161225.0304)
 -->
<!-- Title: G Pages: 1 -->
<svg width="1288pt" height="262pt"
 viewBox="0.00 0.00 1288.00 262.00" xmlns="http://www.w3.org/2000/svg" xmlns:xlink="http://www.w3.org/1999/xlink">
<g id="graph0" class="graph" transform="scale(1 1) rotate(0) translate(4 258)">
<title>G</title>
<text text-anchor="middle" x="640" y="-7.8" font-family="Source Sans Pro" font-size="14.00" fill="#323a4e">Secrets Namespace</text>
<!-- ROOT_SECRET -->
<g id="node1" class="node">
<title>ROOT_SECRET</title>
<defs>
<linearGradient id="l_0" gradientUnits="userSpaceOnUse" x1="592.5" y1="-236" x2="659.5" y2="-236" >
<stop offset="0" style="stop-color:#9351e5;stop-opacity:1.;"/>
<stop offset="1" style="stop-color:#ef468b;stop-opacity:1.;"/>
</linearGradient>
</defs>
<path fill="url(#l_0)" stroke="transparent" d="M647.5,-254C647.5,-254 604.5,-254 604.5,-254 598.5,-254 592.5,-248 592.5,-242 592.5,-242 592.5,-230 592.5,-230 592.5,-224 598.5,-218 604.5,-218 604.5,-218 647.5,-218 647.5,-218 653.5,-218 659.5,-224 659.5,-230 659.5,-230 659.5,-242 659.5,-242 659.5,-248 653.5,-254 647.5,-254"/>
<text text-anchor="middle" x="626" y="-232.3" font-family="Source Sans Pro" font-size="14.00" fill="#ffffff">secret(?)</text>
</g>
<!-- DEV_SECRET -->
<g id="node2" class="node">
<title>DEV_SECRET</title>
<polygon fill="#fc4661" stroke="#fc4661" stroke-dasharray="1,5" points="305,-182 227,-182 227,-146 305,-146 305,-182"/>
<text text-anchor="middle" x="266" y="-160.3" font-family="Source Sans Pro" font-size="14.00" fill="#ffffff">dev/secret</text>
</g>
<!-- ROOT_SECRET&#45;&gt;DEV_SECRET -->
<g id="edge1" class="edge">
<title>ROOT_SECRET&#45;&gt;DEV_SECRET</title>
<path fill="none" stroke="#323a4e" d="M592.4554,-229.2911C528.6889,-216.5378 389.721,-188.7442 315.329,-173.8658"/>
<polygon fill="#323a4e" stroke="#323a4e" points="305.2751,-171.855 315.9635,-169.4036 310.178,-172.8356 315.0809,-173.8163 315.0809,-173.8163 315.0809,-173.8163 310.178,-172.8356 314.1984,-178.2289 305.2751,-171.855 305.2751,-171.855"/>
</g>
<!-- TEST_SECRET -->
<g id="node9" class="node">
<title>TEST_SECRET</title>
<polygon fill="#2f81f7" stroke="#2f81f7" stroke-dasharray="1,5" points="665.5,-182 586.5,-182 586.5,-146 665.5,-146 665.5,-182"/>
<text text-anchor="middle" x="626" y="-160.3" font-family="Source Sans Pro" font-size="14.00" fill="#ffffff">test/secret</text>
</g>
<!-- ROOT_SECRET&#45;&gt;TEST_SECRET -->
<g id="edge2" class="edge">
<title>ROOT_SECRET&#45;&gt;TEST_SECRET</title>
<path fill="none" stroke="#323a4e" d="M626,-217.8314C626,-210.131 626,-200.9743 626,-192.4166"/>
<polygon fill="#323a4e" stroke="#323a4e" points="626,-182.4133 630.5001,-192.4132 626,-187.4133 626.0001,-192.4133 626.0001,-192.4133 626.0001,-192.4133 626,-187.4133 621.5001,-192.4133 626,-182.4133 626,-182.4133"/>
</g>
<!-- PROD_SECRET -->
<g id="node16" class="node">
<title>PROD_SECRET</title>
<polygon fill="#27c97b" stroke="#27c97b" stroke-dasharray="1,5" points="1033,-182 949,-182 949,-146 1033,-146 1033,-182"/>
<text text-anchor="middle" x="991" y="-160.3" font-family="Source Sans Pro" font-size="14.00" fill="#ffffff">prod/secret</text>
</g>
<!-- ROOT_SECRET&#45;&gt;PROD_SECRET -->
<g id="edge3" class="edge">
<title>ROOT_SECRET&#45;&gt;PROD_SECRET</title>
<path fill="none" stroke="#323a4e" d="M659.6841,-229.3555C723.6123,-216.745 862.9219,-189.2647 938.9503,-174.2673"/>
<polygon fill="#323a4e" stroke="#323a4e" points="948.7956,-172.3252 939.8556,-178.6756 943.8901,-173.2929 938.9847,-174.2606 938.9847,-174.2606 938.9847,-174.2606 943.8901,-173.2929 938.1137,-169.8457 948.7956,-172.3252 948.7956,-172.3252"/>
</g>
<!-- DEV_SALES_SECRET -->
<g id="node3" class="node">
<title>DEV_SALES_SECRET</title>
<polygon fill="#fc4661" stroke="#fc4661" points="127.5,-110 14.5,-110 14.5,-74 127.5,-74 127.5,-110"/>
<text text-anchor="middle" x="71" y="-88.3" font-family="Source Sans Pro" font-size="14.00" fill="#ffffff">dev/sales/secret</text>
</g>
<!-- DEV_SECRET&#45;&gt;DEV_SALES_SECRET -->
<g id="edge4" class="edge">
<title>DEV_SECRET&#45;&gt;DEV_SALES_SECRET</title>
<path fill="none" stroke="#323a4e" d="M226.5388,-149.4297C198.7029,-139.1518 160.9436,-125.21 129.5999,-113.6369"/>
<polygon fill="#323a4e" stroke="#323a4e" points="120.0966,-110.128 131.0363,-109.3703 124.7871,-111.8599 129.4775,-113.5918 129.4775,-113.5918 129.4775,-113.5918 124.7871,-111.8599 127.9188,-117.8132 120.0966,-110.128 120.0966,-110.128"/>
</g>
<!-- DEV_ENG_SECRET -->
<g id="node4" class="node">
<title>DEV_ENG_SECRET</title>
<polygon fill="#fc4661" stroke="#fc4661" points="255,-110 151,-110 151,-74 255,-74 255,-110"/>
<text text-anchor="middle" x="203" y="-88.3" font-family="Source Sans Pro" font-size="14.00" fill="#ffffff">dev/eng/secret</text>
</g>
<!-- DEV_SECRET&#45;&gt;DEV_ENG_SECRET -->
<g id="edge5" class="edge">
<title>DEV_SECRET&#45;&gt;DEV_ENG_SECRET</title>
<path fill="none" stroke="#323a4e" d="M250.1024,-145.8314C242.7722,-137.454 233.934,-127.3531 225.9031,-118.1749"/>
<polygon fill="#323a4e" stroke="#323a4e" points="219.1116,-110.4133 229.0833,-114.9758 222.4041,-114.1762 225.6967,-117.9391 225.6967,-117.9391 225.6967,-117.9391 222.4041,-114.1762 222.3101,-120.9023 219.1116,-110.4133 219.1116,-110.4133"/>
</g>
<!-- DEV_MKTNG_SECRET -->
<g id="node5" class="node">
<title>DEV_MKTNG_SECRET</title>
<polygon fill="#fc4661" stroke="#fc4661" points="397.5,-110 276.5,-110 276.5,-74 397.5,-74 397.5,-110"/>
<text text-anchor="middle" x="337" y="-88.3" font-family="Source Sans Pro" font-size="14.00" fill="#ffffff">dev/mktng/secret</text>
</g>
<!-- DEV_SECRET&#45;&gt;DEV_MKTNG_SECRET -->
<g id="edge6" class="edge">
<title>DEV_SECRET&#45;&gt;DEV_MKTNG_SECRET</title>
<path fill="none" stroke="#323a4e" d="M283.9163,-145.8314C292.3442,-137.2848 302.541,-126.9443 311.736,-117.6198"/>
<polygon fill="#323a4e" stroke="#323a4e" points="318.8425,-110.4133 315.0252,-120.6933 315.3317,-113.9735 311.821,-117.5336 311.821,-117.5336 311.821,-117.5336 315.3317,-113.9735 308.6168,-114.374 318.8425,-110.4133 318.8425,-110.4133"/>
</g>
<!-- DEV_SALES_APP_SECRET -->
<g id="node6" class="node">
<title>DEV_SALES_APP_SECRET</title>
<path fill="#fc4661" stroke="transparent" d="M119,-38C119,-38 5,-38 5,-38 2.5,-38 0,-35.5 0,-33 0,-33 0,-28 0,-28 0,-25.5 2.5,-23 5,-23 5,-23 119,-23 119,-23 121.5,-23 124,-25.5 124,-28 124,-28 124,-33 124,-33 124,-35.5 121.5,-38 119,-38"/>
<text text-anchor="middle" x="62" y="-26.8" font-family="Source Sans Pro" font-size="14.00" fill="#ffffff">dev/sales/app/secret</text>
</g>
<!-- DEV_SALES_SECRET&#45;&gt;DEV_SALES_APP_SECRET -->
<g id="edge7" class="edge">
<title>DEV_SALES_SECRET&#45;&gt;DEV_SALES_APP_SECRET</title>
<path fill="none" stroke="#323a4e" d="M68.3484,-73.8806C67.1642,-65.7889 65.7734,-56.2849 64.5959,-48.2384"/>
<polygon fill="#323a4e" stroke="#323a4e" points="63.1171,-38.1337 69.0178,-47.3767 63.8412,-43.081 64.5652,-48.0283 64.5652,-48.0283 64.5652,-48.0283 63.8412,-43.081 60.1126,-48.68 63.1171,-38.1337 63.1171,-38.1337"/>
</g>
<!-- DEV_ENG_APP_SECRET -->
<g id="node7" class="node">
<title>DEV_ENG_APP_SECRET</title>
<path fill="#fc4661" stroke="transparent" d="M252.5,-38C252.5,-38 147.5,-38 147.5,-38 145,-38 142.5,-35.5 142.5,-33 142.5,-33 142.5,-28 142.5,-28 142.5,-25.5 145,-23 147.5,-23 147.5,-23 252.5,-23 252.5,-23 255,-23 257.5,-25.5 257.5,-28 257.5,-28 257.5,-33 257.5,-33 257.5,-35.5 255,-38 252.5,-38"/>
<text text-anchor="middle" x="200" y="-26.8" font-family="Source Sans Pro" font-size="14.00" fill="#ffffff">dev/eng/app/secret</text>
</g>
<!-- DEV_ENG_SECRET&#45;&gt;DEV_ENG_APP_SECRET -->
<g id="edge8" class="edge">
<title>DEV_ENG_SECRET&#45;&gt;DEV_ENG_APP_SECRET</title>
<path fill="none" stroke="#323a4e" d="M202.1161,-73.8806C201.7214,-65.7889 201.2578,-56.2849 200.8653,-48.2384"/>
<polygon fill="#323a4e" stroke="#323a4e" points="200.3724,-38.1337 205.3544,-47.9025 200.616,-43.1278 200.8597,-48.1218 200.8597,-48.1218 200.8597,-48.1218 200.616,-43.1278 196.365,-48.3411 200.3724,-38.1337 200.3724,-38.1337"/>
</g>
<!-- DEV_MKTNG_APP_SECRET -->
<g id="node8" class="node">
<title>DEV_MKTNG_APP_SECRET</title>
<path fill="#fc4661" stroke="transparent" d="M403,-38C403,-38 281,-38 281,-38 278.5,-38 276,-35.5 276,-33 276,-33 276,-28 276,-28 276,-25.5 278.5,-23 281,-23 281,-23 403,-23 403,-23 405.5,-23 408,-25.5 408,-28 408,-28 408,-33 408,-33 408,-35.5 405.5,-38 403,-38"/>
<text text-anchor="middle" x="342" y="-26.8" font-family="Source Sans Pro" font-size="14.00" fill="#ffffff">dev/mktng/app/secret</text>
</g>
<!-- DEV_MKTNG_SECRET&#45;&gt;DEV_MKTNG_APP_SECRET -->
<g id="edge9" class="edge">
<title>DEV_MKTNG_SECRET&#45;&gt;DEV_MKTNG_APP_SECRET</title>
<path fill="none" stroke="#323a4e" d="M338.4731,-73.8806C339.131,-65.7889 339.9037,-56.2849 340.5579,-48.2384"/>
<polygon fill="#323a4e" stroke="#323a4e" points="341.3794,-38.1337 345.0541,-48.4655 340.9742,-43.1173 340.5689,-48.1008 340.5689,-48.1008 340.5689,-48.1008 340.9742,-43.1173 336.0837,-47.7361 341.3794,-38.1337 341.3794,-38.1337"/>
</g>
<!-- TEST_SALES_SECRET -->
<g id="node10" class="node">
<title>TEST_SALES_SECRET</title>
<polygon fill="#2f81f7" stroke="#2f81f7" points="549.5,-110 436.5,-110 436.5,-74 549.5,-74 549.5,-110"/>
<text text-anchor="middle" x="493" y="-88.3" font-family="Source Sans Pro" font-size="14.00" fill="#ffffff">test/sales/secret</text>
</g>
<!-- TEST_SECRET&#45;&gt;TEST_SALES_SECRET -->
<g id="edge10" class="edge">
<title>TEST_SECRET&#45;&gt;TEST_SALES_SECRET</title>
<path fill="none" stroke="#323a4e" d="M592.4385,-145.8314C575.1119,-136.4516 553.7942,-124.9112 535.3464,-114.9244"/>
<polygon fill="#323a4e" stroke="#323a4e" points="526.5508,-110.1628 537.4872,-110.9662 530.9478,-112.5432 535.3449,-114.9236 535.3449,-114.9236 535.3449,-114.9236 530.9478,-112.5432 533.2025,-118.8809 526.5508,-110.1628 526.5508,-110.1628"/>
</g>
<!-- TEST_ENG_SECRET -->
<g id="node11" class="node">
<title>TEST_ENG_SECRET</title>
<polygon fill="#2f81f7" stroke="#2f81f7" points="678.5,-110 573.5,-110 573.5,-74 678.5,-74 678.5,-110"/>
<text text-anchor="middle" x="626" y="-88.3" font-family="Source Sans Pro" font-size="14.00" fill="#ffffff">test/eng/secret</text>
</g>
<!-- TEST_SECRET&#45;&gt;TEST_ENG_SECRET -->
<g id="edge11" class="edge">
<title>TEST_SECRET&#45;&gt;TEST_ENG_SECRET</title>
<path fill="none" stroke="#323a4e" d="M626,-145.8314C626,-138.131 626,-128.9743 626,-120.4166"/>
<polygon fill="#323a4e" stroke="#323a4e" points="626,-110.4133 630.5001,-120.4132 626,-115.4133 626.0001,-120.4133 626.0001,-120.4133 626.0001,-120.4133 626,-115.4133 621.5001,-120.4133 626,-110.4133 626,-110.4133"/>
</g>
<!-- TEST_MKTNG_SECRET -->
<g id="node12" class="node">
<title>TEST_MKTNG_SECRET</title>
<polygon fill="#2f81f7" stroke="#2f81f7" points="825,-110 703,-110 703,-74 825,-74 825,-110"/>
<text text-anchor="middle" x="764" y="-88.3" font-family="Source Sans Pro" font-size="14.00" fill="#ffffff">test/mktng/secret</text>
</g>
<!-- TEST_SECRET&#45;&gt;TEST_MKTNG_SECRET -->
<g id="edge12" class="edge">
<title>TEST_SECRET&#45;&gt;TEST_MKTNG_SECRET</title>
<path fill="none" stroke="#323a4e" d="M660.8232,-145.8314C678.8011,-136.4516 700.9203,-124.9112 720.0616,-114.9244"/>
<polygon fill="#323a4e" stroke="#323a4e" points="729.1879,-110.1628 722.4036,-118.7782 724.755,-112.4757 720.3221,-114.7885 720.3221,-114.7885 720.3221,-114.7885 724.755,-112.4757 718.2405,-110.7989 729.1879,-110.1628 729.1879,-110.1628"/>
</g>
<!-- TEST_SALES_APP_SECRET -->
<g id="node13" class="node">
<title>TEST_SALES_APP_SECRET</title>
<path fill="#2f81f7" stroke="transparent" d="M545,-38C545,-38 431,-38 431,-38 428.5,-38 426,-35.5 426,-33 426,-33 426,-28 426,-28 426,-25.5 428.5,-23 431,-23 431,-23 545,-23 545,-23 547.5,-23 550,-25.5 550,-28 550,-28 550,-33 550,-33 550,-35.5 547.5,-38 545,-38"/>
<text text-anchor="middle" x="488" y="-26.8" font-family="Source Sans Pro" font-size="14.00" fill="#ffffff">test/sales/app/secret</text>
</g>
<!-- TEST_SALES_SECRET&#45;&gt;TEST_SALES_APP_SECRET -->
<g id="edge13" class="edge">
<title>TEST_SALES_SECRET&#45;&gt;TEST_SALES_APP_SECRET</title>
<path fill="none" stroke="#323a4e" d="M491.5269,-73.8806C490.869,-65.7889 490.0963,-56.2849 489.4421,-48.2384"/>
<polygon fill="#323a4e" stroke="#323a4e" points="488.6206,-38.1337 493.9163,-47.7361 489.0258,-43.1173 489.4311,-48.1008 489.4311,-48.1008 489.4311,-48.1008 489.0258,-43.1173 484.9459,-48.4655 488.6206,-38.1337 488.6206,-38.1337"/>
</g>
<!-- TEST_ENG_APP_SECRET -->
<g id="node14" class="node">
<title>TEST_ENG_APP_SECRET</title>
<path fill="#2f81f7" stroke="transparent" d="M679,-38C679,-38 573,-38 573,-38 570.5,-38 568,-35.5 568,-33 568,-33 568,-28 568,-28 568,-25.5 570.5,-23 573,-23 573,-23 679,-23 679,-23 681.5,-23 684,-25.5 684,-28 684,-28 684,-33 684,-33 684,-35.5 681.5,-38 679,-38"/>
<text text-anchor="middle" x="626" y="-26.8" font-family="Source Sans Pro" font-size="14.00" fill="#ffffff">test/eng/app/secret</text>
</g>
<!-- TEST_ENG_SECRET&#45;&gt;TEST_ENG_APP_SECRET -->
<g id="edge14" class="edge">
<title>TEST_ENG_SECRET&#45;&gt;TEST_ENG_APP_SECRET</title>
<path fill="none" stroke="#323a4e" d="M626,-73.8806C626,-65.7889 626,-56.2849 626,-48.2384"/>
<polygon fill="#323a4e" stroke="#323a4e" points="626,-38.1337 630.5001,-48.1337 626,-43.1337 626.0001,-48.1337 626.0001,-48.1337 626.0001,-48.1337 626,-43.1337 621.5001,-48.1337 626,-38.1337 626,-38.1337"/>
</g>
<!-- TEST_MKTNG_APP_SECRET -->
<g id="node15" class="node">
<title>TEST_MKTNG_APP_SECRET</title>
<path fill="#2f81f7" stroke="transparent" d="M830.5,-38C830.5,-38 707.5,-38 707.5,-38 705,-38 702.5,-35.5 702.5,-33 702.5,-33 702.5,-28 702.5,-28 702.5,-25.5 705,-23 707.5,-23 707.5,-23 830.5,-23 830.5,-23 833,-23 835.5,-25.5 835.5,-28 835.5,-28 835.5,-33 835.5,-33 835.5,-35.5 833,-38 830.5,-38"/>
<text text-anchor="middle" x="769" y="-26.8" font-family="Source Sans Pro" font-size="14.00" fill="#ffffff">test/mktng/app/secret</text>
</g>
<!-- TEST_MKTNG_SECRET&#45;&gt;TEST_MKTNG_APP_SECRET -->
<g id="edge15" class="edge">
<title>TEST_MKTNG_SECRET&#45;&gt;TEST_MKTNG_APP_SECRET</title>
<path fill="none" stroke="#323a4e" d="M765.4731,-73.8806C766.131,-65.7889 766.9037,-56.2849 767.5579,-48.2384"/>
<polygon fill="#323a4e" stroke="#323a4e" points="768.3794,-38.1337 772.0541,-48.4655 767.9742,-43.1173 767.5689,-48.1008 767.5689,-48.1008 767.5689,-48.1008 767.9742,-43.1173 763.0837,-47.7361 768.3794,-38.1337 768.3794,-38.1337"/>
</g>
<!-- PROD_SALES_SECRET -->
<g id="node17" class="node">
<title>PROD_SALES_SECRET</title>
<polygon fill="#27c97b" stroke="#27c97b" points="981.5,-110 862.5,-110 862.5,-74 981.5,-74 981.5,-110"/>
<text text-anchor="middle" x="922" y="-88.3" font-family="Source Sans Pro" font-size="14.00" fill="#ffffff">prod/sales/secret</text>
</g>
<!-- PROD_SECRET&#45;&gt;PROD_SALES_SECRET -->
<g id="edge16" class="edge">
<title>PROD_SECRET&#45;&gt;PROD_SALES_SECRET</title>
<path fill="none" stroke="#323a4e" d="M973.5884,-145.8314C965.479,-137.3694 955.6844,-127.1489 946.818,-117.8971"/>
<polygon fill="#323a4e" stroke="#323a4e" points="939.646,-110.4133 949.8141,-114.5196 943.1056,-114.0232 946.5651,-117.6332 946.5651,-117.6332 946.5651,-117.6332 943.1056,-114.0232 943.3162,-120.7468 939.646,-110.4133 939.646,-110.4133"/>
</g>
<!-- PROD_ENG_SECRET -->
<g id="node18" class="node">
<title>PROD_ENG_SECRET</title>
<polygon fill="#27c97b" stroke="#27c97b" points="1115,-110 1005,-110 1005,-74 1115,-74 1115,-110"/>
<text text-anchor="middle" x="1060" y="-88.3" font-family="Source Sans Pro" font-size="14.00" fill="#ffffff">prod/eng/secret</text>
</g>
<!-- PROD_SECRET&#45;&gt;PROD_ENG_SECRET -->
<g id="edge17" class="edge">
<title>PROD_SECRET&#45;&gt;PROD_ENG_SECRET</title>
<path fill="none" stroke="#323a4e" d="M1008.4116,-145.8314C1016.521,-137.3694 1026.3156,-127.1489 1035.182,-117.8971"/>
<polygon fill="#323a4e" stroke="#323a4e" points="1042.354,-110.4133 1038.6838,-120.7468 1038.8944,-114.0232 1035.4349,-117.6332 1035.4349,-117.6332 1035.4349,-117.6332 1038.8944,-114.0232 1032.1859,-114.5196 1042.354,-110.4133 1042.354,-110.4133"/>
</g>
<!-- PROD_MKTNG_SECRET -->
<g id="node19" class="node">
<title>PROD_MKTNG_SECRET</title>
<polygon fill="#27c97b" stroke="#27c97b" points="1268.5,-110 1141.5,-110 1141.5,-74 1268.5,-74 1268.5,-110"/>
<text text-anchor="middle" x="1205" y="-88.3" font-family="Source Sans Pro" font-size="14.00" fill="#ffffff">prod/mktng/secret</text>
</g>
<!-- PROD_SECRET&#45;&gt;PROD_MKTNG_SECRET -->
<g id="edge18" class="edge">
<title>PROD_SECRET&#45;&gt;PROD_MKTNG_SECRET</title>
<path fill="none" stroke="#323a4e" d="M1033.0242,-149.861C1063.9553,-139.4543 1106.545,-125.1251 1141.6018,-113.3302"/>
<polygon fill="#323a4e" stroke="#323a4e" points="1151.2739,-110.0761 1143.231,-117.53 1146.5349,-111.6705 1141.796,-113.265 1141.796,-113.265 1141.796,-113.265 1146.5349,-111.6705 1140.361,-108.9999 1151.2739,-110.0761 1151.2739,-110.0761"/>
</g>
<!-- PROD_SALES_APP_SECRET -->
<g id="node20" class="node">
<title>PROD_SALES_APP_SECRET</title>
<path fill="#27c97b" stroke="transparent" d="M979,-38C979,-38 859,-38 859,-38 856.5,-38 854,-35.5 854,-33 854,-33 854,-28 854,-28 854,-25.5 856.5,-23 859,-23 859,-23 979,-23 979,-23 981.5,-23 984,-25.5 984,-28 984,-28 984,-33 984,-33 984,-35.5 981.5,-38 979,-38"/>
<text text-anchor="middle" x="919" y="-26.8" font-family="Source Sans Pro" font-size="14.00" fill="#ffffff">prod/sales/app/secret</text>
</g>
<!-- PROD_SALES_SECRET&#45;&gt;PROD_SALES_APP_SECRET -->
<g id="edge19" class="edge">
<title>PROD_SALES_SECRET&#45;&gt;PROD_SALES_APP_SECRET</title>
<path fill="none" stroke="#323a4e" d="M921.1161,-73.8806C920.7214,-65.7889 920.2578,-56.2849 919.8653,-48.2384"/>
<polygon fill="#323a4e" stroke="#323a4e" points="919.3724,-38.1337 924.3544,-47.9025 919.616,-43.1278 919.8597,-48.1218 919.8597,-48.1218 919.8597,-48.1218 919.616,-43.1278 915.365,-48.3411 919.3724,-38.1337 919.3724,-38.1337"/>
</g>
<!-- PROD_ENG_APP_SECRET -->
<g id="node21" class="node">
<title>PROD_ENG_APP_SECRET</title>
<path fill="#27c97b" stroke="transparent" d="M1118.5,-38C1118.5,-38 1007.5,-38 1007.5,-38 1005,-38 1002.5,-35.5 1002.5,-33 1002.5,-33 1002.5,-28 1002.5,-28 1002.5,-25.5 1005,-23 1007.5,-23 1007.5,-23 1118.5,-23 1118.5,-23 1121,-23 1123.5,-25.5 1123.5,-28 1123.5,-28 1123.5,-33 1123.5,-33 1123.5,-35.5 1121,-38 1118.5,-38"/>
<text text-anchor="middle" x="1063" y="-26.8" font-family="Source Sans Pro" font-size="14.00" fill="#ffffff">prod/eng/app/secret</text>
</g>
<!-- PROD_ENG_SECRET&#45;&gt;PROD_ENG_APP_SECRET -->
<g id="edge20" class="edge">
<title>PROD_ENG_SECRET&#45;&gt;PROD_ENG_APP_SECRET</title>
<path fill="none" stroke="#323a4e" d="M1060.8839,-73.8806C1061.2786,-65.7889 1061.7422,-56.2849 1062.1347,-48.2384"/>
<polygon fill="#323a4e" stroke="#323a4e" points="1062.6276,-38.1337 1066.635,-48.3411 1062.384,-43.1278 1062.1403,-48.1218 1062.1403,-48.1218 1062.1403,-48.1218 1062.384,-43.1278 1057.6456,-47.9025 1062.6276,-38.1337 1062.6276,-38.1337"/>
</g>
<!-- PROD_MKTNG_APP_SECRET -->
<g id="node22" class="node">
<title>PROD_MKTNG_APP_SECRET</title>
<path fill="#27c97b" stroke="transparent" d="M1275,-38C1275,-38 1147,-38 1147,-38 1144.5,-38 1142,-35.5 1142,-33 1142,-33 1142,-28 1142,-28 1142,-25.5 1144.5,-23 1147,-23 1147,-23 1275,-23 1275,-23 1277.5,-23 1280,-25.5 1280,-28 1280,-28 1280,-33 1280,-33 1280,-35.5 1277.5,-38 1275,-38"/>
<text text-anchor="middle" x="1211" y="-26.8" font-family="Source Sans Pro" font-size="14.00" fill="#ffffff">prod/mktng/app/secret</text>
</g>
<!-- PROD_MKTNG_SECRET&#45;&gt;PROD_MKTNG_APP_SECRET -->
<g id="edge21" class="edge">
<title>PROD_MKTNG_SECRET&#45;&gt;PROD_MKTNG_APP_SECRET</title>
<path fill="none" stroke="#323a4e" d="M1206.7677,-73.8806C1207.5572,-65.7889 1208.4844,-56.2849 1209.2694,-48.2384"/>
<polygon fill="#323a4e" stroke="#323a4e" points="1210.2552,-38.1337 1213.7629,-48.5234 1209.7697,-43.1101 1209.2842,-48.0865 1209.2842,-48.0865 1209.2842,-48.0865 1209.7697,-43.1101 1204.8054,-47.6495 1210.2552,-38.1337 1210.2552,-38.1337"/>
</g>
</g>
</svg>
