<?xml version="1.0" encoding="UTF-8" standalone="no"?>
<!-- Generated by graphviz version 2.40.1 (20161225.0304)
 -->

<!-- Title: G Pages: 1 -->

<svg xmlns:dc="http://purl.org/dc/elements/1.1/" xmlns:cc="http://creativecommons.org/ns#" xmlns:rdf="http://www.w3.org/1999/02/22-rdf-syntax-ns#" xmlns:svg="http://www.w3.org/2000/svg" xmlns="http://www.w3.org/2000/svg" xmlns:sodipodi="http://sodipodi.sourceforge.net/DTD/sodipodi-0.dtd" xmlns:inkscape="http://www.inkscape.org/namespaces/inkscape" width="852pt" height="407pt" viewBox="0.00 0.00 852.00 407.00" version="1.1" id="svg1865" sodipodi:docname="service-gateway.svg" inkscape:export-filename="/home/vishnu/tank/git/dcos-labs/secure-mesos-workshop/figures/png/service-gateway.png" inkscape:export-xdpi="384" inkscape:export-ydpi="384" inkscape:version="0.92.2 5c3e80d, 2017-08-06">
  <metadata id="metadata1871">
    <rdf:RDF>
      <cc:Work rdf:about="">
        <dc:format>image/svg+xml</dc:format>
        <dc:type rdf:resource="http://purl.org/dc/dcmitype/StillImage" />
      </cc:Work>
    </rdf:RDF>
  </metadata>
  <defs id="defs1869" />
  <sodipodi:namedview pagecolor="#ffffff" bordercolor="#666666" borderopacity="1" objecttolerance="10" gridtolerance="10" guidetolerance="10" inkscape:pageopacity="0" inkscape:pageshadow="2" inkscape:window-width="640" inkscape:window-height="480" id="namedview1867" showgrid="false" inkscape:zoom="1.6920581" inkscape:cx="523.97078" inkscape:cy="271.33333" inkscape:current-layer="clust2" />
  <g id="graph0" class="graph" transform="scale(1 1) rotate(0) translate(4 403)">
    <title id="title1542">G</title>
    <text text-anchor="middle" x="422" y="-7.8" font-family="Source Sans Pro" font-size="14.00" fill="#323a4e" id="text1544">Mesos Service Gateway</text>
    <g id="clust1" class="cluster">
      <title id="title1546">cluster_mesos_master</title>
      <polygon fill="#27c97b" stroke="#27c97b" stroke-dasharray="5,2" points="331,-204 331,-391 641.5,-391 641.5,-204 331,-204" id="polygon1548" style="fill:#27c97b;fill-opacity:0.49803922" />
      <text text-anchor="middle" x="486.25" y="-375.8" font-family="Source Sans Pro" font-size="14.00" fill="#323a4e" id="text1550">Mesos Master(s)</text>
    </g>
    <g id="clust2" class="cluster">
      <title id="title1553">cluster_mesos_agent</title>
      <polygon fill="#20d5ff" stroke="#20d5ff" stroke-dasharray="5,2" points="521,-31 521,-196 836,-196 836,-31 521,-31" id="polygon1555" style="fill:#20d5ff;fill-opacity:0.49803922" />
      <text text-anchor="middle" x="678.5" y="-180.8" font-family="Source Sans Pro" font-size="14.00" fill="#323a4e" id="text1557">Mesos Agent(s)</text>
    </g>
    <!-- UI -->
    <g id="node1" class="node">
      <title id="title1560">UI</title>
      <defs id="defs1567">
        <linearGradient id="l_0" gradientUnits="userSpaceOnUse" x1="0" y1="-358" x2="54" y2="-358">
          <stop offset="0" style="stop-color:#9351e5" id="stop1562" />
          <stop offset="1" style="stop-color:#ef468b" id="stop1564" />
        </linearGradient>
      </defs>
      <path fill="url(#l_0)" stroke="transparent" d="M42,-376C42,-376 12,-376 12,-376 6,-376 0,-370 0,-364 0,-364 0,-352 0,-352 0,-346 6,-340 12,-340 12,-340 42,-340 42,-340 48,-340 54,-346 54,-352 54,-352 54,-364 54,-364 54,-370 48,-376 42,-376" id="path1569" />
      <text text-anchor="middle" x="27" y="-354.3" font-family="Source Sans Pro" font-size="14.00" fill="#ffffff" id="text1571">UI</text>
    </g>
    <!-- FW -->
    <g id="node4" class="node">
      <title id="title1574">FW</title>
      <path fill="#fc4661" stroke="transparent" d="M155,-293.5C155,-293.5 95,-293.5 95,-293.5 92.5,-293.5 90,-291 90,-288.5 90,-288.5 90,-283.5 90,-283.5 90,-281 92.5,-278.5 95,-278.5 95,-278.5 155,-278.5 155,-278.5 157.5,-278.5 160,-281 160,-283.5 160,-283.5 160,-288.5 160,-288.5 160,-291 157.5,-293.5 155,-293.5" id="path1576" />
      <text text-anchor="middle" x="125" y="-282.3" font-family="Source Sans Pro" font-size="14.00" fill="#ffffff" id="text1578">-- Firewall --</text>
    </g>
    <!-- UI&#45;&gt;FW -->
    <g id="edge1" class="edge">
      <title id="title1581">UI-&gt;FW</title>
      <path fill="none" stroke="#323a4e" d="M51.7295,-339.8314C68.6039,-327.4339 90.6157,-311.2619 106.092,-299.8916" id="path1583" />
      <polygon fill="#323a4e" stroke="#323a4e" points="114.3608,-293.8165 108.9663,-303.3638 110.3314,-296.777 106.302,-299.7374 106.302,-299.7374 106.302,-299.7374 110.3314,-296.777 103.6376,-296.1109 114.3608,-293.8165 114.3608,-293.8165" id="polygon1585" />
    </g>
    <!-- CLI -->
    <g id="node2" class="node">
      <title id="title1588">CLI</title>
      <defs id="defs1595">
        <linearGradient id="l_1" gradientUnits="userSpaceOnUse" x1="0" y1="-286" x2="54" y2="-286">
          <stop offset="0" style="stop-color:#9351e5" id="stop1590" />
          <stop offset="1" style="stop-color:#ef468b" id="stop1592" />
        </linearGradient>
      </defs>
      <path fill="url(#l_1)" stroke="transparent" d="M42,-304C42,-304 12,-304 12,-304 6,-304 0,-298 0,-292 0,-292 0,-280 0,-280 0,-274 6,-268 12,-268 12,-268 42,-268 42,-268 48,-268 54,-274 54,-280 54,-280 54,-292 54,-292 54,-298 48,-304 42,-304" id="path1597" />
      <text text-anchor="middle" x="27" y="-282.3" font-family="Source Sans Pro" font-size="14.00" fill="#ffffff" id="text1599">CLI</text>
    </g>
    <!-- CLI&#45;&gt;FW -->
    <g id="edge2" class="edge">
      <title id="title1602">CLI-&gt;FW</title>
      <path fill="none" stroke="#323a4e" d="M54.0384,-286C62.0196,-286 70.9811,-286 79.7791,-286" id="path1604" />
      <polygon fill="#323a4e" stroke="#323a4e" points="89.9635,-286 79.9636,-290.5001 84.9635,-286 79.9635,-286.0001 79.9635,-286.0001 79.9635,-286.0001 84.9635,-286 79.9635,-281.5001 89.9635,-286 89.9635,-286" id="polygon1606" />
    </g>
    <!-- API -->
    <g id="node3" class="node">
      <title id="title1609">API</title>
      <defs id="defs1616">
        <linearGradient id="l_2" gradientUnits="userSpaceOnUse" x1="0" y1="-214" x2="54" y2="-214">
          <stop offset="0" style="stop-color:#9351e5" id="stop1611" />
          <stop offset="1" style="stop-color:#ef468b" id="stop1613" />
        </linearGradient>
      </defs>
      <path fill="url(#l_2)" stroke="transparent" d="M42,-232C42,-232 12,-232 12,-232 6,-232 0,-226 0,-220 0,-220 0,-208 0,-208 0,-202 6,-196 12,-196 12,-196 42,-196 42,-196 48,-196 54,-202 54,-208 54,-208 54,-220 54,-220 54,-226 48,-232 42,-232" id="path1618" />
      <text text-anchor="middle" x="27" y="-210.3" font-family="Source Sans Pro" font-size="14.00" fill="#ffffff" id="text1620">API</text>
    </g>
    <!-- API&#45;&gt;FW -->
    <g id="edge3" class="edge">
      <title id="title1623">API-&gt;FW</title>
      <path fill="none" stroke="#323a4e" d="M51.7295,-232.1686C68.6039,-244.5661 90.6157,-260.7381 106.092,-272.1084" id="path1625" />
      <polygon fill="#323a4e" stroke="#323a4e" points="114.3608,-278.1835 103.6376,-275.8891 110.3314,-275.223 106.302,-272.2626 106.302,-272.2626 106.302,-272.2626 110.3314,-275.223 108.9663,-268.6362 114.3608,-278.1835 114.3608,-278.1835" id="polygon1627" />
    </g>
    <!-- LB -->
    <g id="node5" class="node">
      <title id="title1630">LB</title>
      <path fill="#2f81f7" stroke="transparent" d="M298,-293.5C298,-293.5 201,-293.5 201,-293.5 198.5,-293.5 196,-291 196,-288.5 196,-288.5 196,-283.5 196,-283.5 196,-281 198.5,-278.5 201,-278.5 201,-278.5 298,-278.5 298,-278.5 300.5,-278.5 303,-281 303,-283.5 303,-283.5 303,-288.5 303,-288.5 303,-291 300.5,-293.5 298,-293.5" id="path1632" />
      <text text-anchor="middle" x="249.5" y="-282.3" font-family="Source Sans Pro" font-size="14.00" fill="#ffffff" id="text1634">-- Load Balancer --</text>
    </g>
    <!-- FW&#45;&gt;LB -->
    <g id="edge4" class="edge">
      <title id="title1637">FW-&gt;LB</title>
      <path fill="none" stroke="#323a4e" d="M160.0115,-286C167.9724,-286 176.6735,-286 185.4229,-286" id="path1639" />
      <polygon fill="#323a4e" stroke="#323a4e" points="195.6745,-286 185.6746,-290.5001 190.6745,-286 185.6745,-286.0001 185.6745,-286.0001 185.6745,-286.0001 190.6745,-286 185.6745,-281.5001 195.6745,-286 195.6745,-286" id="polygon1641" />
    </g>
    <!-- AR_MM -->
    <g id="node6" class="node">
      <title id="title1644">AR_MM</title>
      <defs id="defs1651">
        <linearGradient id="l_3" gradientUnits="userSpaceOnUse" x1="339" y1="-286" x2="493" y2="-286">
          <stop offset="0" style="stop-color:#9351e5" id="stop1646" />
          <stop offset="1" style="stop-color:#ef468b" id="stop1648" />
        </linearGradient>
      </defs>
      <path fill="url(#l_3)" stroke="transparent" d="M481,-359.5C481,-359.5 351,-359.5 351,-359.5 345,-359.5 339,-353.5 339,-347.5 339,-347.5 339,-224.5 339,-224.5 339,-218.5 345,-212.5 351,-212.5 351,-212.5 481,-212.5 481,-212.5 487,-212.5 493,-218.5 493,-224.5 493,-224.5 493,-347.5 493,-347.5 493,-353.5 487,-359.5 481,-359.5" id="path1653" />
      <defs id="defs1660">
        <linearGradient id="l_4" gradientUnits="userSpaceOnUse" x1="339" y1="-286" x2="493" y2="-286">
          <stop offset="0" style="stop-color:#9351e5" id="stop1655" />
          <stop offset="1" style="stop-color:#ef468b" id="stop1657" />
        </linearGradient>
      </defs>
      <polygon fill="url(#l_4)" stroke="transparent" points="339,-212.5 339,-359.5 493,-359.5 493,-212.5 339,-212.5" id="polygon1662" />
      <polygon fill="none" stroke="#323a4e" points="339,-338 339,-359 493,-359 493,-338 339,-338" id="polygon1664" />
      <text text-anchor="start" x="342" y="-344.8" font-family="Source Sans Pro" font-size="14.00" fill="#ffffff" id="text1666">Service Gateway (Master)</text>
      <polygon fill="none" stroke="#323a4e" points="339,-317 339,-338 493,-338 493,-317 339,-317" id="polygon1668" />
      <text text-anchor="start" x="394.5" y="-323.8" font-family="Source Sans Pro" font-size="14.00" fill="#ffffff" id="text1670">/mesos</text>
      <polygon fill="none" stroke="#323a4e" points="339,-296 339,-317 493,-317 493,-296 339,-296" id="polygon1672" />
      <text text-anchor="start" x="397" y="-302.8" font-family="Source Sans Pro" font-size="14.00" fill="#ffffff" id="text1674">/agent</text>
      <polygon fill="none" stroke="#323a4e" points="339,-275 339,-296 493,-296 493,-275 339,-275" id="polygon1676" />
      <text text-anchor="start" x="361.5" y="-281.8" font-family="Source Sans Pro" font-size="14.00" fill="#ffffff" id="text1678">/service/marathon</text>
      <polygon fill="none" stroke="#323a4e" points="339,-254 339,-275 493,-275 493,-254 339,-254" id="polygon1680" />
      <text text-anchor="start" x="380.5" y="-260.8" font-family="Source Sans Pro" font-size="14.00" fill="#ffffff" id="text1682">/mesos_dns</text>
      <polygon fill="none" stroke="#323a4e" points="339,-233 339,-254 493,-254 493,-233 339,-233" id="polygon1684" />
      <text text-anchor="start" x="380.5" y="-239.8" font-family="Source Sans Pro" font-size="14.00" fill="#ffffff" id="text1686">/service/xyz</text>
      <polygon fill="none" stroke="#323a4e" points="339,-212 339,-233 493,-233 493,-212 339,-212" id="polygon1688" />
      <text text-anchor="start" x="407.5" y="-218.8" font-family="Source Sans Pro" font-size="14.00" fill="#ffffff" id="text1690">/...</text>
    </g>
    <!-- LB&#45;&gt;AR_MM -->
    <g id="edge5" class="edge">
      <title id="title1693">LB-&gt;AR_MM</title>
      <path fill="none" stroke="#323a4e" d="M303.0981,-286C311.2975,-286 319.9383,-286 328.6391,-286" id="path1695" />
      <polygon fill="#323a4e" stroke="#323a4e" points="338.8578,-286 328.8578,-290.5001 333.8578,-286 328.8578,-286.0001 328.8578,-286.0001 328.8578,-286.0001 333.8578,-286 328.8577,-281.5001 338.8578,-286 338.8578,-286" id="polygon1697" />
    </g>
    <!-- AR_MA -->
    <g id="node7" class="node">
      <title id="title1700">AR_MA</title>
      <defs id="defs1707">
        <linearGradient id="l_5" gradientUnits="userSpaceOnUse" x1="529" y1="-102" x2="677" y2="-102">
          <stop offset="0" style="stop-color:#9351e5" id="stop1702" />
          <stop offset="1" style="stop-color:#ef468b" id="stop1704" />
        </linearGradient>
      </defs>
      <path fill="url(#l_5)" stroke="transparent" d="M665,-165C665,-165 541,-165 541,-165 535,-165 529,-159 529,-153 529,-153 529,-51 529,-51 529,-45 535,-39 541,-39 541,-39 665,-39 665,-39 671,-39 677,-45 677,-51 677,-51 677,-153 677,-153 677,-159 671,-165 665,-165" id="path1709" />
      <defs id="defs1716">
        <linearGradient id="l_6" gradientUnits="userSpaceOnUse" x1="529" y1="-102" x2="677" y2="-102">
          <stop offset="0" style="stop-color:#9351e5" id="stop1711" />
          <stop offset="1" style="stop-color:#ef468b" id="stop1713" />
        </linearGradient>
      </defs>
      <polygon fill="url(#l_6)" stroke="transparent" points="529,-39 529,-165 677,-165 677,-39 529,-39" id="polygon1718" />
      <polygon fill="none" stroke="#323a4e" points="529,-144 529,-165 677,-165 677,-144 529,-144" id="polygon1720" />
      <text text-anchor="start" x="532" y="-150.8" font-family="Source Sans Pro" font-size="14.00" fill="#ffffff" id="text1722">Service Gateway (Agent)</text>
      <polygon fill="none" stroke="#323a4e" points="529,-123 529,-144 677,-144 677,-123 529,-123" id="polygon1724" />
      <text text-anchor="start" x="581.5" y="-129.8" font-family="Source Sans Pro" font-size="14.00" fill="#ffffff" id="text1726">/mesos</text>
      <polygon fill="none" stroke="#323a4e" points="529,-102 529,-123 677,-123 677,-102 529,-102" id="polygon1728" />
      <text text-anchor="start" x="588" y="-108.8" font-family="Source Sans Pro" font-size="14.00" fill="#ffffff" id="text1730">/logs</text>
      <polygon fill="none" stroke="#323a4e" points="529,-81 529,-102 677,-102 677,-81 529,-81" id="polygon1732" />
      <text text-anchor="start" x="578.5" y="-87.8" font-family="Source Sans Pro" font-size="14.00" fill="#ffffff" id="text1734">/metrics</text>
      <polygon fill="none" stroke="#323a4e" points="529,-60 529,-81 677,-81 677,-60 529,-60" id="polygon1736" />
      <text text-anchor="start" x="567.5" y="-66.8" font-family="Source Sans Pro" font-size="14.00" fill="#ffffff" id="text1738">/service/xyz</text>
      <polygon fill="none" stroke="#323a4e" points="529,-39 529,-60 677,-60 677,-39 529,-39" id="polygon1740" />
      <text text-anchor="start" x="594.5" y="-45.8" font-family="Source Sans Pro" font-size="14.00" fill="#ffffff" id="text1742">/...</text>
    </g>
    <!-- AR_MM&#45;&gt;AR_MA -->
    <g id="edge6" class="edge">
      <title id="title1745">AR_MM:agent-&gt;AR_MA</title>
      <path fill="none" stroke="#323a4e" d="M493,-307C544.3098,-307 497.1334,-240.4211 521,-195 524.8861,-187.6042 529.4788,-180.3132 534.4743,-173.2654" id="path1747" />
      <polygon fill="#323a4e" stroke="#323a4e" points="540.5056,-165.1118 538.1765,-175.8275 537.5321,-169.1316 534.5587,-173.1513 534.5587,-173.1513 534.5587,-173.1513 537.5321,-169.1316 530.9409,-170.4752 540.5056,-165.1118 540.5056,-165.1118" id="polygon1749" />
    </g>
    <!-- AR_MM&#45;&gt;AR_MA -->
    <g id="edge7" class="edge">
      <title id="title1752">AR_MM:service_xyz-&gt;AR_MA</title>
      <path fill="none" stroke="#323a4e" d="M493,-243C517.6977,-243 506.5425,-215.0239 521,-195 526.2746,-187.6946 532.0166,-180.2918 537.9322,-173.0188" id="path1754" />
      <polygon fill="#323a4e" stroke="#323a4e" points="544.4055,-165.1884 541.5023,-175.763 541.2197,-169.042 538.0339,-172.8957 538.0339,-172.8957 538.0339,-172.8957 541.2197,-169.042 534.5656,-170.0285 544.4055,-165.1884 544.4055,-165.1884" id="polygon1756" />
    </g>
    <!-- MM -->
    <g id="node8" class="node">
      <title id="title1759">MM</title>
      <defs id="defs1766">
        <linearGradient id="l_7" gradientUnits="userSpaceOnUse" x1="572.5" y1="-296" x2="633.5" y2="-296">
          <stop offset="0" style="stop-color:#9351e5" id="stop1761" />
          <stop offset="1" style="stop-color:#ef468b" id="stop1763" />
        </linearGradient>
      </defs>
      <path fill="url(#l_7)" stroke="transparent" d="M621.5,-338C621.5,-338 584.5,-338 584.5,-338 578.5,-338 572.5,-332 572.5,-326 572.5,-326 572.5,-266 572.5,-266 572.5,-260 578.5,-254 584.5,-254 584.5,-254 621.5,-254 621.5,-254 627.5,-254 633.5,-260 633.5,-266 633.5,-266 633.5,-326 633.5,-326 633.5,-332 627.5,-338 621.5,-338" id="path1768" />
      <defs id="defs1775">
        <linearGradient id="l_8" gradientUnits="userSpaceOnUse" x1="572.5" y1="-296" x2="633.5" y2="-296">
          <stop offset="0" style="stop-color:#9351e5" id="stop1770" />
          <stop offset="1" style="stop-color:#ef468b" id="stop1772" />
        </linearGradient>
      </defs>
      <polygon fill="url(#l_8)" stroke="transparent" points="572.5,-254 572.5,-338 633.5,-338 633.5,-254 572.5,-254" id="polygon1777" />
      <polygon fill="none" stroke="#323a4e" points="573,-317 573,-338 634,-338 634,-317 573,-317" id="polygon1779" />
      <text text-anchor="start" x="576" y="-323.8" font-family="Source Sans Pro" font-size="14.00" fill="#ffffff" id="text1781">Master(s)</text>
      <polygon fill="none" stroke="#323a4e" points="573,-296 573,-317 634,-317 634,-296 573,-296" id="polygon1783" />
      <text text-anchor="start" x="589.5" y="-302.8" font-family="Source Sans Pro" font-size="14.00" fill="#ffffff" id="text1785">5050</text>
      <polygon fill="none" stroke="#323a4e" points="573,-275 573,-296 634,-296 634,-275 573,-275" id="polygon1787" />
      <text text-anchor="start" x="589.5" y="-281.8" font-family="Source Sans Pro" font-size="14.00" fill="#ffffff" id="text1789">8443</text>
      <polygon fill="none" stroke="#323a4e" points="573,-254 573,-275 634,-275 634,-254 573,-254" id="polygon1791" />
      <text text-anchor="start" x="586.5" y="-260.8" font-family="Source Sans Pro" font-size="14.00" fill="#ffffff" id="text1793">61053</text>
    </g>
    <!-- AR_MM&#45;&gt;MM -->
    <g id="edge8" class="edge">
      <title id="title1796">AR_MM:mesos-&gt;MM:mm_5050</title>
      <path fill="none" stroke="#323a4e" d="M493,-328C526.0267,-328 534.6113,-311.049 562.6732,-307.6058" id="path1798" />
      <polygon fill="#323a4e" stroke="#323a4e" points="573,-307 563.2808,-312.078 568.0086,-307.2929 563.0172,-307.5858 563.0172,-307.5858 563.0172,-307.5858 568.0086,-307.2929 562.7536,-303.0935 573,-307 573,-307" id="polygon1800" />
    </g>
    <!-- AR_MM&#45;&gt;MM -->
    <g id="edge9" class="edge">
      <title id="title1803">AR_MM:marathon-&gt;MM:mm_8443</title>
      <path fill="none" stroke="#323a4e" d="M493,-285C524.9444,-285 535.3638,-285 562.936,-285" id="path1805" />
      <polygon fill="#323a4e" stroke="#323a4e" points="573,-285 563,-289.5001 568,-285 563,-285.0001 563,-285.0001 563,-285.0001 568,-285 563,-280.5001 573,-285 573,-285" id="polygon1807" />
    </g>
    <!-- AR_MM&#45;&gt;MM -->
    <g id="edge10" class="edge">
      <title id="title1810">AR_MM:mesos_dns-&gt;MM:mm_61053</title>
      <path fill="none" stroke="#323a4e" d="M493,-264C524.9444,-264 535.3638,-264 562.936,-264" id="path1812" />
      <polygon fill="#323a4e" stroke="#323a4e" points="573,-264 563,-268.5001 568,-264 563,-264.0001 563,-264.0001 563,-264.0001 568,-264 563,-259.5001 573,-264 573,-264" id="polygon1814" />
    </g>
    <!-- MA -->
    <g id="node9" class="node">
      <title id="title1817">MA</title>
      <defs id="defs1824">
        <linearGradient id="l_9" gradientUnits="userSpaceOnUse" x1="713" y1="-112" x2="828" y2="-112">
          <stop offset="0" style="stop-color:#9351e5" id="stop1819" />
          <stop offset="1" style="stop-color:#ef468b" id="stop1821" />
        </linearGradient>
      </defs>
      <path fill="url(#l_9)" stroke="transparent" d="M816,-143.5C816,-143.5 725,-143.5 725,-143.5 719,-143.5 713,-137.5 713,-131.5 713,-131.5 713,-92.5 713,-92.5 713,-86.5 719,-80.5 725,-80.5 725,-80.5 816,-80.5 816,-80.5 822,-80.5 828,-86.5 828,-92.5 828,-92.5 828,-131.5 828,-131.5 828,-137.5 822,-143.5 816,-143.5" id="path1826" />
      <defs id="defs1833">
        <linearGradient id="l_10" gradientUnits="userSpaceOnUse" x1="713" y1="-112" x2="828" y2="-112">
          <stop offset="0" style="stop-color:#9351e5" id="stop1828" />
          <stop offset="1" style="stop-color:#ef468b" id="stop1830" />
        </linearGradient>
      </defs>
      <polygon fill="url(#l_10)" stroke="transparent" points="713,-80.5 713,-143.5 828,-143.5 828,-80.5 713,-80.5" id="polygon1835" />
      <polygon fill="none" stroke="#323a4e" points="713.5,-122 713.5,-143 828.5,-143 828.5,-122 713.5,-122" id="polygon1837" />
      <text text-anchor="start" x="724.5" y="-128.8" font-family="Source Sans Pro" font-size="14.00" fill="#ffffff" id="text1839">Private Agent(s)</text>
      <polygon fill="none" stroke="#323a4e" points="713.5,-101 713.5,-122 828.5,-122 828.5,-101 713.5,-101" id="polygon1841" />
      <text text-anchor="start" x="757" y="-107.8" font-family="Source Sans Pro" font-size="14.00" fill="#ffffff" id="text1843">5051</text>
      <polygon fill="none" stroke="#323a4e" points="713.5,-80 713.5,-101 828.5,-101 828.5,-80 713.5,-80" id="polygon1845" />
      <text text-anchor="start" x="716.5" y="-86.8" font-family="Source Sans Pro" font-size="14.00" fill="#ffffff" id="text1847">&lt;service_xyz:port&gt;</text>
    </g>
    <!-- AR_MA&#45;&gt;MA -->
    <g id="edge11" class="edge">
      <title id="title1850">AR_MA:mesos-&gt;MA:ma_5051</title>
      <path fill="none" stroke="#323a4e" d="M677,-134C692.1297,-134 694.1702,-119.6797 703.7779,-113.6384" id="path1852" />
      <polygon fill="#323a4e" stroke="#323a4e" points="713.5,-111 705.0277,-117.9621 708.6745,-112.3096 703.8491,-113.6191 703.8491,-113.6191 703.8491,-113.6191 708.6745,-112.3096 702.6705,-109.2762 713.5,-111 713.5,-111" id="polygon1854" />
    </g>
    <!-- AR_MA&#45;&gt;MA -->
    <g id="edge12" class="edge">
      <title id="title1857">AR_MA:service_xyz-&gt;MA:ma_xyz</title>
      <path fill="none" stroke="#323a4e" d="M677,-70C691.4515,-70 694.3101,-82.207 703.6897,-87.5476" id="path1859" />
      <polygon fill="#323a4e" stroke="#323a4e" points="713.5,-90 702.7072,-91.9404 708.6493,-88.7874 703.7985,-87.5747 703.7985,-87.5747 703.7985,-87.5747 708.6493,-88.7874 704.8899,-83.2091 713.5,-90 713.5,-90" id="polygon1861" />
    </g>
  </g>
</svg>
